<svg width="62" height="12" viewBox="0 0 62 12" fill="none" xmlns="http://www.w3.org/2000/svg">
<path d="M4.14258 0.46875V9H3.0293V0.46875H4.14258ZM6.88477 0.46875V1.39453H0.292969V0.46875H6.88477ZM10.0312 9.11719C9.58984 9.11719 9.18945 9.04297 8.83008 8.89453C8.47461 8.74219 8.16797 8.5293 7.91016 8.25586C7.65625 7.98242 7.46094 7.6582 7.32422 7.2832C7.1875 6.9082 7.11914 6.49805 7.11914 6.05273V5.80664C7.11914 5.29102 7.19531 4.83203 7.34766 4.42969C7.5 4.02344 7.70703 3.67969 7.96875 3.39844C8.23047 3.11719 8.52734 2.9043 8.85938 2.75977C9.19141 2.61523 9.53516 2.54297 9.89062 2.54297C10.3438 2.54297 10.7344 2.62109 11.0625 2.77734C11.3945 2.93359 11.666 3.15234 11.877 3.43359C12.0879 3.71094 12.2441 4.03906 12.3457 4.41797C12.4473 4.79297 12.498 5.20312 12.498 5.64844V6.13477H7.76367V5.25H11.4141V5.16797C11.3984 4.88672 11.3398 4.61328 11.2383 4.34766C11.1406 4.08203 10.9844 3.86328 10.7695 3.69141C10.5547 3.51953 10.2617 3.43359 9.89062 3.43359C9.64453 3.43359 9.41797 3.48633 9.21094 3.5918C9.00391 3.69336 8.82617 3.8457 8.67773 4.04883C8.5293 4.25195 8.41406 4.5 8.33203 4.79297C8.25 5.08594 8.20898 5.42383 8.20898 5.80664V6.05273C8.20898 6.35352 8.25 6.63672 8.33203 6.90234C8.41797 7.16406 8.54102 7.39453 8.70117 7.59375C8.86523 7.79297 9.0625 7.94922 9.29297 8.0625C9.52734 8.17578 9.79297 8.23242 10.0898 8.23242C10.4727 8.23242 10.7969 8.1543 11.0625 7.99805C11.3281 7.8418 11.5605 7.63281 11.7598 7.37109L12.416 7.89258C12.2793 8.09961 12.1055 8.29688 11.8945 8.48438C11.6836 8.67188 11.4238 8.82422 11.1152 8.94141C10.8105 9.05859 10.4492 9.11719 10.0312 9.11719ZM16.3008 8.22656C16.5586 8.22656 16.7969 8.17383 17.0156 8.06836C17.2344 7.96289 17.4141 7.81836 17.5547 7.63477C17.6953 7.44727 17.7754 7.23438 17.7949 6.99609H18.8262C18.8066 7.37109 18.6797 7.7207 18.4453 8.04492C18.2148 8.36523 17.9121 8.625 17.5371 8.82422C17.1621 9.01953 16.75 9.11719 16.3008 9.11719C15.8242 9.11719 15.4082 9.0332 15.0527 8.86523C14.7012 8.69727 14.4082 8.4668 14.1738 8.17383C13.9434 7.88086 13.7695 7.54492 13.6523 7.16602C13.5391 6.7832 13.4824 6.37891 13.4824 5.95312V5.70703C13.4824 5.28125 13.5391 4.87891 13.6523 4.5C13.7695 4.11719 13.9434 3.7793 14.1738 3.48633C14.4082 3.19336 14.7012 2.96289 15.0527 2.79492C15.4082 2.62695 15.8242 2.54297 16.3008 2.54297C16.7969 2.54297 17.2305 2.64453 17.6016 2.84766C17.9727 3.04688 18.2637 3.32031 18.4746 3.66797C18.6895 4.01172 18.8066 4.40234 18.8262 4.83984H17.7949C17.7754 4.57812 17.7012 4.3418 17.5723 4.13086C17.4473 3.91992 17.2754 3.75195 17.0566 3.62695C16.8418 3.49805 16.5898 3.43359 16.3008 3.43359C15.9688 3.43359 15.6895 3.5 15.4629 3.63281C15.2402 3.76172 15.0625 3.9375 14.9297 4.16016C14.8008 4.37891 14.707 4.62305 14.6484 4.89258C14.5938 5.1582 14.5664 5.42969 14.5664 5.70703V5.95312C14.5664 6.23047 14.5938 6.50391 14.6484 6.77344C14.7031 7.04297 14.7949 7.28711 14.9238 7.50586C15.0566 7.72461 15.2344 7.90039 15.457 8.0332C15.6836 8.16211 15.9648 8.22656 16.3008 8.22656ZM21.1289 0V9H20.0449V0H21.1289ZM20.8711 5.58984L20.4199 5.57227C20.4238 5.13867 20.4883 4.73828 20.6133 4.37109C20.7383 4 20.9141 3.67773 21.1406 3.4043C21.3672 3.13086 21.6367 2.91992 21.9492 2.77148C22.2656 2.61914 22.6152 2.54297 22.998 2.54297C23.3105 2.54297 23.5918 2.58594 23.8418 2.67188C24.0918 2.75391 24.3047 2.88672 24.4805 3.07031C24.6602 3.25391 24.7969 3.49219 24.8906 3.78516C24.9844 4.07422 25.0312 4.42773 25.0312 4.8457V9H23.9414V4.83398C23.9414 4.50195 23.8926 4.23633 23.7949 4.03711C23.6973 3.83398 23.5547 3.6875 23.3672 3.59766C23.1797 3.50391 22.9492 3.45703 22.6758 3.45703C22.4062 3.45703 22.1602 3.51367 21.9375 3.62695C21.7188 3.74023 21.5293 3.89648 21.3691 4.0957C21.2129 4.29492 21.0898 4.52344 21 4.78125C20.9141 5.03516 20.8711 5.30469 20.8711 5.58984ZM27.7383 4.01367V9H26.6543V2.66016H27.6797L27.7383 4.01367ZM27.4805 5.58984L27.0293 5.57227C27.0332 5.13867 27.0977 4.73828 27.2227 4.37109C27.3477 4 27.5234 3.67773 27.75 3.4043C27.9766 3.13086 28.2461 2.91992 28.5586 2.77148C28.875 2.61914 29.2246 2.54297 29.6074 2.54297C29.9199 2.54297 30.2012 2.58594 30.4512 2.67188C30.7012 2.75391 30.9141 2.88672 31.0898 3.07031C31.2695 3.25391 31.4062 3.49219 31.5 3.78516C31.5938 4.07422 31.6406 4.42773 31.6406 4.8457V9H30.5508V4.83398C30.5508 4.50195 30.502 4.23633 30.4043 4.03711C30.3066 3.83398 30.1641 3.6875 29.9766 3.59766C29.7891 3.50391 29.5586 3.45703 29.2852 3.45703C29.0156 3.45703 28.7695 3.51367 28.5469 3.62695C28.3281 3.74023 28.1387 3.89648 27.9785 4.0957C27.8223 4.29492 27.6992 4.52344 27.6094 4.78125C27.5234 5.03516 27.4805 5.30469 27.4805 5.58984ZM33 5.90039V5.76562C33 5.30859 33.0664 4.88477 33.1992 4.49414C33.332 4.09961 33.5234 3.75781 33.7734 3.46875C34.0234 3.17578 34.3262 2.94922 34.6816 2.78906C35.0371 2.625 35.4355 2.54297 35.877 2.54297C36.3223 2.54297 36.7227 2.625 37.0781 2.78906C37.4375 2.94922 37.7422 3.17578 37.9922 3.46875C38.2461 3.75781 38.4395 4.09961 38.5723 4.49414C38.7051 4.88477 38.7715 5.30859 38.7715 5.76562V5.90039C38.7715 6.35742 38.7051 6.78125 38.5723 7.17188C38.4395 7.5625 38.2461 7.9043 37.9922 8.19727C37.7422 8.48633 37.4395 8.71289 37.084 8.87695C36.7324 9.03711 36.334 9.11719 35.8887 9.11719C35.4434 9.11719 35.043 9.03711 34.6875 8.87695C34.332 8.71289 34.0273 8.48633 33.7734 8.19727C33.5234 7.9043 33.332 7.5625 33.1992 7.17188C33.0664 6.78125 33 6.35742 33 5.90039ZM34.084 5.76562V5.90039C34.084 6.2168 34.1211 6.51562 34.1953 6.79688C34.2695 7.07422 34.3809 7.32031 34.5293 7.53516C34.6816 7.75 34.8711 7.91992 35.0977 8.04492C35.3242 8.16602 35.5879 8.22656 35.8887 8.22656C36.1855 8.22656 36.4453 8.16602 36.668 8.04492C36.8945 7.91992 37.082 7.75 37.2305 7.53516C37.3789 7.32031 37.4902 7.07422 37.5645 6.79688C37.6426 6.51562 37.6816 6.2168 37.6816 5.90039V5.76562C37.6816 5.45312 37.6426 5.1582 37.5645 4.88086C37.4902 4.59961 37.377 4.35156 37.2246 4.13672C37.0762 3.91797 36.8887 3.74609 36.6621 3.62109C36.4395 3.49609 36.1777 3.43359 35.877 3.43359C35.5801 3.43359 35.3184 3.49609 35.0918 3.62109C34.8691 3.74609 34.6816 3.91797 34.5293 4.13672C34.3809 4.35156 34.2695 4.59961 34.1953 4.88086C34.1211 5.1582 34.084 5.45312 34.084 5.76562ZM41.3086 0V9H40.2188V0H41.3086ZM42.7617 5.90039V5.76562C42.7617 5.30859 42.8281 4.88477 42.9609 4.49414C43.0938 4.09961 43.2852 3.75781 43.5352 3.46875C43.7852 3.17578 44.0879 2.94922 44.4434 2.78906C44.7988 2.625 45.1973 2.54297 45.6387 2.54297C46.084 2.54297 46.4844 2.625 46.8398 2.78906C47.1992 2.94922 47.5039 3.17578 47.7539 3.46875C48.0078 3.75781 48.2012 4.09961 48.334 4.49414C48.4668 4.88477 48.5332 5.30859 48.5332 5.76562V5.90039C48.5332 6.35742 48.4668 6.78125 48.334 7.17188C48.2012 7.5625 48.0078 7.9043 47.7539 8.19727C47.5039 8.48633 47.2012 8.71289 46.8457 8.87695C46.4941 9.03711 46.0957 9.11719 45.6504 9.11719C45.2051 9.11719 44.8047 9.03711 44.4492 8.87695C44.0938 8.71289 43.7891 8.48633 43.5352 8.19727C43.2852 7.9043 43.0938 7.5625 42.9609 7.17188C42.8281 6.78125 42.7617 6.35742 42.7617 5.90039ZM43.8457 5.76562V5.90039C43.8457 6.2168 43.8828 6.51562 43.957 6.79688C44.0312 7.07422 44.1426 7.32031 44.291 7.53516C44.4434 7.75 44.6328 7.91992 44.8594 8.04492C45.0859 8.16602 45.3496 8.22656 45.6504 8.22656C45.9473 8.22656 46.207 8.16602 46.4297 8.04492C46.6562 7.91992 46.8438 7.75 46.9922 7.53516C47.1406 7.32031 47.252 7.07422 47.3262 6.79688C47.4043 6.51562 47.4434 6.2168 47.4434 5.90039V5.76562C47.4434 5.45312 47.4043 5.1582 47.3262 4.88086C47.252 4.59961 47.1387 4.35156 46.9863 4.13672C46.8379 3.91797 46.6504 3.74609 46.4238 3.62109C46.2012 3.49609 45.9395 3.43359 45.6387 3.43359C45.3418 3.43359 45.0801 3.49609 44.8535 3.62109C44.6309 3.74609 44.4434 3.91797 44.291 4.13672C44.1426 4.35156 44.0312 4.59961 43.957 4.88086C43.8828 5.1582 43.8457 5.45312 43.8457 5.76562ZM54 2.66016H54.9844V8.86523C54.9844 9.42383 54.8711 9.90039 54.6445 10.2949C54.418 10.6895 54.1016 10.9883 53.6953 11.1914C53.293 11.3984 52.8281 11.502 52.3008 11.502C52.082 11.502 51.8242 11.4668 51.5273 11.3965C51.2344 11.3301 50.9453 11.2148 50.6602 11.0508C50.3789 10.8906 50.1426 10.6738 49.9512 10.4004L50.5195 9.75586C50.7852 10.0762 51.0625 10.2988 51.3516 10.4238C51.6445 10.5488 51.9336 10.6113 52.2188 10.6113C52.5625 10.6113 52.8594 10.5469 53.1094 10.418C53.3594 10.2891 53.5527 10.0977 53.6895 9.84375C53.8301 9.59375 53.9004 9.28516 53.9004 8.91797V4.05469L54 2.66016ZM49.6348 5.90039V5.77734C49.6348 5.29297 49.6914 4.85352 49.8047 4.45898C49.9219 4.06055 50.0879 3.71875 50.3027 3.43359C50.5215 3.14844 50.7852 2.92969 51.0938 2.77734C51.4023 2.62109 51.75 2.54297 52.1367 2.54297C52.5352 2.54297 52.8828 2.61328 53.1797 2.75391C53.4805 2.89062 53.7344 3.0918 53.9414 3.35742C54.1523 3.61914 54.3184 3.93555 54.4395 4.30664C54.5605 4.67773 54.6445 5.09766 54.6914 5.56641V6.10547C54.6484 6.57031 54.5645 6.98828 54.4395 7.35938C54.3184 7.73047 54.1523 8.04688 53.9414 8.30859C53.7344 8.57031 53.4805 8.77148 53.1797 8.91211C52.8789 9.04883 52.5273 9.11719 52.125 9.11719C51.7461 9.11719 51.4023 9.03711 51.0938 8.87695C50.7891 8.7168 50.5273 8.49219 50.3086 8.20312C50.0898 7.91406 49.9219 7.57422 49.8047 7.18359C49.6914 6.78906 49.6348 6.36133 49.6348 5.90039ZM50.7188 5.77734V5.90039C50.7188 6.2168 50.75 6.51367 50.8125 6.79102C50.8789 7.06836 50.9785 7.3125 51.1113 7.52344C51.248 7.73438 51.4219 7.90039 51.6328 8.02148C51.8438 8.13867 52.0957 8.19727 52.3887 8.19727C52.748 8.19727 53.0449 8.12109 53.2793 7.96875C53.5137 7.81641 53.6992 7.61523 53.8359 7.36523C53.9766 7.11523 54.0859 6.84375 54.1641 6.55078V5.13867C54.1211 4.92383 54.0547 4.7168 53.9648 4.51758C53.8789 4.31445 53.7656 4.13477 53.625 3.97852C53.4883 3.81836 53.3184 3.69141 53.1152 3.59766C52.9121 3.50391 52.6738 3.45703 52.4004 3.45703C52.1035 3.45703 51.8477 3.51953 51.6328 3.64453C51.4219 3.76562 51.248 3.93359 51.1113 4.14844C50.9785 4.35938 50.8789 4.60547 50.8125 4.88672C50.75 5.16406 50.7188 5.46094 50.7188 5.77734ZM58.4121 8.34375L60.1758 2.66016H61.3359L58.793 9.97852C58.7344 10.1348 58.6562 10.3027 58.5586 10.4824C58.4648 10.666 58.3438 10.8398 58.1953 11.0039C58.0469 11.168 57.8672 11.3008 57.6562 11.4023C57.4492 11.5078 57.2012 11.5605 56.9121 11.5605C56.8262 11.5605 56.7168 11.5488 56.584 11.5254C56.4512 11.502 56.3574 11.4824 56.3027 11.4668L56.2969 10.5879C56.3281 10.5918 56.377 10.5957 56.4434 10.5996C56.5137 10.6074 56.5625 10.6113 56.5898 10.6113C56.8359 10.6113 57.0449 10.5781 57.2168 10.5117C57.3887 10.4492 57.5332 10.3418 57.6504 10.1895C57.7715 10.041 57.875 9.83594 57.9609 9.57422L58.4121 8.34375ZM57.1172 2.66016L58.7637 7.58203L59.0449 8.72461L58.2656 9.12305L55.9336 2.66016H57.1172Z" fill="#EBEBED"/>
</svg>
