<svg width="32" height="10" viewBox="0 0 32 10" fill="none" xmlns="http://www.w3.org/2000/svg">
<path d="M5.53711 6.84375C5.53711 6.64453 5.50586 6.46875 5.44336 6.31641C5.38477 6.16016 5.2793 6.01953 5.12695 5.89453C4.97852 5.76953 4.77148 5.65039 4.50586 5.53711C4.24414 5.42383 3.91211 5.30859 3.50977 5.19141C3.08789 5.06641 2.70703 4.92773 2.36719 4.77539C2.02734 4.61914 1.73633 4.44141 1.49414 4.24219C1.25195 4.04297 1.06641 3.81445 0.9375 3.55664C0.808594 3.29883 0.744141 3.00391 0.744141 2.67188C0.744141 2.33984 0.8125 2.0332 0.949219 1.75195C1.08594 1.4707 1.28125 1.22656 1.53516 1.01953C1.79297 0.808594 2.09961 0.644531 2.45508 0.527344C2.81055 0.410156 3.20703 0.351562 3.64453 0.351562C4.28516 0.351562 4.82812 0.474609 5.27344 0.720703C5.72266 0.962891 6.06445 1.28125 6.29883 1.67578C6.5332 2.06641 6.65039 2.48438 6.65039 2.92969H5.52539C5.52539 2.60938 5.45703 2.32617 5.32031 2.08008C5.18359 1.83008 4.97656 1.63477 4.69922 1.49414C4.42188 1.34961 4.07031 1.27734 3.64453 1.27734C3.24219 1.27734 2.91016 1.33789 2.64844 1.45898C2.38672 1.58008 2.19141 1.74414 2.0625 1.95117C1.9375 2.1582 1.875 2.39453 1.875 2.66016C1.875 2.83984 1.91211 3.00391 1.98633 3.15234C2.06445 3.29688 2.18359 3.43164 2.34375 3.55664C2.50781 3.68164 2.71484 3.79688 2.96484 3.90234C3.21875 4.00781 3.52148 4.10938 3.87305 4.20703C4.35742 4.34375 4.77539 4.49609 5.12695 4.66406C5.47852 4.83203 5.76758 5.02148 5.99414 5.23242C6.22461 5.43945 6.39453 5.67578 6.50391 5.94141C6.61719 6.20312 6.67383 6.5 6.67383 6.83203C6.67383 7.17969 6.60352 7.49414 6.46289 7.77539C6.32227 8.05664 6.12109 8.29688 5.85938 8.49609C5.59766 8.69531 5.2832 8.84961 4.91602 8.95898C4.55273 9.06445 4.14648 9.11719 3.69727 9.11719C3.30273 9.11719 2.91406 9.0625 2.53125 8.95312C2.15234 8.84375 1.80664 8.67969 1.49414 8.46094C1.18555 8.24219 0.9375 7.97266 0.75 7.65234C0.566406 7.32812 0.474609 6.95312 0.474609 6.52734H1.59961C1.59961 6.82031 1.65625 7.07227 1.76953 7.2832C1.88281 7.49023 2.03711 7.66211 2.23242 7.79883C2.43164 7.93555 2.65625 8.03711 2.90625 8.10352C3.16016 8.16602 3.42383 8.19727 3.69727 8.19727C4.0918 8.19727 4.42578 8.14258 4.69922 8.0332C4.97266 7.92383 5.17969 7.76758 5.32031 7.56445C5.46484 7.36133 5.53711 7.12109 5.53711 6.84375ZM7.66406 5.90039V5.76562C7.66406 5.30859 7.73047 4.88477 7.86328 4.49414C7.99609 4.09961 8.1875 3.75781 8.4375 3.46875C8.6875 3.17578 8.99023 2.94922 9.3457 2.78906C9.70117 2.625 10.0996 2.54297 10.541 2.54297C10.9863 2.54297 11.3867 2.625 11.7422 2.78906C12.1016 2.94922 12.4062 3.17578 12.6562 3.46875C12.9102 3.75781 13.1035 4.09961 13.2363 4.49414C13.3691 4.88477 13.4355 5.30859 13.4355 5.76562V5.90039C13.4355 6.35742 13.3691 6.78125 13.2363 7.17188C13.1035 7.5625 12.9102 7.9043 12.6562 8.19727C12.4062 8.48633 12.1035 8.71289 11.748 8.87695C11.3965 9.03711 10.998 9.11719 10.5527 9.11719C10.1074 9.11719 9.70703 9.03711 9.35156 8.87695C8.99609 8.71289 8.69141 8.48633 8.4375 8.19727C8.1875 7.9043 7.99609 7.5625 7.86328 7.17188C7.73047 6.78125 7.66406 6.35742 7.66406 5.90039ZM8.74805 5.76562V5.90039C8.74805 6.2168 8.78516 6.51562 8.85938 6.79688C8.93359 7.07422 9.04492 7.32031 9.19336 7.53516C9.3457 7.75 9.53516 7.91992 9.76172 8.04492C9.98828 8.16602 10.252 8.22656 10.5527 8.22656C10.8496 8.22656 11.1094 8.16602 11.332 8.04492C11.5586 7.91992 11.7461 7.75 11.8945 7.53516C12.043 7.32031 12.1543 7.07422 12.2285 6.79688C12.3066 6.51562 12.3457 6.2168 12.3457 5.90039V5.76562C12.3457 5.45312 12.3066 5.1582 12.2285 4.88086C12.1543 4.59961 12.041 4.35156 11.8887 4.13672C11.7402 3.91797 11.5527 3.74609 11.3262 3.62109C11.1035 3.49609 10.8418 3.43359 10.541 3.43359C10.2441 3.43359 9.98242 3.49609 9.75586 3.62109C9.5332 3.74609 9.3457 3.91797 9.19336 4.13672C9.04492 4.35156 8.93359 4.59961 8.85938 4.88086C8.78516 5.1582 8.74805 5.45312 8.74805 5.76562ZM17.332 8.22656C17.5898 8.22656 17.8281 8.17383 18.0469 8.06836C18.2656 7.96289 18.4453 7.81836 18.5859 7.63477C18.7266 7.44727 18.8066 7.23438 18.8262 6.99609H19.8574C19.8379 7.37109 19.7109 7.7207 19.4766 8.04492C19.2461 8.36523 18.9434 8.625 18.5684 8.82422C18.1934 9.01953 17.7812 9.11719 17.332 9.11719C16.8555 9.11719 16.4395 9.0332 16.084 8.86523C15.7324 8.69727 15.4395 8.4668 15.2051 8.17383C14.9746 7.88086 14.8008 7.54492 14.6836 7.16602C14.5703 6.7832 14.5137 6.37891 14.5137 5.95312V5.70703C14.5137 5.28125 14.5703 4.87891 14.6836 4.5C14.8008 4.11719 14.9746 3.7793 15.2051 3.48633C15.4395 3.19336 15.7324 2.96289 16.084 2.79492C16.4395 2.62695 16.8555 2.54297 17.332 2.54297C17.8281 2.54297 18.2617 2.64453 18.6328 2.84766C19.0039 3.04688 19.2949 3.32031 19.5059 3.66797C19.7207 4.01172 19.8379 4.40234 19.8574 4.83984H18.8262C18.8066 4.57812 18.7324 4.3418 18.6035 4.13086C18.4785 3.91992 18.3066 3.75195 18.0879 3.62695C17.873 3.49805 17.6211 3.43359 17.332 3.43359C17 3.43359 16.7207 3.5 16.4941 3.63281C16.2715 3.76172 16.0938 3.9375 15.9609 4.16016C15.832 4.37891 15.7383 4.62305 15.6797 4.89258C15.625 5.1582 15.5977 5.42969 15.5977 5.70703V5.95312C15.5977 6.23047 15.625 6.50391 15.6797 6.77344C15.7344 7.04297 15.8262 7.28711 15.9551 7.50586C16.0879 7.72461 16.2656 7.90039 16.4883 8.0332C16.7148 8.16211 16.9961 8.22656 17.332 8.22656ZM22.2539 2.66016V9H21.1641V2.66016H22.2539ZM21.082 0.978516C21.082 0.802734 21.1348 0.654297 21.2402 0.533203C21.3496 0.412109 21.5098 0.351562 21.7207 0.351562C21.9277 0.351562 22.0859 0.412109 22.1953 0.533203C22.3086 0.654297 22.3652 0.802734 22.3652 0.978516C22.3652 1.14648 22.3086 1.29102 22.1953 1.41211C22.0859 1.5293 21.9277 1.58789 21.7207 1.58789C21.5098 1.58789 21.3496 1.5293 21.2402 1.41211C21.1348 1.29102 21.082 1.14648 21.082 0.978516ZM27.7324 7.91602V4.65234C27.7324 4.40234 27.6816 4.18555 27.5801 4.00195C27.4824 3.81445 27.334 3.66992 27.1348 3.56836C26.9355 3.4668 26.6895 3.41602 26.3965 3.41602C26.123 3.41602 25.8828 3.46289 25.6758 3.55664C25.4727 3.65039 25.3125 3.77344 25.1953 3.92578C25.082 4.07812 25.0254 4.24219 25.0254 4.41797H23.9414C23.9414 4.19141 24 3.9668 24.1172 3.74414C24.2344 3.52148 24.4023 3.32031 24.6211 3.14062C24.8438 2.95703 25.1094 2.8125 25.418 2.70703C25.7305 2.59766 26.0781 2.54297 26.4609 2.54297C26.9219 2.54297 27.3281 2.62109 27.6797 2.77734C28.0352 2.93359 28.3125 3.16992 28.5117 3.48633C28.7148 3.79883 28.8164 4.19141 28.8164 4.66406V7.61719C28.8164 7.82812 28.834 8.05273 28.8691 8.29102C28.9082 8.5293 28.9648 8.73438 29.0391 8.90625V9H27.9082C27.8535 8.875 27.8105 8.70898 27.7793 8.50195C27.748 8.29102 27.7324 8.0957 27.7324 7.91602ZM27.9199 5.15625L27.9316 5.91797H26.8359C26.5273 5.91797 26.252 5.94336 26.0098 5.99414C25.7676 6.04102 25.5645 6.11328 25.4004 6.21094C25.2363 6.30859 25.1113 6.43164 25.0254 6.58008C24.9395 6.72461 24.8965 6.89453 24.8965 7.08984C24.8965 7.28906 24.9414 7.4707 25.0312 7.63477C25.1211 7.79883 25.2559 7.92969 25.4355 8.02734C25.6191 8.12109 25.8438 8.16797 26.1094 8.16797C26.4414 8.16797 26.7344 8.09766 26.9883 7.95703C27.2422 7.81641 27.4434 7.64453 27.5918 7.44141C27.7441 7.23828 27.8262 7.04102 27.8379 6.84961L28.3008 7.37109C28.2734 7.53516 28.1992 7.7168 28.0781 7.91602C27.957 8.11523 27.7949 8.30664 27.5918 8.49023C27.3926 8.66992 27.1543 8.82031 26.877 8.94141C26.6035 9.05859 26.2949 9.11719 25.9512 9.11719C25.5215 9.11719 25.1445 9.0332 24.8203 8.86523C24.5 8.69727 24.25 8.47266 24.0703 8.19141C23.8945 7.90625 23.8066 7.58789 23.8066 7.23633C23.8066 6.89648 23.873 6.59766 24.0059 6.33984C24.1387 6.07812 24.3301 5.86133 24.5801 5.68945C24.8301 5.51367 25.1309 5.38086 25.4824 5.29102C25.834 5.20117 26.2266 5.15625 26.6602 5.15625H27.9199ZM31.6992 0V9H30.6094V0H31.6992Z" fill="#EBEBED"/>
</svg>
