<svg width="59" height="10" viewBox="0 0 59 10" fill="none" xmlns="http://www.w3.org/2000/svg">
<path d="M-0.00976562 0.46875H2.81445C3.45508 0.46875 3.99609 0.566406 4.4375 0.761719C4.88281 0.957031 5.2207 1.24609 5.45117 1.62891C5.68555 2.00781 5.80273 2.47461 5.80273 3.0293C5.80273 3.41992 5.72266 3.77734 5.5625 4.10156C5.40625 4.42188 5.17969 4.69531 4.88281 4.92188C4.58984 5.14453 4.23828 5.31055 3.82812 5.41992L3.51172 5.54297H0.857422L0.845703 4.62305H2.84961C3.25586 4.62305 3.59375 4.55273 3.86328 4.41211C4.13281 4.26758 4.33594 4.07422 4.47266 3.83203C4.60938 3.58984 4.67773 3.32227 4.67773 3.0293C4.67773 2.70117 4.61328 2.41406 4.48438 2.16797C4.35547 1.92188 4.15234 1.73242 3.875 1.59961C3.60156 1.46289 3.24805 1.39453 2.81445 1.39453H1.12109V9H-0.00976562V0.46875ZM4.97656 9L2.90234 5.13281L4.08008 5.12695L6.18359 8.92969V9H4.97656ZM9.85156 9.11719C9.41016 9.11719 9.00977 9.04297 8.65039 8.89453C8.29492 8.74219 7.98828 8.5293 7.73047 8.25586C7.47656 7.98242 7.28125 7.6582 7.14453 7.2832C7.00781 6.9082 6.93945 6.49805 6.93945 6.05273V5.80664C6.93945 5.29102 7.01562 4.83203 7.16797 4.42969C7.32031 4.02344 7.52734 3.67969 7.78906 3.39844C8.05078 3.11719 8.34766 2.9043 8.67969 2.75977C9.01172 2.61523 9.35547 2.54297 9.71094 2.54297C10.1641 2.54297 10.5547 2.62109 10.8828 2.77734C11.2148 2.93359 11.4863 3.15234 11.6973 3.43359C11.9082 3.71094 12.0645 4.03906 12.166 4.41797C12.2676 4.79297 12.3184 5.20312 12.3184 5.64844V6.13477H7.58398V5.25H11.2344V5.16797C11.2188 4.88672 11.1602 4.61328 11.0586 4.34766C10.9609 4.08203 10.8047 3.86328 10.5898 3.69141C10.375 3.51953 10.082 3.43359 9.71094 3.43359C9.46484 3.43359 9.23828 3.48633 9.03125 3.5918C8.82422 3.69336 8.64648 3.8457 8.49805 4.04883C8.34961 4.25195 8.23438 4.5 8.15234 4.79297C8.07031 5.08594 8.0293 5.42383 8.0293 5.80664V6.05273C8.0293 6.35352 8.07031 6.63672 8.15234 6.90234C8.23828 7.16406 8.36133 7.39453 8.52148 7.59375C8.68555 7.79297 8.88281 7.94922 9.11328 8.0625C9.34766 8.17578 9.61328 8.23242 9.91016 8.23242C10.293 8.23242 10.6172 8.1543 10.8828 7.99805C11.1484 7.8418 11.3809 7.63281 11.5801 7.37109L12.2363 7.89258C12.0996 8.09961 11.9258 8.29688 11.7148 8.48438C11.5039 8.67188 11.2441 8.82422 10.9355 8.94141C10.6309 9.05859 10.2695 9.11719 9.85156 9.11719ZM17.3223 7.91602V4.65234C17.3223 4.40234 17.2715 4.18555 17.1699 4.00195C17.0723 3.81445 16.9238 3.66992 16.7246 3.56836C16.5254 3.4668 16.2793 3.41602 15.9863 3.41602C15.7129 3.41602 15.4727 3.46289 15.2656 3.55664C15.0625 3.65039 14.9023 3.77344 14.7852 3.92578C14.6719 4.07812 14.6152 4.24219 14.6152 4.41797H13.5312C13.5312 4.19141 13.5898 3.9668 13.707 3.74414C13.8242 3.52148 13.9922 3.32031 14.2109 3.14062C14.4336 2.95703 14.6992 2.8125 15.0078 2.70703C15.3203 2.59766 15.668 2.54297 16.0508 2.54297C16.5117 2.54297 16.918 2.62109 17.2695 2.77734C17.625 2.93359 17.9023 3.16992 18.1016 3.48633C18.3047 3.79883 18.4062 4.19141 18.4062 4.66406V7.61719C18.4062 7.82812 18.4238 8.05273 18.459 8.29102C18.498 8.5293 18.5547 8.73438 18.6289 8.90625V9H17.498C17.4434 8.875 17.4004 8.70898 17.3691 8.50195C17.3379 8.29102 17.3223 8.0957 17.3223 7.91602ZM17.5098 5.15625L17.5215 5.91797H16.4258C16.1172 5.91797 15.8418 5.94336 15.5996 5.99414C15.3574 6.04102 15.1543 6.11328 14.9902 6.21094C14.8262 6.30859 14.7012 6.43164 14.6152 6.58008C14.5293 6.72461 14.4863 6.89453 14.4863 7.08984C14.4863 7.28906 14.5312 7.4707 14.6211 7.63477C14.7109 7.79883 14.8457 7.92969 15.0254 8.02734C15.209 8.12109 15.4336 8.16797 15.6992 8.16797C16.0312 8.16797 16.3242 8.09766 16.5781 7.95703C16.832 7.81641 17.0332 7.64453 17.1816 7.44141C17.334 7.23828 17.416 7.04102 17.4277 6.84961L17.8906 7.37109C17.8633 7.53516 17.7891 7.7168 17.668 7.91602C17.5469 8.11523 17.3848 8.30664 17.1816 8.49023C16.9824 8.66992 16.7441 8.82031 16.4668 8.94141C16.1934 9.05859 15.8848 9.11719 15.541 9.11719C15.1113 9.11719 14.7344 9.0332 14.4102 8.86523C14.0898 8.69727 13.8398 8.47266 13.6602 8.19141C13.4844 7.90625 13.3965 7.58789 13.3965 7.23633C13.3965 6.89648 13.4629 6.59766 13.5957 6.33984C13.7285 6.07812 13.9199 5.86133 14.1699 5.68945C14.4199 5.51367 14.7207 5.38086 15.0723 5.29102C15.4238 5.20117 15.8164 5.15625 16.25 5.15625H17.5098ZM21.2891 0V9H20.1992V0H21.2891ZM28.6367 9.11719C28.1953 9.11719 27.7949 9.04297 27.4355 8.89453C27.0801 8.74219 26.7734 8.5293 26.5156 8.25586C26.2617 7.98242 26.0664 7.6582 25.9297 7.2832C25.793 6.9082 25.7246 6.49805 25.7246 6.05273V5.80664C25.7246 5.29102 25.8008 4.83203 25.9531 4.42969C26.1055 4.02344 26.3125 3.67969 26.5742 3.39844C26.8359 3.11719 27.1328 2.9043 27.4648 2.75977C27.7969 2.61523 28.1406 2.54297 28.4961 2.54297C28.9492 2.54297 29.3398 2.62109 29.668 2.77734C30 2.93359 30.2715 3.15234 30.4824 3.43359C30.6934 3.71094 30.8496 4.03906 30.9512 4.41797C31.0527 4.79297 31.1035 5.20312 31.1035 5.64844V6.13477H26.3691V5.25H30.0195V5.16797C30.0039 4.88672 29.9453 4.61328 29.8438 4.34766C29.7461 4.08203 29.5898 3.86328 29.375 3.69141C29.1602 3.51953 28.8672 3.43359 28.4961 3.43359C28.25 3.43359 28.0234 3.48633 27.8164 3.5918C27.6094 3.69336 27.4316 3.8457 27.2832 4.04883C27.1348 4.25195 27.0195 4.5 26.9375 4.79297C26.8555 5.08594 26.8145 5.42383 26.8145 5.80664V6.05273C26.8145 6.35352 26.8555 6.63672 26.9375 6.90234C27.0234 7.16406 27.1465 7.39453 27.3066 7.59375C27.4707 7.79297 27.668 7.94922 27.8984 8.0625C28.1328 8.17578 28.3984 8.23242 28.6953 8.23242C29.0781 8.23242 29.4023 8.1543 29.668 7.99805C29.9336 7.8418 30.166 7.63281 30.3652 7.37109L31.0215 7.89258C30.8848 8.09961 30.7109 8.29688 30.5 8.48438C30.2891 8.67188 30.0293 8.82422 29.7207 8.94141C29.416 9.05859 29.0547 9.11719 28.6367 9.11719ZM36.0605 7.31836C36.0605 7.16211 36.0254 7.01758 35.9551 6.88477C35.8887 6.74805 35.75 6.625 35.5391 6.51562C35.332 6.40234 35.0195 6.30469 34.6016 6.22266C34.25 6.14844 33.9316 6.06055 33.6465 5.95898C33.3652 5.85742 33.125 5.73438 32.9258 5.58984C32.7305 5.44531 32.5801 5.27539 32.4746 5.08008C32.3691 4.88477 32.3164 4.65625 32.3164 4.39453C32.3164 4.14453 32.3711 3.9082 32.4805 3.68555C32.5938 3.46289 32.752 3.26562 32.9551 3.09375C33.1621 2.92188 33.4102 2.78711 33.6992 2.68945C33.9883 2.5918 34.3105 2.54297 34.666 2.54297C35.1738 2.54297 35.6074 2.63281 35.9668 2.8125C36.3262 2.99219 36.6016 3.23242 36.793 3.5332C36.9844 3.83008 37.0801 4.16016 37.0801 4.52344H35.9961C35.9961 4.34766 35.9434 4.17773 35.8379 4.01367C35.7363 3.8457 35.5859 3.70703 35.3867 3.59766C35.1914 3.48828 34.9512 3.43359 34.666 3.43359C34.3652 3.43359 34.1211 3.48047 33.9336 3.57422C33.75 3.66406 33.6152 3.7793 33.5293 3.91992C33.4473 4.06055 33.4062 4.20898 33.4062 4.36523C33.4062 4.48242 33.4258 4.58789 33.4648 4.68164C33.5078 4.77148 33.582 4.85547 33.6875 4.93359C33.793 5.00781 33.9414 5.07812 34.1328 5.14453C34.3242 5.21094 34.5684 5.27734 34.8652 5.34375C35.3848 5.46094 35.8125 5.60156 36.1484 5.76562C36.4844 5.92969 36.7344 6.13086 36.8984 6.36914C37.0625 6.60742 37.1445 6.89648 37.1445 7.23633C37.1445 7.51367 37.0859 7.76758 36.9688 7.99805C36.8555 8.22852 36.6895 8.42773 36.4707 8.5957C36.2559 8.75977 35.998 8.88867 35.6973 8.98242C35.4004 9.07227 35.0664 9.11719 34.6953 9.11719C34.1367 9.11719 33.6641 9.01758 33.2773 8.81836C32.8906 8.61914 32.5977 8.36133 32.3984 8.04492C32.1992 7.72852 32.0996 7.39453 32.0996 7.04297H33.1895C33.2051 7.33984 33.291 7.57617 33.4473 7.75195C33.6035 7.92383 33.7949 8.04688 34.0215 8.12109C34.248 8.19141 34.4727 8.22656 34.6953 8.22656C34.9922 8.22656 35.2402 8.1875 35.4395 8.10938C35.6426 8.03125 35.7969 7.92383 35.9023 7.78711C36.0078 7.65039 36.0605 7.49414 36.0605 7.31836ZM41.2227 2.66016V3.49219H37.7949V2.66016H41.2227ZM38.9551 1.11914H40.0391V7.42969C40.0391 7.64453 40.0723 7.80664 40.1387 7.91602C40.2051 8.02539 40.291 8.09766 40.3965 8.13281C40.502 8.16797 40.6152 8.18555 40.7363 8.18555C40.8262 8.18555 40.9199 8.17773 41.0176 8.16211C41.1191 8.14258 41.1953 8.12695 41.2461 8.11523L41.252 9C41.166 9.02734 41.0527 9.05273 40.9121 9.07617C40.7754 9.10352 40.6094 9.11719 40.4141 9.11719C40.1484 9.11719 39.9043 9.06445 39.6816 8.95898C39.459 8.85352 39.2812 8.67773 39.1484 8.43164C39.0195 8.18164 38.9551 7.8457 38.9551 7.42383V1.11914ZM46.2324 7.91602V4.65234C46.2324 4.40234 46.1816 4.18555 46.0801 4.00195C45.9824 3.81445 45.834 3.66992 45.6348 3.56836C45.4355 3.4668 45.1895 3.41602 44.8965 3.41602C44.623 3.41602 44.3828 3.46289 44.1758 3.55664C43.9727 3.65039 43.8125 3.77344 43.6953 3.92578C43.582 4.07812 43.5254 4.24219 43.5254 4.41797H42.4414C42.4414 4.19141 42.5 3.9668 42.6172 3.74414C42.7344 3.52148 42.9023 3.32031 43.1211 3.14062C43.3438 2.95703 43.6094 2.8125 43.918 2.70703C44.2305 2.59766 44.5781 2.54297 44.9609 2.54297C45.4219 2.54297 45.8281 2.62109 46.1797 2.77734C46.5352 2.93359 46.8125 3.16992 47.0117 3.48633C47.2148 3.79883 47.3164 4.19141 47.3164 4.66406V7.61719C47.3164 7.82812 47.334 8.05273 47.3691 8.29102C47.4082 8.5293 47.4648 8.73438 47.5391 8.90625V9H46.4082C46.3535 8.875 46.3105 8.70898 46.2793 8.50195C46.248 8.29102 46.2324 8.0957 46.2324 7.91602ZM46.4199 5.15625L46.4316 5.91797H45.3359C45.0273 5.91797 44.752 5.94336 44.5098 5.99414C44.2676 6.04102 44.0645 6.11328 43.9004 6.21094C43.7363 6.30859 43.6113 6.43164 43.5254 6.58008C43.4395 6.72461 43.3965 6.89453 43.3965 7.08984C43.3965 7.28906 43.4414 7.4707 43.5312 7.63477C43.6211 7.79883 43.7559 7.92969 43.9355 8.02734C44.1191 8.12109 44.3438 8.16797 44.6094 8.16797C44.9414 8.16797 45.2344 8.09766 45.4883 7.95703C45.7422 7.81641 45.9434 7.64453 46.0918 7.44141C46.2441 7.23828 46.3262 7.04102 46.3379 6.84961L46.8008 7.37109C46.7734 7.53516 46.6992 7.7168 46.5781 7.91602C46.457 8.11523 46.2949 8.30664 46.0918 8.49023C45.8926 8.66992 45.6543 8.82031 45.377 8.94141C45.1035 9.05859 44.7949 9.11719 44.4512 9.11719C44.0215 9.11719 43.6445 9.0332 43.3203 8.86523C43 8.69727 42.75 8.47266 42.5703 8.19141C42.3945 7.90625 42.3066 7.58789 42.3066 7.23633C42.3066 6.89648 42.373 6.59766 42.5059 6.33984C42.6387 6.07812 42.8301 5.86133 43.0801 5.68945C43.3301 5.51367 43.6309 5.38086 43.9824 5.29102C44.334 5.20117 44.7266 5.15625 45.1602 5.15625H46.4199ZM51.6758 2.66016V3.49219H48.248V2.66016H51.6758ZM49.4082 1.11914H50.4922V7.42969C50.4922 7.64453 50.5254 7.80664 50.5918 7.91602C50.6582 8.02539 50.7441 8.09766 50.8496 8.13281C50.9551 8.16797 51.0684 8.18555 51.1895 8.18555C51.2793 8.18555 51.373 8.17773 51.4707 8.16211C51.5723 8.14258 51.6484 8.12695 51.6992 8.11523L51.7051 9C51.6191 9.02734 51.5059 9.05273 51.3652 9.07617C51.2285 9.10352 51.0625 9.11719 50.8672 9.11719C50.6016 9.11719 50.3574 9.06445 50.1348 8.95898C49.9121 8.85352 49.7344 8.67773 49.6016 8.43164C49.4727 8.18164 49.4082 7.8457 49.4082 7.42383V1.11914ZM55.5781 9.11719C55.1367 9.11719 54.7363 9.04297 54.377 8.89453C54.0215 8.74219 53.7148 8.5293 53.457 8.25586C53.2031 7.98242 53.0078 7.6582 52.8711 7.2832C52.7344 6.9082 52.666 6.49805 52.666 6.05273V5.80664C52.666 5.29102 52.7422 4.83203 52.8945 4.42969C53.0469 4.02344 53.2539 3.67969 53.5156 3.39844C53.7773 3.11719 54.0742 2.9043 54.4062 2.75977C54.7383 2.61523 55.082 2.54297 55.4375 2.54297C55.8906 2.54297 56.2812 2.62109 56.6094 2.77734C56.9414 2.93359 57.2129 3.15234 57.4238 3.43359C57.6348 3.71094 57.791 4.03906 57.8926 4.41797C57.9941 4.79297 58.0449 5.20312 58.0449 5.64844V6.13477H53.3105V5.25H56.9609V5.16797C56.9453 4.88672 56.8867 4.61328 56.7852 4.34766C56.6875 4.08203 56.5312 3.86328 56.3164 3.69141C56.1016 3.51953 55.8086 3.43359 55.4375 3.43359C55.1914 3.43359 54.9648 3.48633 54.7578 3.5918C54.5508 3.69336 54.373 3.8457 54.2246 4.04883C54.0762 4.25195 53.9609 4.5 53.8789 4.79297C53.7969 5.08594 53.7559 5.42383 53.7559 5.80664V6.05273C53.7559 6.35352 53.7969 6.63672 53.8789 6.90234C53.9648 7.16406 54.0879 7.39453 54.248 7.59375C54.4121 7.79297 54.6094 7.94922 54.8398 8.0625C55.0742 8.17578 55.3398 8.23242 55.6367 8.23242C56.0195 8.23242 56.3438 8.1543 56.6094 7.99805C56.875 7.8418 57.1074 7.63281 57.3066 7.37109L57.9629 7.89258C57.8262 8.09961 57.6523 8.29688 57.4414 8.48438C57.2305 8.67188 56.9707 8.82422 56.6621 8.94141C56.3574 9.05859 55.9961 9.11719 55.5781 9.11719Z" fill="#EBEBED"/>
</svg>
