<svg width="29" height="12" viewBox="0 0 29 12" fill="none" xmlns="http://www.w3.org/2000/svg">
<path d="M5.41016 8.08008V9H0.892578V8.08008H5.41016ZM1.12109 0.46875V9H-0.00976562V0.46875H1.12109ZM4.8125 4.13672V5.05664H0.892578V4.13672H4.8125ZM5.35156 0.46875V1.39453H0.892578V0.46875H5.35156ZM7.72461 3.91992V9H6.63477V2.66016H7.66602L7.72461 3.91992ZM7.50195 5.58984L6.99805 5.57227C7.00195 5.13867 7.05859 4.73828 7.16797 4.37109C7.27734 4 7.43945 3.67773 7.6543 3.4043C7.86914 3.13086 8.13672 2.91992 8.45703 2.77148C8.77734 2.61914 9.14844 2.54297 9.57031 2.54297C9.86719 2.54297 10.1406 2.58594 10.3906 2.67188C10.6406 2.75391 10.8574 2.88477 11.041 3.06445C11.2246 3.24414 11.3672 3.47461 11.4688 3.75586C11.5703 4.03711 11.6211 4.37695 11.6211 4.77539V9H10.5371V4.82812C10.5371 4.49609 10.4805 4.23047 10.3672 4.03125C10.2578 3.83203 10.1016 3.6875 9.89844 3.59766C9.69531 3.50391 9.45703 3.45703 9.18359 3.45703C8.86328 3.45703 8.5957 3.51367 8.38086 3.62695C8.16602 3.74023 7.99414 3.89648 7.86523 4.0957C7.73633 4.29492 7.64258 4.52344 7.58398 4.78125C7.5293 5.03516 7.50195 5.30469 7.50195 5.58984ZM11.6094 4.99219L10.8828 5.21484C10.8867 4.86719 10.9434 4.5332 11.0527 4.21289C11.166 3.89258 11.3281 3.60742 11.5391 3.35742C11.7539 3.10742 12.0176 2.91016 12.3301 2.76562C12.6426 2.61719 13 2.54297 13.4023 2.54297C13.7422 2.54297 14.043 2.58789 14.3047 2.67773C14.5703 2.76758 14.793 2.90625 14.9727 3.09375C15.1562 3.27734 15.2949 3.51367 15.3887 3.80273C15.4824 4.0918 15.5293 4.43555 15.5293 4.83398V9H14.4395V4.82227C14.4395 4.4668 14.3828 4.19141 14.2695 3.99609C14.1602 3.79688 14.0039 3.6582 13.8008 3.58008C13.6016 3.49805 13.3633 3.45703 13.0859 3.45703C12.8477 3.45703 12.6367 3.49805 12.4531 3.58008C12.2695 3.66211 12.1152 3.77539 11.9902 3.91992C11.8652 4.06055 11.7695 4.22266 11.7031 4.40625C11.6406 4.58984 11.6094 4.78516 11.6094 4.99219ZM16.8828 5.90039V5.76562C16.8828 5.30859 16.9492 4.88477 17.082 4.49414C17.2148 4.09961 17.4062 3.75781 17.6562 3.46875C17.9062 3.17578 18.209 2.94922 18.5645 2.78906C18.9199 2.625 19.3184 2.54297 19.7598 2.54297C20.2051 2.54297 20.6055 2.625 20.9609 2.78906C21.3203 2.94922 21.625 3.17578 21.875 3.46875C22.1289 3.75781 22.3223 4.09961 22.4551 4.49414C22.5879 4.88477 22.6543 5.30859 22.6543 5.76562V5.90039C22.6543 6.35742 22.5879 6.78125 22.4551 7.17188C22.3223 7.5625 22.1289 7.9043 21.875 8.19727C21.625 8.48633 21.3223 8.71289 20.9668 8.87695C20.6152 9.03711 20.2168 9.11719 19.7715 9.11719C19.3262 9.11719 18.9258 9.03711 18.5703 8.87695C18.2148 8.71289 17.9102 8.48633 17.6562 8.19727C17.4062 7.9043 17.2148 7.5625 17.082 7.17188C16.9492 6.78125 16.8828 6.35742 16.8828 5.90039ZM17.9668 5.76562V5.90039C17.9668 6.2168 18.0039 6.51562 18.0781 6.79688C18.1523 7.07422 18.2637 7.32031 18.4121 7.53516C18.5645 7.75 18.7539 7.91992 18.9805 8.04492C19.207 8.16602 19.4707 8.22656 19.7715 8.22656C20.0684 8.22656 20.3281 8.16602 20.5508 8.04492C20.7773 7.91992 20.9648 7.75 21.1133 7.53516C21.2617 7.32031 21.373 7.07422 21.4473 6.79688C21.5254 6.51562 21.5645 6.2168 21.5645 5.90039V5.76562C21.5645 5.45312 21.5254 5.1582 21.4473 4.88086C21.373 4.59961 21.2598 4.35156 21.1074 4.13672C20.959 3.91797 20.7715 3.74609 20.5449 3.62109C20.3223 3.49609 20.0605 3.43359 19.7598 3.43359C19.4629 3.43359 19.2012 3.49609 18.9746 3.62109C18.752 3.74609 18.5645 3.91797 18.4121 4.13672C18.2637 4.35156 18.1523 4.59961 18.0781 4.88086C18.0039 5.1582 17.9668 5.45312 17.9668 5.76562ZM24.043 2.66016H25.1328V9.75586C25.1328 10.1426 25.0703 10.4707 24.9453 10.7402C24.8242 11.0098 24.6406 11.2129 24.3945 11.3496C24.1523 11.4902 23.8457 11.5605 23.4746 11.5605C23.377 11.5605 23.2637 11.5508 23.1348 11.5312C23.002 11.5117 22.8906 11.4883 22.8008 11.4609L22.8066 10.5879C22.8809 10.6035 22.9648 10.6152 23.0586 10.623C23.1523 10.6348 23.2344 10.6406 23.3047 10.6406C23.4648 10.6406 23.5996 10.6113 23.709 10.5527C23.8184 10.4941 23.9004 10.4004 23.9551 10.2715C24.0137 10.1426 24.043 9.9707 24.043 9.75586V2.66016ZM23.9316 0.978516C23.9316 0.802734 23.9863 0.654297 24.0957 0.533203C24.2051 0.412109 24.3633 0.351562 24.5703 0.351562C24.7812 0.351562 24.9414 0.412109 25.0508 0.533203C25.1602 0.654297 25.2148 0.802734 25.2148 0.978516C25.2148 1.14648 25.1602 1.29102 25.0508 1.41211C24.9414 1.5293 24.7812 1.58789 24.5703 1.58789C24.3633 1.58789 24.2051 1.5293 24.0957 1.41211C23.9863 1.29102 23.9316 1.14648 23.9316 0.978516ZM28.0625 2.66016V9H26.9727V2.66016H28.0625ZM26.8906 0.978516C26.8906 0.802734 26.9434 0.654297 27.0488 0.533203C27.1582 0.412109 27.3184 0.351562 27.5293 0.351562C27.7363 0.351562 27.8945 0.412109 28.0039 0.533203C28.1172 0.654297 28.1738 0.802734 28.1738 0.978516C28.1738 1.14648 28.1172 1.29102 28.0039 1.41211C27.8945 1.5293 27.7363 1.58789 27.5293 1.58789C27.3184 1.58789 27.1582 1.5293 27.0488 1.41211C26.9434 1.29102 26.8906 1.14648 26.8906 0.978516Z" fill="#EBEBED"/>
</svg>
