<svg width="47" height="11" viewBox="0 0 47 11" fill="none" xmlns="http://www.w3.org/2000/svg">
<path d="M1.20312 1.46875V10H0.0722656V1.46875H1.20312ZM4.17969 5.01367V10H3.0957V3.66016H4.12109L4.17969 5.01367ZM3.92188 6.58984L3.4707 6.57227C3.47461 6.13867 3.53906 5.73828 3.66406 5.37109C3.78906 5 3.96484 4.67773 4.19141 4.4043C4.41797 4.13086 4.6875 3.91992 5 3.77148C5.31641 3.61914 5.66602 3.54297 6.04883 3.54297C6.36133 3.54297 6.64258 3.58594 6.89258 3.67188C7.14258 3.75391 7.35547 3.88672 7.53125 4.07031C7.71094 4.25391 7.84766 4.49219 7.94141 4.78516C8.03516 5.07422 8.08203 5.42773 8.08203 5.8457V10H6.99219V5.83398C6.99219 5.50195 6.94336 5.23633 6.8457 5.03711C6.74805 4.83398 6.60547 4.6875 6.41797 4.59766C6.23047 4.50391 6 4.45703 5.72656 4.45703C5.45703 4.45703 5.21094 4.51367 4.98828 4.62695C4.76953 4.74023 4.58008 4.89648 4.41992 5.0957C4.26367 5.29492 4.14062 5.52344 4.05078 5.78125C3.96484 6.03516 3.92188 6.30469 3.92188 6.58984ZM12.3828 3.66016V4.49219H8.95508V3.66016H12.3828ZM10.1152 2.11914H11.1992V8.42969C11.1992 8.64453 11.2324 8.80664 11.2988 8.91602C11.3652 9.02539 11.4512 9.09766 11.5566 9.13281C11.6621 9.16797 11.7754 9.18555 11.8965 9.18555C11.9863 9.18555 12.0801 9.17773 12.1777 9.16211C12.2793 9.14258 12.3555 9.12695 12.4062 9.11523L12.4121 10C12.3262 10.0273 12.2129 10.0527 12.0723 10.0762C11.9355 10.1035 11.7695 10.1172 11.5742 10.1172C11.3086 10.1172 11.0645 10.0645 10.8418 9.95898C10.6191 9.85352 10.4414 9.67773 10.3086 9.43164C10.1797 9.18164 10.1152 8.8457 10.1152 8.42383V2.11914ZM16.2852 10.1172C15.8438 10.1172 15.4434 10.043 15.084 9.89453C14.7285 9.74219 14.4219 9.5293 14.1641 9.25586C13.9102 8.98242 13.7148 8.6582 13.5781 8.2832C13.4414 7.9082 13.373 7.49805 13.373 7.05273V6.80664C13.373 6.29102 13.4492 5.83203 13.6016 5.42969C13.7539 5.02344 13.9609 4.67969 14.2227 4.39844C14.4844 4.11719 14.7812 3.9043 15.1133 3.75977C15.4453 3.61523 15.7891 3.54297 16.1445 3.54297C16.5977 3.54297 16.9883 3.62109 17.3164 3.77734C17.6484 3.93359 17.9199 4.15234 18.1309 4.43359C18.3418 4.71094 18.498 5.03906 18.5996 5.41797C18.7012 5.79297 18.752 6.20312 18.752 6.64844V7.13477H14.0176V6.25H17.668V6.16797C17.6523 5.88672 17.5938 5.61328 17.4922 5.34766C17.3945 5.08203 17.2383 4.86328 17.0234 4.69141C16.8086 4.51953 16.5156 4.43359 16.1445 4.43359C15.8984 4.43359 15.6719 4.48633 15.4648 4.5918C15.2578 4.69336 15.0801 4.8457 14.9316 5.04883C14.7832 5.25195 14.668 5.5 14.5859 5.79297C14.5039 6.08594 14.4629 6.42383 14.4629 6.80664V7.05273C14.4629 7.35352 14.5039 7.63672 14.5859 7.90234C14.6719 8.16406 14.7949 8.39453 14.9551 8.59375C15.1191 8.79297 15.3164 8.94922 15.5469 9.0625C15.7812 9.17578 16.0469 9.23242 16.3438 9.23242C16.7266 9.23242 17.0508 9.1543 17.3164 8.99805C17.582 8.8418 17.8145 8.63281 18.0137 8.37109L18.6699 8.89258C18.5332 9.09961 18.3594 9.29688 18.1484 9.48438C17.9375 9.67188 17.6777 9.82422 17.3691 9.94141C17.0645 10.0586 16.7031 10.1172 16.2852 10.1172ZM21.1016 4.65625V10H20.0176V3.66016H21.0723L21.1016 4.65625ZM23.082 3.625L23.0762 4.63281C22.9863 4.61328 22.9004 4.60156 22.8184 4.59766C22.7402 4.58984 22.6504 4.58594 22.5488 4.58594C22.2988 4.58594 22.0781 4.625 21.8867 4.70312C21.6953 4.78125 21.5332 4.89062 21.4004 5.03125C21.2676 5.17188 21.1621 5.33984 21.084 5.53516C21.0098 5.72656 20.9609 5.9375 20.9375 6.16797L20.6328 6.34375C20.6328 5.96094 20.6699 5.60156 20.7441 5.26562C20.8223 4.92969 20.9414 4.63281 21.1016 4.375C21.2617 4.11328 21.4648 3.91016 21.7109 3.76562C21.9609 3.61719 22.2578 3.54297 22.6016 3.54297C22.6797 3.54297 22.7695 3.55273 22.8711 3.57227C22.9727 3.58789 23.043 3.60547 23.082 3.625ZM25.7949 10H24.7109V2.99219C24.7109 2.53516 24.793 2.15039 24.957 1.83789C25.125 1.52148 25.3652 1.2832 25.6777 1.12305C25.9902 0.958984 26.3613 0.876953 26.791 0.876953C26.916 0.876953 27.041 0.884766 27.166 0.900391C27.2949 0.916016 27.4199 0.939453 27.541 0.970703L27.4824 1.85547C27.4004 1.83594 27.3066 1.82227 27.2012 1.81445C27.0996 1.80664 26.998 1.80273 26.8965 1.80273C26.666 1.80273 26.4668 1.84961 26.2988 1.94336C26.1348 2.0332 26.0098 2.16602 25.9238 2.3418C25.8379 2.51758 25.7949 2.73438 25.7949 2.99219V10ZM27.1426 3.66016V4.49219H23.709V3.66016H27.1426ZM32.0879 8.91602V5.65234C32.0879 5.40234 32.0371 5.18555 31.9355 5.00195C31.8379 4.81445 31.6895 4.66992 31.4902 4.56836C31.291 4.4668 31.0449 4.41602 30.752 4.41602C30.4785 4.41602 30.2383 4.46289 30.0312 4.55664C29.8281 4.65039 29.668 4.77344 29.5508 4.92578C29.4375 5.07812 29.3809 5.24219 29.3809 5.41797H28.2969C28.2969 5.19141 28.3555 4.9668 28.4727 4.74414C28.5898 4.52148 28.7578 4.32031 28.9766 4.14062C29.1992 3.95703 29.4648 3.8125 29.7734 3.70703C30.0859 3.59766 30.4336 3.54297 30.8164 3.54297C31.2773 3.54297 31.6836 3.62109 32.0352 3.77734C32.3906 3.93359 32.668 4.16992 32.8672 4.48633C33.0703 4.79883 33.1719 5.19141 33.1719 5.66406V8.61719C33.1719 8.82812 33.1895 9.05273 33.2246 9.29102C33.2637 9.5293 33.3203 9.73438 33.3945 9.90625V10H32.2637C32.209 9.875 32.166 9.70898 32.1348 9.50195C32.1035 9.29102 32.0879 9.0957 32.0879 8.91602ZM32.2754 6.15625L32.2871 6.91797H31.1914C30.8828 6.91797 30.6074 6.94336 30.3652 6.99414C30.123 7.04102 29.9199 7.11328 29.7559 7.21094C29.5918 7.30859 29.4668 7.43164 29.3809 7.58008C29.2949 7.72461 29.252 7.89453 29.252 8.08984C29.252 8.28906 29.2969 8.4707 29.3867 8.63477C29.4766 8.79883 29.6113 8.92969 29.791 9.02734C29.9746 9.12109 30.1992 9.16797 30.4648 9.16797C30.7969 9.16797 31.0898 9.09766 31.3438 8.95703C31.5977 8.81641 31.7988 8.64453 31.9473 8.44141C32.0996 8.23828 32.1816 8.04102 32.1934 7.84961L32.6562 8.37109C32.6289 8.53516 32.5547 8.7168 32.4336 8.91602C32.3125 9.11523 32.1504 9.30664 31.9473 9.49023C31.748 9.66992 31.5098 9.82031 31.2324 9.94141C30.959 10.0586 30.6504 10.1172 30.3066 10.1172C29.877 10.1172 29.5 10.0332 29.1758 9.86523C28.8555 9.69727 28.6055 9.47266 28.4258 9.19141C28.25 8.90625 28.1621 8.58789 28.1621 8.23633C28.1621 7.89648 28.2285 7.59766 28.3613 7.33984C28.4941 7.07812 28.6855 6.86133 28.9355 6.68945C29.1855 6.51367 29.4863 6.38086 29.8379 6.29102C30.1895 6.20117 30.582 6.15625 31.0156 6.15625H32.2754ZM37.4141 9.22656C37.6719 9.22656 37.9102 9.17383 38.1289 9.06836C38.3477 8.96289 38.5273 8.81836 38.668 8.63477C38.8086 8.44727 38.8887 8.23438 38.9082 7.99609H39.9395C39.9199 8.37109 39.793 8.7207 39.5586 9.04492C39.3281 9.36523 39.0254 9.625 38.6504 9.82422C38.2754 10.0195 37.8633 10.1172 37.4141 10.1172C36.9375 10.1172 36.5215 10.0332 36.166 9.86523C35.8145 9.69727 35.5215 9.4668 35.2871 9.17383C35.0566 8.88086 34.8828 8.54492 34.7656 8.16602C34.6523 7.7832 34.5957 7.37891 34.5957 6.95312V6.70703C34.5957 6.28125 34.6523 5.87891 34.7656 5.5C34.8828 5.11719 35.0566 4.7793 35.2871 4.48633C35.5215 4.19336 35.8145 3.96289 36.166 3.79492C36.5215 3.62695 36.9375 3.54297 37.4141 3.54297C37.9102 3.54297 38.3438 3.64453 38.7148 3.84766C39.0859 4.04688 39.377 4.32031 39.5879 4.66797C39.8027 5.01172 39.9199 5.40234 39.9395 5.83984H38.9082C38.8887 5.57812 38.8145 5.3418 38.6855 5.13086C38.5605 4.91992 38.3887 4.75195 38.1699 4.62695C37.9551 4.49805 37.7031 4.43359 37.4141 4.43359C37.082 4.43359 36.8027 4.5 36.5762 4.63281C36.3535 4.76172 36.1758 4.9375 36.043 5.16016C35.9141 5.37891 35.8203 5.62305 35.7617 5.89258C35.707 6.1582 35.6797 6.42969 35.6797 6.70703V6.95312C35.6797 7.23047 35.707 7.50391 35.7617 7.77344C35.8164 8.04297 35.9082 8.28711 36.0371 8.50586C36.1699 8.72461 36.3477 8.90039 36.5703 9.0332C36.7969 9.16211 37.0781 9.22656 37.4141 9.22656ZM43.7891 10.1172C43.3477 10.1172 42.9473 10.043 42.5879 9.89453C42.2324 9.74219 41.9258 9.5293 41.668 9.25586C41.4141 8.98242 41.2188 8.6582 41.082 8.2832C40.9453 7.9082 40.877 7.49805 40.877 7.05273V6.80664C40.877 6.29102 40.9531 5.83203 41.1055 5.42969C41.2578 5.02344 41.4648 4.67969 41.7266 4.39844C41.9883 4.11719 42.2852 3.9043 42.6172 3.75977C42.9492 3.61523 43.293 3.54297 43.6484 3.54297C44.1016 3.54297 44.4922 3.62109 44.8203 3.77734C45.1523 3.93359 45.4238 4.15234 45.6348 4.43359C45.8457 4.71094 46.002 5.03906 46.1035 5.41797C46.2051 5.79297 46.2559 6.20312 46.2559 6.64844V7.13477H41.5215V6.25H45.1719V6.16797C45.1562 5.88672 45.0977 5.61328 44.9961 5.34766C44.8984 5.08203 44.7422 4.86328 44.5273 4.69141C44.3125 4.51953 44.0195 4.43359 43.6484 4.43359C43.4023 4.43359 43.1758 4.48633 42.9688 4.5918C42.7617 4.69336 42.584 4.8457 42.4355 5.04883C42.2871 5.25195 42.1719 5.5 42.0898 5.79297C42.0078 6.08594 41.9668 6.42383 41.9668 6.80664V7.05273C41.9668 7.35352 42.0078 7.63672 42.0898 7.90234C42.1758 8.16406 42.2988 8.39453 42.459 8.59375C42.623 8.79297 42.8203 8.94922 43.0508 9.0625C43.2852 9.17578 43.5508 9.23242 43.8477 9.23242C44.2305 9.23242 44.5547 9.1543 44.8203 8.99805C45.0859 8.8418 45.3184 8.63281 45.5176 8.37109L46.1738 8.89258C46.0371 9.09961 45.8633 9.29688 45.6523 9.48438C45.4414 9.67188 45.1816 9.82422 44.873 9.94141C44.5684 10.0586 44.207 10.1172 43.7891 10.1172Z" fill="#EBEBED"/>
</svg>
