<svg width="52" height="12" viewBox="0 0 52 12" fill="none" xmlns="http://www.w3.org/2000/svg">
<path d="M4.14844 1.22461L1.32422 9H0.169922L3.42188 0.46875H4.16602L4.14844 1.22461ZM6.51562 9L3.68555 1.22461L3.66797 0.46875H4.41211L7.67578 9H6.51562ZM6.36914 5.8418V6.76758H1.57617V5.8418H6.36914ZM12.4629 7.53516V2.66016H13.5527V9H12.5156L12.4629 7.53516ZM12.668 6.19922L13.1191 6.1875C13.1191 6.60938 13.0742 7 12.9844 7.35938C12.8984 7.71484 12.7578 8.02344 12.5625 8.28516C12.3672 8.54688 12.1113 8.75195 11.7949 8.90039C11.4785 9.04492 11.0938 9.11719 10.6406 9.11719C10.332 9.11719 10.0488 9.07227 9.79102 8.98242C9.53711 8.89258 9.31836 8.75391 9.13477 8.56641C8.95117 8.37891 8.80859 8.13477 8.70703 7.83398C8.60938 7.5332 8.56055 7.17188 8.56055 6.75V2.66016H9.64453V6.76172C9.64453 7.04688 9.67578 7.2832 9.73828 7.4707C9.80469 7.6543 9.89258 7.80078 10.002 7.91016C10.1152 8.01562 10.2402 8.08984 10.377 8.13281C10.5176 8.17578 10.6621 8.19727 10.8105 8.19727C11.2715 8.19727 11.6367 8.10938 11.9062 7.93359C12.1758 7.75391 12.3691 7.51367 12.4863 7.21289C12.6074 6.9082 12.668 6.57031 12.668 6.19922ZM17.8594 2.66016V3.49219H14.4316V2.66016H17.8594ZM15.5918 1.11914H16.6758V7.42969C16.6758 7.64453 16.709 7.80664 16.7754 7.91602C16.8418 8.02539 16.9277 8.09766 17.0332 8.13281C17.1387 8.16797 17.252 8.18555 17.373 8.18555C17.4629 8.18555 17.5566 8.17773 17.6543 8.16211C17.7559 8.14258 17.832 8.12695 17.8828 8.11523L17.8887 9C17.8027 9.02734 17.6895 9.05273 17.5488 9.07617C17.4121 9.10352 17.2461 9.11719 17.0508 9.11719C16.7852 9.11719 16.541 9.06445 16.3184 8.95898C16.0957 8.85352 15.918 8.67773 15.7852 8.43164C15.6562 8.18164 15.5918 7.8457 15.5918 7.42383V1.11914ZM20.2148 0V9H19.1309V0H20.2148ZM19.957 5.58984L19.5059 5.57227C19.5098 5.13867 19.5742 4.73828 19.6992 4.37109C19.8242 4 20 3.67773 20.2266 3.4043C20.4531 3.13086 20.7227 2.91992 21.0352 2.77148C21.3516 2.61914 21.7012 2.54297 22.084 2.54297C22.3965 2.54297 22.6777 2.58594 22.9277 2.67188C23.1777 2.75391 23.3906 2.88672 23.5664 3.07031C23.7461 3.25391 23.8828 3.49219 23.9766 3.78516C24.0703 4.07422 24.1172 4.42773 24.1172 4.8457V9H23.0273V4.83398C23.0273 4.50195 22.9785 4.23633 22.8809 4.03711C22.7832 3.83398 22.6406 3.6875 22.4531 3.59766C22.2656 3.50391 22.0352 3.45703 21.7617 3.45703C21.4922 3.45703 21.2461 3.51367 21.0234 3.62695C20.8047 3.74023 20.6152 3.89648 20.4551 4.0957C20.2988 4.29492 20.1758 4.52344 20.0859 4.78125C20 5.03516 19.957 5.30469 19.957 5.58984ZM25.4531 5.90039V5.76562C25.4531 5.30859 25.5195 4.88477 25.6523 4.49414C25.7852 4.09961 25.9766 3.75781 26.2266 3.46875C26.4766 3.17578 26.7793 2.94922 27.1348 2.78906C27.4902 2.625 27.8887 2.54297 28.3301 2.54297C28.7754 2.54297 29.1758 2.625 29.5312 2.78906C29.8906 2.94922 30.1953 3.17578 30.4453 3.46875C30.6992 3.75781 30.8926 4.09961 31.0254 4.49414C31.1582 4.88477 31.2246 5.30859 31.2246 5.76562V5.90039C31.2246 6.35742 31.1582 6.78125 31.0254 7.17188C30.8926 7.5625 30.6992 7.9043 30.4453 8.19727C30.1953 8.48633 29.8926 8.71289 29.5371 8.87695C29.1855 9.03711 28.7871 9.11719 28.3418 9.11719C27.8965 9.11719 27.4961 9.03711 27.1406 8.87695C26.7852 8.71289 26.4805 8.48633 26.2266 8.19727C25.9766 7.9043 25.7852 7.5625 25.6523 7.17188C25.5195 6.78125 25.4531 6.35742 25.4531 5.90039ZM26.5371 5.76562V5.90039C26.5371 6.2168 26.5742 6.51562 26.6484 6.79688C26.7227 7.07422 26.834 7.32031 26.9824 7.53516C27.1348 7.75 27.3242 7.91992 27.5508 8.04492C27.7773 8.16602 28.041 8.22656 28.3418 8.22656C28.6387 8.22656 28.8984 8.16602 29.1211 8.04492C29.3477 7.91992 29.5352 7.75 29.6836 7.53516C29.832 7.32031 29.9434 7.07422 30.0176 6.79688C30.0957 6.51562 30.1348 6.2168 30.1348 5.90039V5.76562C30.1348 5.45312 30.0957 5.1582 30.0176 4.88086C29.9434 4.59961 29.8301 4.35156 29.6777 4.13672C29.5293 3.91797 29.3418 3.74609 29.1152 3.62109C28.8926 3.49609 28.6309 3.43359 28.3301 3.43359C28.0332 3.43359 27.7715 3.49609 27.5449 3.62109C27.3223 3.74609 27.1348 3.91797 26.9824 4.13672C26.834 4.35156 26.7227 4.59961 26.6484 4.88086C26.5742 5.1582 26.5371 5.45312 26.5371 5.76562ZM33.668 3.65625V9H32.584V2.66016H33.6387L33.668 3.65625ZM35.6484 2.625L35.6426 3.63281C35.5527 3.61328 35.4668 3.60156 35.3848 3.59766C35.3066 3.58984 35.2168 3.58594 35.1152 3.58594C34.8652 3.58594 34.6445 3.625 34.4531 3.70312C34.2617 3.78125 34.0996 3.89062 33.9668 4.03125C33.834 4.17188 33.7285 4.33984 33.6504 4.53516C33.5762 4.72656 33.5273 4.9375 33.5039 5.16797L33.1992 5.34375C33.1992 4.96094 33.2363 4.60156 33.3105 4.26562C33.3887 3.92969 33.5078 3.63281 33.668 3.375C33.8281 3.11328 34.0312 2.91016 34.2773 2.76562C34.5273 2.61719 34.8242 2.54297 35.168 2.54297C35.2461 2.54297 35.3359 2.55273 35.4375 2.57227C35.5391 2.58789 35.6094 2.60547 35.6484 2.625ZM37.8281 2.66016V9H36.7383V2.66016H37.8281ZM36.6562 0.978516C36.6562 0.802734 36.709 0.654297 36.8145 0.533203C36.9238 0.412109 37.084 0.351562 37.2949 0.351562C37.502 0.351562 37.6602 0.412109 37.7695 0.533203C37.8828 0.654297 37.9395 0.802734 37.9395 0.978516C37.9395 1.14648 37.8828 1.29102 37.7695 1.41211C37.6602 1.5293 37.502 1.58789 37.2949 1.58789C37.084 1.58789 36.9238 1.5293 36.8145 1.41211C36.709 1.29102 36.6562 1.14648 36.6562 0.978516ZM40.6523 4.01367V9H39.5684V2.66016H40.5938L40.6523 4.01367ZM40.3945 5.58984L39.9434 5.57227C39.9473 5.13867 40.0117 4.73828 40.1367 4.37109C40.2617 4 40.4375 3.67773 40.6641 3.4043C40.8906 3.13086 41.1602 2.91992 41.4727 2.77148C41.7891 2.61914 42.1387 2.54297 42.5215 2.54297C42.834 2.54297 43.1152 2.58594 43.3652 2.67188C43.6152 2.75391 43.8281 2.88672 44.0039 3.07031C44.1836 3.25391 44.3203 3.49219 44.4141 3.78516C44.5078 4.07422 44.5547 4.42773 44.5547 4.8457V9H43.4648V4.83398C43.4648 4.50195 43.416 4.23633 43.3184 4.03711C43.2207 3.83398 43.0781 3.6875 42.8906 3.59766C42.7031 3.50391 42.4727 3.45703 42.1992 3.45703C41.9297 3.45703 41.6836 3.51367 41.4609 3.62695C41.2422 3.74023 41.0527 3.89648 40.8926 4.0957C40.7363 4.29492 40.6133 4.52344 40.5234 4.78125C40.4375 5.03516 40.3945 5.30469 40.3945 5.58984ZM50.3086 2.66016H51.293V8.86523C51.293 9.42383 51.1797 9.90039 50.9531 10.2949C50.7266 10.6895 50.4102 10.9883 50.0039 11.1914C49.6016 11.3984 49.1367 11.502 48.6094 11.502C48.3906 11.502 48.1328 11.4668 47.8359 11.3965C47.543 11.3301 47.2539 11.2148 46.9688 11.0508C46.6875 10.8906 46.4512 10.6738 46.2598 10.4004L46.8281 9.75586C47.0938 10.0762 47.3711 10.2988 47.6602 10.4238C47.9531 10.5488 48.2422 10.6113 48.5273 10.6113C48.8711 10.6113 49.168 10.5469 49.418 10.418C49.668 10.2891 49.8613 10.0977 49.998 9.84375C50.1387 9.59375 50.209 9.28516 50.209 8.91797V4.05469L50.3086 2.66016ZM45.9434 5.90039V5.77734C45.9434 5.29297 46 4.85352 46.1133 4.45898C46.2305 4.06055 46.3965 3.71875 46.6113 3.43359C46.8301 3.14844 47.0938 2.92969 47.4023 2.77734C47.7109 2.62109 48.0586 2.54297 48.4453 2.54297C48.8438 2.54297 49.1914 2.61328 49.4883 2.75391C49.7891 2.89062 50.043 3.0918 50.25 3.35742C50.4609 3.61914 50.627 3.93555 50.748 4.30664C50.8691 4.67773 50.9531 5.09766 51 5.56641V6.10547C50.957 6.57031 50.873 6.98828 50.748 7.35938C50.627 7.73047 50.4609 8.04688 50.25 8.30859C50.043 8.57031 49.7891 8.77148 49.4883 8.91211C49.1875 9.04883 48.8359 9.11719 48.4336 9.11719C48.0547 9.11719 47.7109 9.03711 47.4023 8.87695C47.0977 8.7168 46.8359 8.49219 46.6172 8.20312C46.3984 7.91406 46.2305 7.57422 46.1133 7.18359C46 6.78906 45.9434 6.36133 45.9434 5.90039ZM47.0273 5.77734V5.90039C47.0273 6.2168 47.0586 6.51367 47.1211 6.79102C47.1875 7.06836 47.2871 7.3125 47.4199 7.52344C47.5566 7.73438 47.7305 7.90039 47.9414 8.02148C48.1523 8.13867 48.4043 8.19727 48.6973 8.19727C49.0566 8.19727 49.3535 8.12109 49.5879 7.96875C49.8223 7.81641 50.0078 7.61523 50.1445 7.36523C50.2852 7.11523 50.3945 6.84375 50.4727 6.55078V5.13867C50.4297 4.92383 50.3633 4.7168 50.2734 4.51758C50.1875 4.31445 50.0742 4.13477 49.9336 3.97852C49.7969 3.81836 49.627 3.69141 49.4238 3.59766C49.2207 3.50391 48.9824 3.45703 48.709 3.45703C48.4121 3.45703 48.1562 3.51953 47.9414 3.64453C47.7305 3.76562 47.5566 3.93359 47.4199 4.14844C47.2871 4.35938 47.1875 4.60547 47.1211 4.88672C47.0586 5.16406 47.0273 5.46094 47.0273 5.77734Z" fill="#EBEBED"/>
</svg>
