<svg width="34" height="10" viewBox="0 0 34 10" fill="none" xmlns="http://www.w3.org/2000/svg">
<path d="M3.03125 5.00977H0.869141L0.857422 4.10156H2.82031C3.14453 4.10156 3.42773 4.04688 3.66992 3.9375C3.91211 3.82812 4.09961 3.67188 4.23242 3.46875C4.36914 3.26172 4.4375 3.01562 4.4375 2.73047C4.4375 2.41797 4.37695 2.16406 4.25586 1.96875C4.13867 1.76953 3.95703 1.625 3.71094 1.53516C3.46875 1.44141 3.16016 1.39453 2.78516 1.39453H1.12109V9H-0.00976562V0.46875H2.78516C3.22266 0.46875 3.61328 0.513672 3.95703 0.603516C4.30078 0.689453 4.5918 0.826172 4.83008 1.01367C5.07227 1.19727 5.25586 1.43164 5.38086 1.7168C5.50586 2.00195 5.56836 2.34375 5.56836 2.74219C5.56836 3.09375 5.47852 3.41211 5.29883 3.69727C5.11914 3.97852 4.86914 4.20898 4.54883 4.38867C4.23242 4.56836 3.86133 4.68359 3.43555 4.73438L3.03125 5.00977ZM2.97852 9H0.423828L1.0625 8.08008H2.97852C3.33789 8.08008 3.64258 8.01758 3.89258 7.89258C4.14648 7.76758 4.33984 7.5918 4.47266 7.36523C4.60547 7.13477 4.67188 6.86328 4.67188 6.55078C4.67188 6.23438 4.61523 5.96094 4.50195 5.73047C4.38867 5.5 4.21094 5.32227 3.96875 5.19727C3.72656 5.07227 3.41406 5.00977 3.03125 5.00977H1.41992L1.43164 4.10156H3.63477L3.875 4.42969C4.28516 4.46484 4.63281 4.58203 4.91797 4.78125C5.20312 4.97656 5.41992 5.22656 5.56836 5.53125C5.7207 5.83594 5.79688 6.17188 5.79688 6.53906C5.79688 7.07031 5.67969 7.51953 5.44531 7.88672C5.21484 8.25 4.88867 8.52734 4.4668 8.71875C4.04492 8.90625 3.54883 9 2.97852 9ZM11.041 7.91602V4.65234C11.041 4.40234 10.9902 4.18555 10.8887 4.00195C10.791 3.81445 10.6426 3.66992 10.4434 3.56836C10.2441 3.4668 9.99805 3.41602 9.70508 3.41602C9.43164 3.41602 9.19141 3.46289 8.98438 3.55664C8.78125 3.65039 8.62109 3.77344 8.50391 3.92578C8.39062 4.07812 8.33398 4.24219 8.33398 4.41797H7.25C7.25 4.19141 7.30859 3.9668 7.42578 3.74414C7.54297 3.52148 7.71094 3.32031 7.92969 3.14062C8.15234 2.95703 8.41797 2.8125 8.72656 2.70703C9.03906 2.59766 9.38672 2.54297 9.76953 2.54297C10.2305 2.54297 10.6367 2.62109 10.9883 2.77734C11.3438 2.93359 11.6211 3.16992 11.8203 3.48633C12.0234 3.79883 12.125 4.19141 12.125 4.66406V7.61719C12.125 7.82812 12.1426 8.05273 12.1777 8.29102C12.2168 8.5293 12.2734 8.73438 12.3477 8.90625V9H11.2168C11.1621 8.875 11.1191 8.70898 11.0879 8.50195C11.0566 8.29102 11.041 8.0957 11.041 7.91602ZM11.2285 5.15625L11.2402 5.91797H10.1445C9.83594 5.91797 9.56055 5.94336 9.31836 5.99414C9.07617 6.04102 8.87305 6.11328 8.70898 6.21094C8.54492 6.30859 8.41992 6.43164 8.33398 6.58008C8.24805 6.72461 8.20508 6.89453 8.20508 7.08984C8.20508 7.28906 8.25 7.4707 8.33984 7.63477C8.42969 7.79883 8.56445 7.92969 8.74414 8.02734C8.92773 8.12109 9.15234 8.16797 9.41797 8.16797C9.75 8.16797 10.043 8.09766 10.2969 7.95703C10.5508 7.81641 10.752 7.64453 10.9004 7.44141C11.0527 7.23828 11.1348 7.04102 11.1465 6.84961L11.6094 7.37109C11.582 7.53516 11.5078 7.7168 11.3867 7.91602C11.2656 8.11523 11.1035 8.30664 10.9004 8.49023C10.7012 8.66992 10.4629 8.82031 10.1855 8.94141C9.91211 9.05859 9.60352 9.11719 9.25977 9.11719C8.83008 9.11719 8.45312 9.0332 8.12891 8.86523C7.80859 8.69727 7.55859 8.47266 7.37891 8.19141C7.20312 7.90625 7.11523 7.58789 7.11523 7.23633C7.11523 6.89648 7.18164 6.59766 7.31445 6.33984C7.44727 6.07812 7.63867 5.86133 7.88867 5.68945C8.13867 5.51367 8.43945 5.38086 8.79102 5.29102C9.14258 5.20117 9.53516 5.15625 9.96875 5.15625H11.2285ZM17.5215 7.31836C17.5215 7.16211 17.4863 7.01758 17.416 6.88477C17.3496 6.74805 17.2109 6.625 17 6.51562C16.793 6.40234 16.4805 6.30469 16.0625 6.22266C15.7109 6.14844 15.3926 6.06055 15.1074 5.95898C14.8262 5.85742 14.5859 5.73438 14.3867 5.58984C14.1914 5.44531 14.041 5.27539 13.9355 5.08008C13.8301 4.88477 13.7773 4.65625 13.7773 4.39453C13.7773 4.14453 13.832 3.9082 13.9414 3.68555C14.0547 3.46289 14.2129 3.26562 14.416 3.09375C14.623 2.92188 14.8711 2.78711 15.1602 2.68945C15.4492 2.5918 15.7715 2.54297 16.127 2.54297C16.6348 2.54297 17.0684 2.63281 17.4277 2.8125C17.7871 2.99219 18.0625 3.23242 18.2539 3.5332C18.4453 3.83008 18.541 4.16016 18.541 4.52344H17.457C17.457 4.34766 17.4043 4.17773 17.2988 4.01367C17.1973 3.8457 17.0469 3.70703 16.8477 3.59766C16.6523 3.48828 16.4121 3.43359 16.127 3.43359C15.8262 3.43359 15.582 3.48047 15.3945 3.57422C15.2109 3.66406 15.0762 3.7793 14.9902 3.91992C14.9082 4.06055 14.8672 4.20898 14.8672 4.36523C14.8672 4.48242 14.8867 4.58789 14.9258 4.68164C14.9688 4.77148 15.043 4.85547 15.1484 4.93359C15.2539 5.00781 15.4023 5.07812 15.5938 5.14453C15.7852 5.21094 16.0293 5.27734 16.3262 5.34375C16.8457 5.46094 17.2734 5.60156 17.6094 5.76562C17.9453 5.92969 18.1953 6.13086 18.3594 6.36914C18.5234 6.60742 18.6055 6.89648 18.6055 7.23633C18.6055 7.51367 18.5469 7.76758 18.4297 7.99805C18.3164 8.22852 18.1504 8.42773 17.9316 8.5957C17.7168 8.75977 17.459 8.88867 17.1582 8.98242C16.8613 9.07227 16.5273 9.11719 16.1562 9.11719C15.5977 9.11719 15.125 9.01758 14.7383 8.81836C14.3516 8.61914 14.0586 8.36133 13.8594 8.04492C13.6602 7.72852 13.5605 7.39453 13.5605 7.04297H14.6504C14.666 7.33984 14.752 7.57617 14.9082 7.75195C15.0645 7.92383 15.2559 8.04688 15.4824 8.12109C15.709 8.19141 15.9336 8.22656 16.1562 8.22656C16.4531 8.22656 16.7012 8.1875 16.9004 8.10938C17.1035 8.03125 17.2578 7.92383 17.3633 7.78711C17.4688 7.65039 17.5215 7.49414 17.5215 7.31836ZM21.207 2.66016V9H20.1172V2.66016H21.207ZM20.0352 0.978516C20.0352 0.802734 20.0879 0.654297 20.1934 0.533203C20.3027 0.412109 20.4629 0.351562 20.6738 0.351562C20.8809 0.351562 21.0391 0.412109 21.1484 0.533203C21.2617 0.654297 21.3184 0.802734 21.3184 0.978516C21.3184 1.14648 21.2617 1.29102 21.1484 1.41211C21.0391 1.5293 20.8809 1.58789 20.6738 1.58789C20.4629 1.58789 20.3027 1.5293 20.1934 1.41211C20.0879 1.29102 20.0352 1.14648 20.0352 0.978516ZM25.4844 8.22656C25.7422 8.22656 25.9805 8.17383 26.1992 8.06836C26.418 7.96289 26.5977 7.81836 26.7383 7.63477C26.8789 7.44727 26.959 7.23438 26.9785 6.99609H28.0098C27.9902 7.37109 27.8633 7.7207 27.6289 8.04492C27.3984 8.36523 27.0957 8.625 26.7207 8.82422C26.3457 9.01953 25.9336 9.11719 25.4844 9.11719C25.0078 9.11719 24.5918 9.0332 24.2363 8.86523C23.8848 8.69727 23.5918 8.4668 23.3574 8.17383C23.127 7.88086 22.9531 7.54492 22.8359 7.16602C22.7227 6.7832 22.666 6.37891 22.666 5.95312V5.70703C22.666 5.28125 22.7227 4.87891 22.8359 4.5C22.9531 4.11719 23.127 3.7793 23.3574 3.48633C23.5918 3.19336 23.8848 2.96289 24.2363 2.79492C24.5918 2.62695 25.0078 2.54297 25.4844 2.54297C25.9805 2.54297 26.4141 2.64453 26.7852 2.84766C27.1562 3.04688 27.4473 3.32031 27.6582 3.66797C27.873 4.01172 27.9902 4.40234 28.0098 4.83984H26.9785C26.959 4.57812 26.8848 4.3418 26.7559 4.13086C26.6309 3.91992 26.459 3.75195 26.2402 3.62695C26.0254 3.49805 25.7734 3.43359 25.4844 3.43359C25.1523 3.43359 24.873 3.5 24.6465 3.63281C24.4238 3.76172 24.2461 3.9375 24.1133 4.16016C23.9844 4.37891 23.8906 4.62305 23.832 4.89258C23.7773 5.1582 23.75 5.42969 23.75 5.70703V5.95312C23.75 6.23047 23.7773 6.50391 23.832 6.77344C23.8867 7.04297 23.9785 7.28711 24.1074 7.50586C24.2402 7.72461 24.418 7.90039 24.6406 8.0332C24.8672 8.16211 25.1484 8.22656 25.4844 8.22656ZM32.9199 7.31836C32.9199 7.16211 32.8848 7.01758 32.8145 6.88477C32.748 6.74805 32.6094 6.625 32.3984 6.51562C32.1914 6.40234 31.8789 6.30469 31.4609 6.22266C31.1094 6.14844 30.791 6.06055 30.5059 5.95898C30.2246 5.85742 29.9844 5.73438 29.7852 5.58984C29.5898 5.44531 29.4395 5.27539 29.334 5.08008C29.2285 4.88477 29.1758 4.65625 29.1758 4.39453C29.1758 4.14453 29.2305 3.9082 29.3398 3.68555C29.4531 3.46289 29.6113 3.26562 29.8145 3.09375C30.0215 2.92188 30.2695 2.78711 30.5586 2.68945C30.8477 2.5918 31.1699 2.54297 31.5254 2.54297C32.0332 2.54297 32.4668 2.63281 32.8262 2.8125C33.1855 2.99219 33.4609 3.23242 33.6523 3.5332C33.8438 3.83008 33.9395 4.16016 33.9395 4.52344H32.8555C32.8555 4.34766 32.8027 4.17773 32.6973 4.01367C32.5957 3.8457 32.4453 3.70703 32.2461 3.59766C32.0508 3.48828 31.8105 3.43359 31.5254 3.43359C31.2246 3.43359 30.9805 3.48047 30.793 3.57422C30.6094 3.66406 30.4746 3.7793 30.3887 3.91992C30.3066 4.06055 30.2656 4.20898 30.2656 4.36523C30.2656 4.48242 30.2852 4.58789 30.3242 4.68164C30.3672 4.77148 30.4414 4.85547 30.5469 4.93359C30.6523 5.00781 30.8008 5.07812 30.9922 5.14453C31.1836 5.21094 31.4277 5.27734 31.7246 5.34375C32.2441 5.46094 32.6719 5.60156 33.0078 5.76562C33.3438 5.92969 33.5938 6.13086 33.7578 6.36914C33.9219 6.60742 34.0039 6.89648 34.0039 7.23633C34.0039 7.51367 33.9453 7.76758 33.8281 7.99805C33.7148 8.22852 33.5488 8.42773 33.3301 8.5957C33.1152 8.75977 32.8574 8.88867 32.5566 8.98242C32.2598 9.07227 31.9258 9.11719 31.5547 9.11719C30.9961 9.11719 30.5234 9.01758 30.1367 8.81836C29.75 8.61914 29.457 8.36133 29.2578 8.04492C29.0586 7.72852 28.959 7.39453 28.959 7.04297H30.0488C30.0645 7.33984 30.1504 7.57617 30.3066 7.75195C30.4629 7.92383 30.6543 8.04688 30.8809 8.12109C31.1074 8.19141 31.332 8.22656 31.5547 8.22656C31.8516 8.22656 32.0996 8.1875 32.2988 8.10938C32.502 8.03125 32.6562 7.92383 32.7617 7.78711C32.8672 7.65039 32.9199 7.49414 32.9199 7.31836Z" fill="#EBEBED"/>
</svg>
