<svg width="59" height="10" viewBox="0 0 59 10" fill="none" xmlns="http://www.w3.org/2000/svg">
<path d="M6.14062 6.28711H7.26562C7.20703 6.82617 7.05273 7.30859 6.80273 7.73438C6.55273 8.16016 6.19922 8.49805 5.74219 8.74805C5.28516 8.99414 4.71484 9.11719 4.03125 9.11719C3.53125 9.11719 3.07617 9.02344 2.66602 8.83594C2.25977 8.64844 1.91016 8.38281 1.61719 8.03906C1.32422 7.69141 1.09766 7.27539 0.9375 6.79102C0.78125 6.30273 0.703125 5.75977 0.703125 5.16211V4.3125C0.703125 3.71484 0.78125 3.17383 0.9375 2.68945C1.09766 2.20117 1.32617 1.7832 1.62305 1.43555C1.92383 1.08789 2.28516 0.820312 2.70703 0.632812C3.12891 0.445312 3.60352 0.351562 4.13086 0.351562C4.77539 0.351562 5.32031 0.472656 5.76562 0.714844C6.21094 0.957031 6.55664 1.29297 6.80273 1.72266C7.05273 2.14844 7.20703 2.64258 7.26562 3.20508H6.14062C6.08594 2.80664 5.98438 2.46484 5.83594 2.17969C5.6875 1.89062 5.47656 1.66797 5.20312 1.51172C4.92969 1.35547 4.57227 1.27734 4.13086 1.27734C3.75195 1.27734 3.41797 1.34961 3.12891 1.49414C2.84375 1.63867 2.60352 1.84375 2.4082 2.10938C2.2168 2.375 2.07227 2.69336 1.97461 3.06445C1.87695 3.43555 1.82812 3.84766 1.82812 4.30078V5.16211C1.82812 5.58008 1.87109 5.97266 1.95703 6.33984C2.04688 6.70703 2.18164 7.0293 2.36133 7.30664C2.54102 7.58398 2.76953 7.80273 3.04688 7.96289C3.32422 8.11914 3.65234 8.19727 4.03125 8.19727C4.51172 8.19727 4.89453 8.12109 5.17969 7.96875C5.46484 7.81641 5.67969 7.59766 5.82422 7.3125C5.97266 7.02734 6.07812 6.68555 6.14062 6.28711ZM8.35547 5.90039V5.76562C8.35547 5.30859 8.42188 4.88477 8.55469 4.49414C8.6875 4.09961 8.87891 3.75781 9.12891 3.46875C9.37891 3.17578 9.68164 2.94922 10.0371 2.78906C10.3926 2.625 10.791 2.54297 11.2324 2.54297C11.6777 2.54297 12.0781 2.625 12.4336 2.78906C12.793 2.94922 13.0977 3.17578 13.3477 3.46875C13.6016 3.75781 13.7949 4.09961 13.9277 4.49414C14.0605 4.88477 14.127 5.30859 14.127 5.76562V5.90039C14.127 6.35742 14.0605 6.78125 13.9277 7.17188C13.7949 7.5625 13.6016 7.9043 13.3477 8.19727C13.0977 8.48633 12.7949 8.71289 12.4395 8.87695C12.0879 9.03711 11.6895 9.11719 11.2441 9.11719C10.7988 9.11719 10.3984 9.03711 10.043 8.87695C9.6875 8.71289 9.38281 8.48633 9.12891 8.19727C8.87891 7.9043 8.6875 7.5625 8.55469 7.17188C8.42188 6.78125 8.35547 6.35742 8.35547 5.90039ZM9.43945 5.76562V5.90039C9.43945 6.2168 9.47656 6.51562 9.55078 6.79688C9.625 7.07422 9.73633 7.32031 9.88477 7.53516C10.0371 7.75 10.2266 7.91992 10.4531 8.04492C10.6797 8.16602 10.9434 8.22656 11.2441 8.22656C11.541 8.22656 11.8008 8.16602 12.0234 8.04492C12.25 7.91992 12.4375 7.75 12.5859 7.53516C12.7344 7.32031 12.8457 7.07422 12.9199 6.79688C12.998 6.51562 13.0371 6.2168 13.0371 5.90039V5.76562C13.0371 5.45312 12.998 5.1582 12.9199 4.88086C12.8457 4.59961 12.7324 4.35156 12.5801 4.13672C12.4316 3.91797 12.2441 3.74609 12.0176 3.62109C11.7949 3.49609 11.5332 3.43359 11.2324 3.43359C10.9355 3.43359 10.6738 3.49609 10.4473 3.62109C10.2246 3.74609 10.0371 3.91797 9.88477 4.13672C9.73633 4.35156 9.625 4.59961 9.55078 4.88086C9.47656 5.1582 9.43945 5.45312 9.43945 5.76562ZM16.5645 3.91992V9H15.4746V2.66016H16.5059L16.5645 3.91992ZM16.3418 5.58984L15.8379 5.57227C15.8418 5.13867 15.8984 4.73828 16.0078 4.37109C16.1172 4 16.2793 3.67773 16.4941 3.4043C16.709 3.13086 16.9766 2.91992 17.2969 2.77148C17.6172 2.61914 17.9883 2.54297 18.4102 2.54297C18.707 2.54297 18.9805 2.58594 19.2305 2.67188C19.4805 2.75391 19.6973 2.88477 19.8809 3.06445C20.0645 3.24414 20.207 3.47461 20.3086 3.75586C20.4102 4.03711 20.4609 4.37695 20.4609 4.77539V9H19.377V4.82812C19.377 4.49609 19.3203 4.23047 19.207 4.03125C19.0977 3.83203 18.9414 3.6875 18.7383 3.59766C18.5352 3.50391 18.2969 3.45703 18.0234 3.45703C17.7031 3.45703 17.4355 3.51367 17.2207 3.62695C17.0059 3.74023 16.834 3.89648 16.7051 4.0957C16.5762 4.29492 16.4824 4.52344 16.4238 4.78125C16.3691 5.03516 16.3418 5.30469 16.3418 5.58984ZM20.4492 4.99219L19.7227 5.21484C19.7266 4.86719 19.7832 4.5332 19.8926 4.21289C20.0059 3.89258 20.168 3.60742 20.3789 3.35742C20.5938 3.10742 20.8574 2.91016 21.1699 2.76562C21.4824 2.61719 21.8398 2.54297 22.2422 2.54297C22.582 2.54297 22.8828 2.58789 23.1445 2.67773C23.4102 2.76758 23.6328 2.90625 23.8125 3.09375C23.9961 3.27734 24.1348 3.51367 24.2285 3.80273C24.3223 4.0918 24.3691 4.43555 24.3691 4.83398V9H23.2793V4.82227C23.2793 4.4668 23.2227 4.19141 23.1094 3.99609C23 3.79688 22.8438 3.6582 22.6406 3.58008C22.4414 3.49805 22.2031 3.45703 21.9258 3.45703C21.6875 3.45703 21.4766 3.49805 21.293 3.58008C21.1094 3.66211 20.9551 3.77539 20.8301 3.91992C20.7051 4.06055 20.6094 4.22266 20.543 4.40625C20.4805 4.58984 20.4492 4.78516 20.4492 4.99219ZM27.0879 3.91992V9H25.998V2.66016H27.0293L27.0879 3.91992ZM26.8652 5.58984L26.3613 5.57227C26.3652 5.13867 26.4219 4.73828 26.5312 4.37109C26.6406 4 26.8027 3.67773 27.0176 3.4043C27.2324 3.13086 27.5 2.91992 27.8203 2.77148C28.1406 2.61914 28.5117 2.54297 28.9336 2.54297C29.2305 2.54297 29.5039 2.58594 29.7539 2.67188C30.0039 2.75391 30.2207 2.88477 30.4043 3.06445C30.5879 3.24414 30.7305 3.47461 30.832 3.75586C30.9336 4.03711 30.9844 4.37695 30.9844 4.77539V9H29.9004V4.82812C29.9004 4.49609 29.8438 4.23047 29.7305 4.03125C29.6211 3.83203 29.4648 3.6875 29.2617 3.59766C29.0586 3.50391 28.8203 3.45703 28.5469 3.45703C28.2266 3.45703 27.959 3.51367 27.7441 3.62695C27.5293 3.74023 27.3574 3.89648 27.2285 4.0957C27.0996 4.29492 27.0059 4.52344 26.9473 4.78125C26.8926 5.03516 26.8652 5.30469 26.8652 5.58984ZM30.9727 4.99219L30.2461 5.21484C30.25 4.86719 30.3066 4.5332 30.416 4.21289C30.5293 3.89258 30.6914 3.60742 30.9023 3.35742C31.1172 3.10742 31.3809 2.91016 31.6934 2.76562C32.0059 2.61719 32.3633 2.54297 32.7656 2.54297C33.1055 2.54297 33.4062 2.58789 33.668 2.67773C33.9336 2.76758 34.1562 2.90625 34.3359 3.09375C34.5195 3.27734 34.6582 3.51367 34.752 3.80273C34.8457 4.0918 34.8926 4.43555 34.8926 4.83398V9H33.8027V4.82227C33.8027 4.4668 33.7461 4.19141 33.6328 3.99609C33.5234 3.79688 33.3672 3.6582 33.1641 3.58008C32.9648 3.49805 32.7266 3.45703 32.4492 3.45703C32.2109 3.45703 32 3.49805 31.8164 3.58008C31.6328 3.66211 31.4785 3.77539 31.3535 3.91992C31.2285 4.06055 31.1328 4.22266 31.0664 4.40625C31.0039 4.58984 30.9727 4.78516 30.9727 4.99219ZM39.1641 9.11719C38.7227 9.11719 38.3223 9.04297 37.9629 8.89453C37.6074 8.74219 37.3008 8.5293 37.043 8.25586C36.7891 7.98242 36.5938 7.6582 36.457 7.2832C36.3203 6.9082 36.252 6.49805 36.252 6.05273V5.80664C36.252 5.29102 36.3281 4.83203 36.4805 4.42969C36.6328 4.02344 36.8398 3.67969 37.1016 3.39844C37.3633 3.11719 37.6602 2.9043 37.9922 2.75977C38.3242 2.61523 38.668 2.54297 39.0234 2.54297C39.4766 2.54297 39.8672 2.62109 40.1953 2.77734C40.5273 2.93359 40.7988 3.15234 41.0098 3.43359C41.2207 3.71094 41.377 4.03906 41.4785 4.41797C41.5801 4.79297 41.6309 5.20312 41.6309 5.64844V6.13477H36.8965V5.25H40.5469V5.16797C40.5312 4.88672 40.4727 4.61328 40.3711 4.34766C40.2734 4.08203 40.1172 3.86328 39.9023 3.69141C39.6875 3.51953 39.3945 3.43359 39.0234 3.43359C38.7773 3.43359 38.5508 3.48633 38.3438 3.5918C38.1367 3.69336 37.959 3.8457 37.8105 4.04883C37.6621 4.25195 37.5469 4.5 37.4648 4.79297C37.3828 5.08594 37.3418 5.42383 37.3418 5.80664V6.05273C37.3418 6.35352 37.3828 6.63672 37.4648 6.90234C37.5508 7.16406 37.6738 7.39453 37.834 7.59375C37.998 7.79297 38.1953 7.94922 38.4258 8.0625C38.6602 8.17578 38.9258 8.23242 39.2227 8.23242C39.6055 8.23242 39.9297 8.1543 40.1953 7.99805C40.4609 7.8418 40.6934 7.63281 40.8926 7.37109L41.5488 7.89258C41.4121 8.09961 41.2383 8.29688 41.0273 8.48438C40.8164 8.67188 40.5566 8.82422 40.248 8.94141C39.9434 9.05859 39.582 9.11719 39.1641 9.11719ZM43.9805 3.65625V9H42.8965V2.66016H43.9512L43.9805 3.65625ZM45.9609 2.625L45.9551 3.63281C45.8652 3.61328 45.7793 3.60156 45.6973 3.59766C45.6191 3.58984 45.5293 3.58594 45.4277 3.58594C45.1777 3.58594 44.957 3.625 44.7656 3.70312C44.5742 3.78125 44.4121 3.89062 44.2793 4.03125C44.1465 4.17188 44.041 4.33984 43.9629 4.53516C43.8887 4.72656 43.8398 4.9375 43.8164 5.16797L43.5117 5.34375C43.5117 4.96094 43.5488 4.60156 43.623 4.26562C43.7012 3.92969 43.8203 3.63281 43.9805 3.375C44.1406 3.11328 44.3438 2.91016 44.5898 2.76562C44.8398 2.61719 45.1367 2.54297 45.4805 2.54297C45.5586 2.54297 45.6484 2.55273 45.75 2.57227C45.8516 2.58789 45.9219 2.60547 45.9609 2.625ZM49.3828 8.22656C49.6406 8.22656 49.8789 8.17383 50.0977 8.06836C50.3164 7.96289 50.4961 7.81836 50.6367 7.63477C50.7773 7.44727 50.8574 7.23438 50.877 6.99609H51.9082C51.8887 7.37109 51.7617 7.7207 51.5273 8.04492C51.2969 8.36523 50.9941 8.625 50.6191 8.82422C50.2441 9.01953 49.832 9.11719 49.3828 9.11719C48.9062 9.11719 48.4902 9.0332 48.1348 8.86523C47.7832 8.69727 47.4902 8.4668 47.2559 8.17383C47.0254 7.88086 46.8516 7.54492 46.7344 7.16602C46.6211 6.7832 46.5645 6.37891 46.5645 5.95312V5.70703C46.5645 5.28125 46.6211 4.87891 46.7344 4.5C46.8516 4.11719 47.0254 3.7793 47.2559 3.48633C47.4902 3.19336 47.7832 2.96289 48.1348 2.79492C48.4902 2.62695 48.9062 2.54297 49.3828 2.54297C49.8789 2.54297 50.3125 2.64453 50.6836 2.84766C51.0547 3.04688 51.3457 3.32031 51.5566 3.66797C51.7715 4.01172 51.8887 4.40234 51.9082 4.83984H50.877C50.8574 4.57812 50.7832 4.3418 50.6543 4.13086C50.5293 3.91992 50.3574 3.75195 50.1387 3.62695C49.9238 3.49805 49.6719 3.43359 49.3828 3.43359C49.0508 3.43359 48.7715 3.5 48.5449 3.63281C48.3223 3.76172 48.1445 3.9375 48.0117 4.16016C47.8828 4.37891 47.7891 4.62305 47.7305 4.89258C47.6758 5.1582 47.6484 5.42969 47.6484 5.70703V5.95312C47.6484 6.23047 47.6758 6.50391 47.7305 6.77344C47.7852 7.04297 47.877 7.28711 48.0059 7.50586C48.1387 7.72461 48.3164 7.90039 48.5391 8.0332C48.7656 8.16211 49.0469 8.22656 49.3828 8.22656ZM55.7578 9.11719C55.3164 9.11719 54.916 9.04297 54.5566 8.89453C54.2012 8.74219 53.8945 8.5293 53.6367 8.25586C53.3828 7.98242 53.1875 7.6582 53.0508 7.2832C52.9141 6.9082 52.8457 6.49805 52.8457 6.05273V5.80664C52.8457 5.29102 52.9219 4.83203 53.0742 4.42969C53.2266 4.02344 53.4336 3.67969 53.6953 3.39844C53.957 3.11719 54.2539 2.9043 54.5859 2.75977C54.918 2.61523 55.2617 2.54297 55.6172 2.54297C56.0703 2.54297 56.4609 2.62109 56.7891 2.77734C57.1211 2.93359 57.3926 3.15234 57.6035 3.43359C57.8145 3.71094 57.9707 4.03906 58.0723 4.41797C58.1738 4.79297 58.2246 5.20312 58.2246 5.64844V6.13477H53.4902V5.25H57.1406V5.16797C57.125 4.88672 57.0664 4.61328 56.9648 4.34766C56.8672 4.08203 56.7109 3.86328 56.4961 3.69141C56.2812 3.51953 55.9883 3.43359 55.6172 3.43359C55.3711 3.43359 55.1445 3.48633 54.9375 3.5918C54.7305 3.69336 54.5527 3.8457 54.4043 4.04883C54.2559 4.25195 54.1406 4.5 54.0586 4.79297C53.9766 5.08594 53.9355 5.42383 53.9355 5.80664V6.05273C53.9355 6.35352 53.9766 6.63672 54.0586 6.90234C54.1445 7.16406 54.2676 7.39453 54.4277 7.59375C54.5918 7.79297 54.7891 7.94922 55.0195 8.0625C55.2539 8.17578 55.5195 8.23242 55.8164 8.23242C56.1992 8.23242 56.5234 8.1543 56.7891 7.99805C57.0547 7.8418 57.2871 7.63281 57.4863 7.37109L58.1426 7.89258C58.0059 8.09961 57.832 8.29688 57.6211 8.48438C57.4102 8.67188 57.1504 8.82422 56.8418 8.94141C56.5371 9.05859 56.1758 9.11719 55.7578 9.11719Z" fill="#EBEBED"/>
</svg>
