<svg width="69" height="12" viewBox="0 0 69 12" fill="none" xmlns="http://www.w3.org/2000/svg">
<path d="M-0.00976562 9V0.46875H2.39844C3.14062 0.46875 3.79688 0.632812 4.36719 0.960938C4.9375 1.28906 5.37695 1.75586 5.68555 2.36133C5.99805 2.9668 6.15625 3.66211 6.16016 4.44727V4.99219C6.16016 5.79688 6.00391 6.50195 5.69141 7.10742C5.38281 7.71289 4.93945 8.17773 4.36133 8.50195C3.78711 8.82617 3.11719 8.99219 2.35156 9H-0.00976562ZM1.11523 1.39453V8.08008H2.29883C3.16602 8.08008 3.83984 7.81055 4.32031 7.27148C4.80469 6.73242 5.04688 5.96484 5.04688 4.96875V4.4707C5.04688 3.50195 4.81836 2.75 4.36133 2.21484C3.9082 1.67578 3.26367 1.40234 2.42773 1.39453H1.11523ZM10.3262 9.11719C9.4668 9.11719 8.76758 8.83594 8.22852 8.27344C7.68945 7.70703 7.41992 6.95117 7.41992 6.00586V5.80664C7.41992 5.17773 7.53906 4.61719 7.77734 4.125C8.01953 3.62891 8.35547 3.24219 8.78516 2.96484C9.21875 2.68359 9.6875 2.54297 10.1914 2.54297C11.0156 2.54297 11.6562 2.81445 12.1133 3.35742C12.5703 3.90039 12.7988 4.67773 12.7988 5.68945V6.14062H8.50391C8.51953 6.76562 8.70117 7.27148 9.04883 7.6582C9.40039 8.04102 9.8457 8.23242 10.3848 8.23242C10.7676 8.23242 11.0918 8.1543 11.3574 7.99805C11.623 7.8418 11.8555 7.63477 12.0547 7.37695L12.7168 7.89258C12.1855 8.70898 11.3887 9.11719 10.3262 9.11719ZM10.1914 3.43359C9.75391 3.43359 9.38672 3.59375 9.08984 3.91406C8.79297 4.23047 8.60938 4.67578 8.53906 5.25H11.7148V5.16797C11.6836 4.61719 11.5352 4.19141 11.2695 3.89062C11.0039 3.58594 10.6445 3.43359 10.1914 3.43359ZM17.75 7.31836C17.75 7.02539 17.6387 6.79883 17.416 6.63867C17.1973 6.47461 16.8125 6.33398 16.2617 6.2168C15.7148 6.09961 15.2793 5.95898 14.9551 5.79492C14.6348 5.63086 14.3965 5.43555 14.2402 5.20898C14.0879 4.98242 14.0117 4.71289 14.0117 4.40039C14.0117 3.88086 14.2305 3.44141 14.668 3.08203C15.1094 2.72266 15.6719 2.54297 16.3555 2.54297C17.0742 2.54297 17.6562 2.72852 18.1016 3.09961C18.5508 3.4707 18.7754 3.94531 18.7754 4.52344H17.6855C17.6855 4.22656 17.5586 3.9707 17.3047 3.75586C17.0547 3.54102 16.7383 3.43359 16.3555 3.43359C15.9609 3.43359 15.6523 3.51953 15.4297 3.69141C15.207 3.86328 15.0957 4.08789 15.0957 4.36523C15.0957 4.62695 15.1992 4.82422 15.4062 4.95703C15.6133 5.08984 15.9863 5.2168 16.5254 5.33789C17.0684 5.45898 17.5078 5.60352 17.8438 5.77148C18.1797 5.93945 18.4277 6.14258 18.5879 6.38086C18.752 6.61523 18.834 6.90234 18.834 7.24219C18.834 7.80859 18.6074 8.26367 18.1543 8.60742C17.7012 8.94727 17.1133 9.11719 16.3906 9.11719C15.8828 9.11719 15.4336 9.02734 15.043 8.84766C14.6523 8.66797 14.3457 8.41797 14.123 8.09766C13.9043 7.77344 13.7949 7.42383 13.7949 7.04883H14.8789C14.8984 7.41211 15.043 7.70117 15.3125 7.91602C15.5859 8.12695 15.9453 8.23242 16.3906 8.23242C16.8008 8.23242 17.1289 8.15039 17.375 7.98633C17.625 7.81836 17.75 7.5957 17.75 7.31836ZM21.4238 9H20.3398V2.66016H21.4238V9ZM20.252 0.978516C20.252 0.802734 20.3047 0.654297 20.4102 0.533203C20.5195 0.412109 20.6797 0.351562 20.8906 0.351562C21.1016 0.351562 21.2617 0.412109 21.3711 0.533203C21.4805 0.654297 21.5352 0.802734 21.5352 0.978516C21.5352 1.1543 21.4805 1.30078 21.3711 1.41797C21.2617 1.53516 21.1016 1.59375 20.8906 1.59375C20.6797 1.59375 20.5195 1.53516 20.4102 1.41797C20.3047 1.30078 20.252 1.1543 20.252 0.978516ZM22.9062 5.77734C22.9062 4.78906 23.1348 4.00391 23.5918 3.42188C24.0488 2.83594 24.6543 2.54297 25.4082 2.54297C26.1816 2.54297 26.7852 2.81641 27.2188 3.36328L27.2715 2.66016H28.2617V8.84766C28.2617 9.66797 28.0176 10.3145 27.5293 10.7871C27.0449 11.2598 26.3926 11.4961 25.5723 11.4961C25.1152 11.4961 24.668 11.3984 24.2305 11.2031C23.793 11.0078 23.459 10.7402 23.2285 10.4004L23.791 9.75C24.2559 10.3242 24.8242 10.6113 25.4961 10.6113C26.0234 10.6113 26.4336 10.4629 26.7266 10.166C27.0234 9.86914 27.1719 9.45117 27.1719 8.91211V8.36719C26.7383 8.86719 26.1465 9.11719 25.3965 9.11719C24.6543 9.11719 24.0527 8.81836 23.5918 8.2207C23.1348 7.62305 22.9062 6.80859 22.9062 5.77734ZM23.9961 5.90039C23.9961 6.61523 24.1426 7.17773 24.4355 7.58789C24.7285 7.99414 25.1387 8.19727 25.666 8.19727C26.3496 8.19727 26.8516 7.88672 27.1719 7.26562V4.37109C26.8398 3.76562 26.3418 3.46289 25.6777 3.46289C25.1504 3.46289 24.7383 3.66797 24.4414 4.07812C24.1445 4.48828 23.9961 5.0957 23.9961 5.90039ZM30.9277 2.66016L30.9629 3.45703C31.4473 2.84766 32.0801 2.54297 32.8613 2.54297C34.2012 2.54297 34.877 3.29883 34.8887 4.81055V9H33.8047V4.80469C33.8008 4.34766 33.6953 4.00977 33.4883 3.79102C33.2852 3.57227 32.9668 3.46289 32.5332 3.46289C32.1816 3.46289 31.873 3.55664 31.6074 3.74414C31.3418 3.93164 31.1348 4.17773 30.9863 4.48242V9H29.9023V2.66016H30.9277ZM39.2715 6.70898C39.2715 6.29883 39.3848 5.92188 39.6113 5.57812C39.8418 5.23438 40.2793 4.83398 40.9238 4.37695C40.5449 3.91602 40.291 3.54492 40.1621 3.26367C40.0332 2.98242 39.9688 2.70312 39.9688 2.42578C39.9688 1.77734 40.1602 1.26953 40.543 0.902344C40.9258 0.535156 41.4453 0.351562 42.1016 0.351562C42.6875 0.351562 43.1719 0.523437 43.5547 0.867188C43.9375 1.20703 44.1289 1.63672 44.1289 2.15625C44.1289 2.5 44.041 2.81836 43.8652 3.11133C43.6934 3.40039 43.3906 3.70508 42.957 4.02539L42.3301 4.48828L44.2285 6.75586C44.4941 6.24805 44.627 5.68359 44.627 5.0625H45.6055C45.6055 6.05859 45.3652 6.88477 44.8848 7.54102L46.1035 9H44.8027L44.2344 8.32617C43.9453 8.58398 43.6055 8.78125 43.2148 8.91797C42.8281 9.05078 42.4336 9.11719 42.0312 9.11719C41.1992 9.11719 40.5312 8.89648 40.0273 8.45508C39.5234 8.01367 39.2715 7.43164 39.2715 6.70898ZM42.0312 8.23242C42.6055 8.23242 43.1309 8.01367 43.6074 7.57617L41.5273 5.08594L41.334 5.22656C40.6816 5.70703 40.3555 6.20117 40.3555 6.70898C40.3555 7.16992 40.5039 7.53906 40.8008 7.81641C41.1016 8.09375 41.5117 8.23242 42.0312 8.23242ZM41.0527 2.39062C41.0527 2.76562 41.2832 3.23438 41.7441 3.79688L42.4355 3.31055C42.7012 3.12305 42.8828 2.94531 42.9805 2.77734C43.0781 2.60547 43.127 2.39844 43.127 2.15625C43.127 1.89453 43.0293 1.67773 42.834 1.50586C42.6387 1.33008 42.3926 1.24219 42.0957 1.24219C41.7754 1.24219 41.5215 1.35156 41.334 1.57031C41.1465 1.78516 41.0527 2.05859 41.0527 2.39062ZM50.1113 9V0.46875H52.5195C53.2617 0.46875 53.918 0.632812 54.4883 0.960938C55.0586 1.28906 55.498 1.75586 55.8066 2.36133C56.1191 2.9668 56.2773 3.66211 56.2812 4.44727V4.99219C56.2812 5.79688 56.125 6.50195 55.8125 7.10742C55.5039 7.71289 55.0605 8.17773 54.4824 8.50195C53.9082 8.82617 53.2383 8.99219 52.4727 9H50.1113ZM51.2363 1.39453V8.08008H52.4199C53.2871 8.08008 53.9609 7.81055 54.4414 7.27148C54.9258 6.73242 55.168 5.96484 55.168 4.96875V4.4707C55.168 3.50195 54.9395 2.75 54.4824 2.21484C54.0293 1.67578 53.3848 1.40234 52.5488 1.39453H51.2363ZM60.4473 9.11719C59.5879 9.11719 58.8887 8.83594 58.3496 8.27344C57.8105 7.70703 57.541 6.95117 57.541 6.00586V5.80664C57.541 5.17773 57.6602 4.61719 57.8984 4.125C58.1406 3.62891 58.4766 3.24219 58.9062 2.96484C59.3398 2.68359 59.8086 2.54297 60.3125 2.54297C61.1367 2.54297 61.7773 2.81445 62.2344 3.35742C62.6914 3.90039 62.9199 4.67773 62.9199 5.68945V6.14062H58.625C58.6406 6.76562 58.8223 7.27148 59.1699 7.6582C59.5215 8.04102 59.9668 8.23242 60.5059 8.23242C60.8887 8.23242 61.2129 8.1543 61.4785 7.99805C61.7441 7.8418 61.9766 7.63477 62.1758 7.37695L62.8379 7.89258C62.3066 8.70898 61.5098 9.11719 60.4473 9.11719ZM60.3125 3.43359C59.875 3.43359 59.5078 3.59375 59.2109 3.91406C58.9141 4.23047 58.7305 4.67578 58.6602 5.25H61.8359V5.16797C61.8047 4.61719 61.6562 4.19141 61.3906 3.89062C61.125 3.58594 60.7656 3.43359 60.3125 3.43359ZM66.1895 7.5293L67.7598 2.66016H68.8672L66.5938 9H65.7676L63.4707 2.66016H64.5781L66.1895 7.5293Z" fill="#EBEBED"/>
</svg>
