<svg width="109" height="11" viewBox="0 0 109 11" fill="none" xmlns="http://www.w3.org/2000/svg">
<path d="M4.14258 0.46875V9H3.0293V0.46875H4.14258ZM6.88477 0.46875V1.39453H0.292969V0.46875H6.88477ZM11.0566 7.91602V4.65234C11.0566 4.40234 11.0059 4.18555 10.9043 4.00195C10.8066 3.81445 10.6582 3.66992 10.459 3.56836C10.2598 3.4668 10.0137 3.41602 9.7207 3.41602C9.44727 3.41602 9.20703 3.46289 9 3.55664C8.79688 3.65039 8.63672 3.77344 8.51953 3.92578C8.40625 4.07812 8.34961 4.24219 8.34961 4.41797H7.26562C7.26562 4.19141 7.32422 3.9668 7.44141 3.74414C7.55859 3.52148 7.72656 3.32031 7.94531 3.14062C8.16797 2.95703 8.43359 2.8125 8.74219 2.70703C9.05469 2.59766 9.40234 2.54297 9.78516 2.54297C10.2461 2.54297 10.6523 2.62109 11.0039 2.77734C11.3594 2.93359 11.6367 3.16992 11.8359 3.48633C12.0391 3.79883 12.1406 4.19141 12.1406 4.66406V7.61719C12.1406 7.82812 12.1582 8.05273 12.1934 8.29102C12.2324 8.5293 12.2891 8.73438 12.3633 8.90625V9H11.2324C11.1777 8.875 11.1348 8.70898 11.1035 8.50195C11.0723 8.29102 11.0566 8.0957 11.0566 7.91602ZM11.2441 5.15625L11.2559 5.91797H10.1602C9.85156 5.91797 9.57617 5.94336 9.33398 5.99414C9.0918 6.04102 8.88867 6.11328 8.72461 6.21094C8.56055 6.30859 8.43555 6.43164 8.34961 6.58008C8.26367 6.72461 8.2207 6.89453 8.2207 7.08984C8.2207 7.28906 8.26562 7.4707 8.35547 7.63477C8.44531 7.79883 8.58008 7.92969 8.75977 8.02734C8.94336 8.12109 9.16797 8.16797 9.43359 8.16797C9.76562 8.16797 10.0586 8.09766 10.3125 7.95703C10.5664 7.81641 10.7676 7.64453 10.916 7.44141C11.0684 7.23828 11.1504 7.04102 11.1621 6.84961L11.625 7.37109C11.5977 7.53516 11.5234 7.7168 11.4023 7.91602C11.2812 8.11523 11.1191 8.30664 10.916 8.49023C10.7168 8.66992 10.4785 8.82031 10.2012 8.94141C9.92773 9.05859 9.61914 9.11719 9.27539 9.11719C8.8457 9.11719 8.46875 9.0332 8.14453 8.86523C7.82422 8.69727 7.57422 8.47266 7.39453 8.19141C7.21875 7.90625 7.13086 7.58789 7.13086 7.23633C7.13086 6.89648 7.19727 6.59766 7.33008 6.33984C7.46289 6.07812 7.6543 5.86133 7.9043 5.68945C8.1543 5.51367 8.45508 5.38086 8.80664 5.29102C9.1582 5.20117 9.55078 5.15625 9.98438 5.15625H11.2441ZM17.5371 7.31836C17.5371 7.16211 17.502 7.01758 17.4316 6.88477C17.3652 6.74805 17.2266 6.625 17.0156 6.51562C16.8086 6.40234 16.4961 6.30469 16.0781 6.22266C15.7266 6.14844 15.4082 6.06055 15.123 5.95898C14.8418 5.85742 14.6016 5.73438 14.4023 5.58984C14.207 5.44531 14.0566 5.27539 13.9512 5.08008C13.8457 4.88477 13.793 4.65625 13.793 4.39453C13.793 4.14453 13.8477 3.9082 13.957 3.68555C14.0703 3.46289 14.2285 3.26562 14.4316 3.09375C14.6387 2.92188 14.8867 2.78711 15.1758 2.68945C15.4648 2.5918 15.7871 2.54297 16.1426 2.54297C16.6504 2.54297 17.084 2.63281 17.4434 2.8125C17.8027 2.99219 18.0781 3.23242 18.2695 3.5332C18.4609 3.83008 18.5566 4.16016 18.5566 4.52344H17.4727C17.4727 4.34766 17.4199 4.17773 17.3145 4.01367C17.2129 3.8457 17.0625 3.70703 16.8633 3.59766C16.668 3.48828 16.4277 3.43359 16.1426 3.43359C15.8418 3.43359 15.5977 3.48047 15.4102 3.57422C15.2266 3.66406 15.0918 3.7793 15.0059 3.91992C14.9238 4.06055 14.8828 4.20898 14.8828 4.36523C14.8828 4.48242 14.9023 4.58789 14.9414 4.68164C14.9844 4.77148 15.0586 4.85547 15.1641 4.93359C15.2695 5.00781 15.418 5.07812 15.6094 5.14453C15.8008 5.21094 16.0449 5.27734 16.3418 5.34375C16.8613 5.46094 17.2891 5.60156 17.625 5.76562C17.9609 5.92969 18.2109 6.13086 18.375 6.36914C18.5391 6.60742 18.6211 6.89648 18.6211 7.23633C18.6211 7.51367 18.5625 7.76758 18.4453 7.99805C18.332 8.22852 18.166 8.42773 17.9473 8.5957C17.7324 8.75977 17.4746 8.88867 17.1738 8.98242C16.877 9.07227 16.543 9.11719 16.1719 9.11719C15.6133 9.11719 15.1406 9.01758 14.7539 8.81836C14.3672 8.61914 14.0742 8.36133 13.875 8.04492C13.6758 7.72852 13.5762 7.39453 13.5762 7.04297H14.666C14.6816 7.33984 14.7676 7.57617 14.9238 7.75195C15.0801 7.92383 15.2715 8.04688 15.498 8.12109C15.7246 8.19141 15.9492 8.22656 16.1719 8.22656C16.4688 8.22656 16.7168 8.1875 16.916 8.10938C17.1191 8.03125 17.2734 7.92383 17.3789 7.78711C17.4844 7.65039 17.5371 7.49414 17.5371 7.31836ZM21.1348 0V9H20.0449V0H21.1348ZM25.0078 2.66016L22.2422 5.61914L20.6953 7.22461L20.6074 6.07031L21.7148 4.74609L23.6836 2.66016H25.0078ZM24.0176 9L21.7559 5.97656L22.3184 5.00977L25.2949 9H24.0176ZM29.8184 7.31836C29.8184 7.16211 29.7832 7.01758 29.7129 6.88477C29.6465 6.74805 29.5078 6.625 29.2969 6.51562C29.0898 6.40234 28.7773 6.30469 28.3594 6.22266C28.0078 6.14844 27.6895 6.06055 27.4043 5.95898C27.123 5.85742 26.8828 5.73438 26.6836 5.58984C26.4883 5.44531 26.3379 5.27539 26.2324 5.08008C26.127 4.88477 26.0742 4.65625 26.0742 4.39453C26.0742 4.14453 26.1289 3.9082 26.2383 3.68555C26.3516 3.46289 26.5098 3.26562 26.7129 3.09375C26.9199 2.92188 27.168 2.78711 27.457 2.68945C27.7461 2.5918 28.0684 2.54297 28.4238 2.54297C28.9316 2.54297 29.3652 2.63281 29.7246 2.8125C30.084 2.99219 30.3594 3.23242 30.5508 3.5332C30.7422 3.83008 30.8379 4.16016 30.8379 4.52344H29.7539C29.7539 4.34766 29.7012 4.17773 29.5957 4.01367C29.4941 3.8457 29.3438 3.70703 29.1445 3.59766C28.9492 3.48828 28.709 3.43359 28.4238 3.43359C28.123 3.43359 27.8789 3.48047 27.6914 3.57422C27.5078 3.66406 27.373 3.7793 27.2871 3.91992C27.2051 4.06055 27.1641 4.20898 27.1641 4.36523C27.1641 4.48242 27.1836 4.58789 27.2227 4.68164C27.2656 4.77148 27.3398 4.85547 27.4453 4.93359C27.5508 5.00781 27.6992 5.07812 27.8906 5.14453C28.082 5.21094 28.3262 5.27734 28.623 5.34375C29.1426 5.46094 29.5703 5.60156 29.9062 5.76562C30.2422 5.92969 30.4922 6.13086 30.6562 6.36914C30.8203 6.60742 30.9023 6.89648 30.9023 7.23633C30.9023 7.51367 30.8438 7.76758 30.7266 7.99805C30.6133 8.22852 30.4473 8.42773 30.2285 8.5957C30.0137 8.75977 29.7559 8.88867 29.4551 8.98242C29.1582 9.07227 28.8242 9.11719 28.4531 9.11719C27.8945 9.11719 27.4219 9.01758 27.0352 8.81836C26.6484 8.61914 26.3555 8.36133 26.1562 8.04492C25.957 7.72852 25.8574 7.39453 25.8574 7.04297H26.9473C26.9629 7.33984 27.0488 7.57617 27.2051 7.75195C27.3613 7.92383 27.5527 8.04688 27.7793 8.12109C28.0059 8.19141 28.2305 8.22656 28.4531 8.22656C28.75 8.22656 28.998 8.1875 29.1973 8.10938C29.4004 8.03125 29.5547 7.92383 29.6602 7.78711C29.7656 7.65039 29.8184 7.49414 29.8184 7.31836ZM33.3105 7.71094V8.58398C33.3105 8.93945 33.2207 9.31445 33.041 9.70898C32.8613 10.1074 32.6094 10.4395 32.2852 10.7051L31.6699 10.2773C31.7949 10.1055 31.9004 9.92969 31.9863 9.75C32.0723 9.57422 32.1367 9.39062 32.1797 9.19922C32.2266 9.01172 32.25 8.8125 32.25 8.60156V7.71094H33.3105ZM40.207 8.22656C40.4648 8.22656 40.7031 8.17383 40.9219 8.06836C41.1406 7.96289 41.3203 7.81836 41.4609 7.63477C41.6016 7.44727 41.6816 7.23438 41.7012 6.99609H42.7324C42.7129 7.37109 42.5859 7.7207 42.3516 8.04492C42.1211 8.36523 41.8184 8.625 41.4434 8.82422C41.0684 9.01953 40.6562 9.11719 40.207 9.11719C39.7305 9.11719 39.3145 9.0332 38.959 8.86523C38.6074 8.69727 38.3145 8.4668 38.0801 8.17383C37.8496 7.88086 37.6758 7.54492 37.5586 7.16602C37.4453 6.7832 37.3887 6.37891 37.3887 5.95312V5.70703C37.3887 5.28125 37.4453 4.87891 37.5586 4.5C37.6758 4.11719 37.8496 3.7793 38.0801 3.48633C38.3145 3.19336 38.6074 2.96289 38.959 2.79492C39.3145 2.62695 39.7305 2.54297 40.207 2.54297C40.7031 2.54297 41.1367 2.64453 41.5078 2.84766C41.8789 3.04688 42.1699 3.32031 42.3809 3.66797C42.5957 4.01172 42.7129 4.40234 42.7324 4.83984H41.7012C41.6816 4.57812 41.6074 4.3418 41.4785 4.13086C41.3535 3.91992 41.1816 3.75195 40.9629 3.62695C40.748 3.49805 40.4961 3.43359 40.207 3.43359C39.875 3.43359 39.5957 3.5 39.3691 3.63281C39.1465 3.76172 38.9688 3.9375 38.8359 4.16016C38.707 4.37891 38.6133 4.62305 38.5547 4.89258C38.5 5.1582 38.4727 5.42969 38.4727 5.70703V5.95312C38.4727 6.23047 38.5 6.50391 38.5547 6.77344C38.6094 7.04297 38.7012 7.28711 38.8301 7.50586C38.9629 7.72461 39.1406 7.90039 39.3633 8.0332C39.5898 8.16211 39.8711 8.22656 40.207 8.22656ZM45.0352 0V9H43.9512V0H45.0352ZM44.7773 5.58984L44.3262 5.57227C44.3301 5.13867 44.3945 4.73828 44.5195 4.37109C44.6445 4 44.8203 3.67773 45.0469 3.4043C45.2734 3.13086 45.543 2.91992 45.8555 2.77148C46.1719 2.61914 46.5215 2.54297 46.9043 2.54297C47.2168 2.54297 47.498 2.58594 47.748 2.67188C47.998 2.75391 48.2109 2.88672 48.3867 3.07031C48.5664 3.25391 48.7031 3.49219 48.7969 3.78516C48.8906 4.07422 48.9375 4.42773 48.9375 4.8457V9H47.8477V4.83398C47.8477 4.50195 47.7988 4.23633 47.7012 4.03711C47.6035 3.83398 47.4609 3.6875 47.2734 3.59766C47.0859 3.50391 46.8555 3.45703 46.582 3.45703C46.3125 3.45703 46.0664 3.51367 45.8438 3.62695C45.625 3.74023 45.4355 3.89648 45.2754 4.0957C45.1191 4.29492 44.9961 4.52344 44.9062 4.78125C44.8203 5.03516 44.7773 5.30469 44.7773 5.58984ZM54.2988 7.91602V4.65234C54.2988 4.40234 54.248 4.18555 54.1465 4.00195C54.0488 3.81445 53.9004 3.66992 53.7012 3.56836C53.502 3.4668 53.2559 3.41602 52.9629 3.41602C52.6895 3.41602 52.4492 3.46289 52.2422 3.55664C52.0391 3.65039 51.8789 3.77344 51.7617 3.92578C51.6484 4.07812 51.5918 4.24219 51.5918 4.41797H50.5078C50.5078 4.19141 50.5664 3.9668 50.6836 3.74414C50.8008 3.52148 50.9688 3.32031 51.1875 3.14062C51.4102 2.95703 51.6758 2.8125 51.9844 2.70703C52.2969 2.59766 52.6445 2.54297 53.0273 2.54297C53.4883 2.54297 53.8945 2.62109 54.2461 2.77734C54.6016 2.93359 54.8789 3.16992 55.0781 3.48633C55.2812 3.79883 55.3828 4.19141 55.3828 4.66406V7.61719C55.3828 7.82812 55.4004 8.05273 55.4355 8.29102C55.4746 8.5293 55.5312 8.73438 55.6055 8.90625V9H54.4746C54.4199 8.875 54.377 8.70898 54.3457 8.50195C54.3145 8.29102 54.2988 8.0957 54.2988 7.91602ZM54.4863 5.15625L54.498 5.91797H53.4023C53.0938 5.91797 52.8184 5.94336 52.5762 5.99414C52.334 6.04102 52.1309 6.11328 51.9668 6.21094C51.8027 6.30859 51.6777 6.43164 51.5918 6.58008C51.5059 6.72461 51.4629 6.89453 51.4629 7.08984C51.4629 7.28906 51.5078 7.4707 51.5977 7.63477C51.6875 7.79883 51.8223 7.92969 52.002 8.02734C52.1855 8.12109 52.4102 8.16797 52.6758 8.16797C53.0078 8.16797 53.3008 8.09766 53.5547 7.95703C53.8086 7.81641 54.0098 7.64453 54.1582 7.44141C54.3105 7.23828 54.3926 7.04102 54.4043 6.84961L54.8672 7.37109C54.8398 7.53516 54.7656 7.7168 54.6445 7.91602C54.5234 8.11523 54.3613 8.30664 54.1582 8.49023C53.959 8.66992 53.7207 8.82031 53.4434 8.94141C53.1699 9.05859 52.8613 9.11719 52.5176 9.11719C52.0879 9.11719 51.7109 9.0332 51.3867 8.86523C51.0664 8.69727 50.8164 8.47266 50.6367 8.19141C50.4609 7.90625 50.373 7.58789 50.373 7.23633C50.373 6.89648 50.4395 6.59766 50.5723 6.33984C50.7051 6.07812 50.8965 5.86133 51.1465 5.68945C51.3965 5.51367 51.6973 5.38086 52.0488 5.29102C52.4004 5.20117 52.793 5.15625 53.2266 5.15625H54.4863ZM59.7422 2.66016V3.49219H56.3145V2.66016H59.7422ZM57.4746 1.11914H58.5586V7.42969C58.5586 7.64453 58.5918 7.80664 58.6582 7.91602C58.7246 8.02539 58.8105 8.09766 58.916 8.13281C59.0215 8.16797 59.1348 8.18555 59.2559 8.18555C59.3457 8.18555 59.4395 8.17773 59.5371 8.16211C59.6387 8.14258 59.7148 8.12695 59.7656 8.11523L59.7715 9C59.6855 9.02734 59.5723 9.05273 59.4316 9.07617C59.2949 9.10352 59.1289 9.11719 58.9336 9.11719C58.668 9.11719 58.4238 9.06445 58.2012 8.95898C57.9785 8.85352 57.8008 8.67773 57.668 8.43164C57.5391 8.18164 57.4746 7.8457 57.4746 7.42383V1.11914ZM65.5664 4.26562L66.8438 3.35742C67.0898 3.18945 67.2793 3.02148 67.4121 2.85352C67.5488 2.68164 67.6172 2.44727 67.6172 2.15039C67.6172 1.91992 67.5273 1.71094 67.3477 1.52344C67.168 1.33203 66.9141 1.23633 66.5859 1.23633C66.3594 1.23633 66.168 1.28906 66.0117 1.39453C65.8555 1.5 65.7383 1.64062 65.6602 1.81641C65.582 1.98828 65.543 2.17773 65.543 2.38477C65.543 2.56055 65.5859 2.74219 65.6719 2.92969C65.7578 3.11719 65.877 3.3125 66.0293 3.51562C66.1816 3.71875 66.3555 3.93359 66.5508 4.16016L70.5879 9H69.2871L65.9766 5.03906C65.6836 4.69531 65.4219 4.38086 65.1914 4.0957C64.9609 3.80664 64.7793 3.52734 64.6465 3.25781C64.5176 2.98828 64.4531 2.70898 64.4531 2.41992C64.4531 1.97461 64.541 1.59961 64.7168 1.29492C64.8965 0.986328 65.1465 0.751953 65.4668 0.591797C65.7871 0.431641 66.1621 0.351562 66.5918 0.351562C67.0098 0.351562 67.3691 0.435547 67.6699 0.603516C67.9746 0.767578 68.209 0.986328 68.373 1.25977C68.5371 1.5293 68.6191 1.82617 68.6191 2.15039C68.6191 2.42383 68.5703 2.66992 68.4727 2.88867C68.375 3.10352 68.2383 3.30078 68.0625 3.48047C67.8906 3.66016 67.6895 3.83594 67.459 4.00781L65.7656 5.26758C65.4844 5.47461 65.2793 5.67188 65.1504 5.85938C65.0215 6.04688 64.9375 6.21289 64.8984 6.35742C64.8633 6.50195 64.8457 6.61719 64.8457 6.70312C64.8457 6.98047 64.9062 7.23438 65.0273 7.46484C65.1484 7.69531 65.332 7.88086 65.5781 8.02148C65.8281 8.1582 66.1406 8.22656 66.5156 8.22656C66.8438 8.22656 67.1621 8.15234 67.4707 8.00391C67.7832 7.85156 68.0625 7.63672 68.3086 7.35938C68.5547 7.07812 68.75 6.74414 68.8945 6.35742C69.043 5.9668 69.1172 5.53516 69.1172 5.0625H70.0898C70.0898 5.44922 70.0527 5.81445 69.9785 6.1582C69.9043 6.50195 69.7891 6.82227 69.6328 7.11914C69.4805 7.41211 69.2852 7.67969 69.0469 7.92188C69.0117 7.95703 68.9844 7.99805 68.9648 8.04492C68.9453 8.0918 68.918 8.13281 68.8828 8.16797C68.5898 8.48438 68.2285 8.72266 67.7988 8.88281C67.373 9.03906 66.9453 9.11719 66.5156 9.11719C65.9492 9.11719 65.459 9.01367 65.0449 8.80664C64.6348 8.59961 64.3184 8.31445 64.0957 7.95117C63.873 7.58789 63.7617 7.17188 63.7617 6.70312C63.7617 6.34375 63.8379 6.02734 63.9902 5.75391C64.1465 5.48047 64.3594 5.22461 64.6289 4.98633C64.9023 4.74805 65.2148 4.50781 65.5664 4.26562ZM77.0625 9.11719C76.6211 9.11719 76.2207 9.04297 75.8613 8.89453C75.5059 8.74219 75.1992 8.5293 74.9414 8.25586C74.6875 7.98242 74.4922 7.6582 74.3555 7.2832C74.2188 6.9082 74.1504 6.49805 74.1504 6.05273V5.80664C74.1504 5.29102 74.2266 4.83203 74.3789 4.42969C74.5312 4.02344 74.7383 3.67969 75 3.39844C75.2617 3.11719 75.5586 2.9043 75.8906 2.75977C76.2227 2.61523 76.5664 2.54297 76.9219 2.54297C77.375 2.54297 77.7656 2.62109 78.0938 2.77734C78.4258 2.93359 78.6973 3.15234 78.9082 3.43359C79.1191 3.71094 79.2754 4.03906 79.377 4.41797C79.4785 4.79297 79.5293 5.20312 79.5293 5.64844V6.13477H74.7949V5.25H78.4453V5.16797C78.4297 4.88672 78.3711 4.61328 78.2695 4.34766C78.1719 4.08203 78.0156 3.86328 77.8008 3.69141C77.5859 3.51953 77.293 3.43359 76.9219 3.43359C76.6758 3.43359 76.4492 3.48633 76.2422 3.5918C76.0352 3.69336 75.8574 3.8457 75.709 4.04883C75.5605 4.25195 75.4453 4.5 75.3633 4.79297C75.2812 5.08594 75.2402 5.42383 75.2402 5.80664V6.05273C75.2402 6.35352 75.2812 6.63672 75.3633 6.90234C75.4492 7.16406 75.5723 7.39453 75.7324 7.59375C75.8965 7.79297 76.0938 7.94922 76.3242 8.0625C76.5586 8.17578 76.8242 8.23242 77.1211 8.23242C77.5039 8.23242 77.8281 8.1543 78.0938 7.99805C78.3594 7.8418 78.5918 7.63281 78.791 7.37109L79.4473 7.89258C79.3105 8.09961 79.1367 8.29688 78.9258 8.48438C78.7148 8.67188 78.4551 8.82422 78.1465 8.94141C77.8418 9.05859 77.4805 9.11719 77.0625 9.11719ZM82.6406 8.02148L84.375 2.66016H85.4824L83.2031 9H82.4766L82.6406 8.02148ZM81.1934 2.66016L82.9805 8.05078L83.1035 9H82.377L80.0801 2.66016H81.1934ZM89.0742 9.11719C88.6328 9.11719 88.2324 9.04297 87.873 8.89453C87.5176 8.74219 87.2109 8.5293 86.9531 8.25586C86.6992 7.98242 86.5039 7.6582 86.3672 7.2832C86.2305 6.9082 86.1621 6.49805 86.1621 6.05273V5.80664C86.1621 5.29102 86.2383 4.83203 86.3906 4.42969C86.543 4.02344 86.75 3.67969 87.0117 3.39844C87.2734 3.11719 87.5703 2.9043 87.9023 2.75977C88.2344 2.61523 88.5781 2.54297 88.9336 2.54297C89.3867 2.54297 89.7773 2.62109 90.1055 2.77734C90.4375 2.93359 90.709 3.15234 90.9199 3.43359C91.1309 3.71094 91.2871 4.03906 91.3887 4.41797C91.4902 4.79297 91.541 5.20312 91.541 5.64844V6.13477H86.8066V5.25H90.457V5.16797C90.4414 4.88672 90.3828 4.61328 90.2812 4.34766C90.1836 4.08203 90.0273 3.86328 89.8125 3.69141C89.5977 3.51953 89.3047 3.43359 88.9336 3.43359C88.6875 3.43359 88.4609 3.48633 88.2539 3.5918C88.0469 3.69336 87.8691 3.8457 87.7207 4.04883C87.5723 4.25195 87.457 4.5 87.375 4.79297C87.293 5.08594 87.252 5.42383 87.252 5.80664V6.05273C87.252 6.35352 87.293 6.63672 87.375 6.90234C87.4609 7.16406 87.584 7.39453 87.7441 7.59375C87.9082 7.79297 88.1055 7.94922 88.3359 8.0625C88.5703 8.17578 88.8359 8.23242 89.1328 8.23242C89.5156 8.23242 89.8398 8.1543 90.1055 7.99805C90.3711 7.8418 90.6035 7.63281 90.8027 7.37109L91.459 7.89258C91.3223 8.09961 91.1484 8.29688 90.9375 8.48438C90.7266 8.67188 90.4668 8.82422 90.1582 8.94141C89.8535 9.05859 89.4922 9.11719 89.0742 9.11719ZM93.8906 4.01367V9H92.8066V2.66016H93.832L93.8906 4.01367ZM93.6328 5.58984L93.1816 5.57227C93.1855 5.13867 93.25 4.73828 93.375 4.37109C93.5 4 93.6758 3.67773 93.9023 3.4043C94.1289 3.13086 94.3984 2.91992 94.7109 2.77148C95.0273 2.61914 95.377 2.54297 95.7598 2.54297C96.0723 2.54297 96.3535 2.58594 96.6035 2.67188C96.8535 2.75391 97.0664 2.88672 97.2422 3.07031C97.4219 3.25391 97.5586 3.49219 97.6523 3.78516C97.7461 4.07422 97.793 4.42773 97.793 4.8457V9H96.7031V4.83398C96.7031 4.50195 96.6543 4.23633 96.5566 4.03711C96.459 3.83398 96.3164 3.6875 96.1289 3.59766C95.9414 3.50391 95.7109 3.45703 95.4375 3.45703C95.168 3.45703 94.9219 3.51367 94.6992 3.62695C94.4805 3.74023 94.291 3.89648 94.1309 4.0957C93.9746 4.29492 93.8516 4.52344 93.7617 4.78125C93.6758 5.03516 93.6328 5.30469 93.6328 5.58984ZM102.094 2.66016V3.49219H98.666V2.66016H102.094ZM99.8262 1.11914H100.91V7.42969C100.91 7.64453 100.943 7.80664 101.01 7.91602C101.076 8.02539 101.162 8.09766 101.268 8.13281C101.373 8.16797 101.486 8.18555 101.607 8.18555C101.697 8.18555 101.791 8.17773 101.889 8.16211C101.99 8.14258 102.066 8.12695 102.117 8.11523L102.123 9C102.037 9.02734 101.924 9.05273 101.783 9.07617C101.646 9.10352 101.48 9.11719 101.285 9.11719C101.02 9.11719 100.775 9.06445 100.553 8.95898C100.33 8.85352 100.152 8.67773 100.02 8.43164C99.8906 8.18164 99.8262 7.8457 99.8262 7.42383V1.11914ZM107.057 7.31836C107.057 7.16211 107.021 7.01758 106.951 6.88477C106.885 6.74805 106.746 6.625 106.535 6.51562C106.328 6.40234 106.016 6.30469 105.598 6.22266C105.246 6.14844 104.928 6.06055 104.643 5.95898C104.361 5.85742 104.121 5.73438 103.922 5.58984C103.727 5.44531 103.576 5.27539 103.471 5.08008C103.365 4.88477 103.312 4.65625 103.312 4.39453C103.312 4.14453 103.367 3.9082 103.477 3.68555C103.59 3.46289 103.748 3.26562 103.951 3.09375C104.158 2.92188 104.406 2.78711 104.695 2.68945C104.984 2.5918 105.307 2.54297 105.662 2.54297C106.17 2.54297 106.604 2.63281 106.963 2.8125C107.322 2.99219 107.598 3.23242 107.789 3.5332C107.98 3.83008 108.076 4.16016 108.076 4.52344H106.992C106.992 4.34766 106.939 4.17773 106.834 4.01367C106.732 3.8457 106.582 3.70703 106.383 3.59766C106.188 3.48828 105.947 3.43359 105.662 3.43359C105.361 3.43359 105.117 3.48047 104.93 3.57422C104.746 3.66406 104.611 3.7793 104.525 3.91992C104.443 4.06055 104.402 4.20898 104.402 4.36523C104.402 4.48242 104.422 4.58789 104.461 4.68164C104.504 4.77148 104.578 4.85547 104.684 4.93359C104.789 5.00781 104.938 5.07812 105.129 5.14453C105.32 5.21094 105.564 5.27734 105.861 5.34375C106.381 5.46094 106.809 5.60156 107.145 5.76562C107.48 5.92969 107.73 6.13086 107.895 6.36914C108.059 6.60742 108.141 6.89648 108.141 7.23633C108.141 7.51367 108.082 7.76758 107.965 7.99805C107.852 8.22852 107.686 8.42773 107.467 8.5957C107.252 8.75977 106.994 8.88867 106.693 8.98242C106.396 9.07227 106.062 9.11719 105.691 9.11719C105.133 9.11719 104.66 9.01758 104.273 8.81836C103.887 8.61914 103.594 8.36133 103.395 8.04492C103.195 7.72852 103.096 7.39453 103.096 7.04297H104.186C104.201 7.33984 104.287 7.57617 104.443 7.75195C104.6 7.92383 104.791 8.04688 105.018 8.12109C105.244 8.19141 105.469 8.22656 105.691 8.22656C105.988 8.22656 106.236 8.1875 106.436 8.10938C106.639 8.03125 106.793 7.92383 106.898 7.78711C107.004 7.65039 107.057 7.49414 107.057 7.31836Z" fill="#EBEBED"/>
</svg>
