<svg width="35" height="10" viewBox="0 0 35 10" fill="none" xmlns="http://www.w3.org/2000/svg">
<path d="M6.14062 6.28711H7.26562C7.20703 6.82617 7.05273 7.30859 6.80273 7.73438C6.55273 8.16016 6.19922 8.49805 5.74219 8.74805C5.28516 8.99414 4.71484 9.11719 4.03125 9.11719C3.53125 9.11719 3.07617 9.02344 2.66602 8.83594C2.25977 8.64844 1.91016 8.38281 1.61719 8.03906C1.32422 7.69141 1.09766 7.27539 0.9375 6.79102C0.78125 6.30273 0.703125 5.75977 0.703125 5.16211V4.3125C0.703125 3.71484 0.78125 3.17383 0.9375 2.68945C1.09766 2.20117 1.32617 1.7832 1.62305 1.43555C1.92383 1.08789 2.28516 0.820312 2.70703 0.632812C3.12891 0.445312 3.60352 0.351562 4.13086 0.351562C4.77539 0.351562 5.32031 0.472656 5.76562 0.714844C6.21094 0.957031 6.55664 1.29297 6.80273 1.72266C7.05273 2.14844 7.20703 2.64258 7.26562 3.20508H6.14062C6.08594 2.80664 5.98438 2.46484 5.83594 2.17969C5.6875 1.89062 5.47656 1.66797 5.20312 1.51172C4.92969 1.35547 4.57227 1.27734 4.13086 1.27734C3.75195 1.27734 3.41797 1.34961 3.12891 1.49414C2.84375 1.63867 2.60352 1.84375 2.4082 2.10938C2.2168 2.375 2.07227 2.69336 1.97461 3.06445C1.87695 3.43555 1.82812 3.84766 1.82812 4.30078V5.16211C1.82812 5.58008 1.87109 5.97266 1.95703 6.33984C2.04688 6.70703 2.18164 7.0293 2.36133 7.30664C2.54102 7.58398 2.76953 7.80273 3.04688 7.96289C3.32422 8.11914 3.65234 8.19727 4.03125 8.19727C4.51172 8.19727 4.89453 8.12109 5.17969 7.96875C5.46484 7.81641 5.67969 7.59766 5.82422 7.3125C5.97266 7.02734 6.07812 6.68555 6.14062 6.28711ZM9.72656 0V9H8.64258V0H9.72656ZM9.46875 5.58984L9.01758 5.57227C9.02148 5.13867 9.08594 4.73828 9.21094 4.37109C9.33594 4 9.51172 3.67773 9.73828 3.4043C9.96484 3.13086 10.2344 2.91992 10.5469 2.77148C10.8633 2.61914 11.2129 2.54297 11.5957 2.54297C11.9082 2.54297 12.1895 2.58594 12.4395 2.67188C12.6895 2.75391 12.9023 2.88672 13.0781 3.07031C13.2578 3.25391 13.3945 3.49219 13.4883 3.78516C13.582 4.07422 13.6289 4.42773 13.6289 4.8457V9H12.5391V4.83398C12.5391 4.50195 12.4902 4.23633 12.3926 4.03711C12.2949 3.83398 12.1523 3.6875 11.9648 3.59766C11.7773 3.50391 11.5469 3.45703 11.2734 3.45703C11.0039 3.45703 10.7578 3.51367 10.5352 3.62695C10.3164 3.74023 10.127 3.89648 9.9668 4.0957C9.81055 4.29492 9.6875 4.52344 9.59766 4.78125C9.51172 5.03516 9.46875 5.30469 9.46875 5.58984ZM18.9902 7.91602V4.65234C18.9902 4.40234 18.9395 4.18555 18.8379 4.00195C18.7402 3.81445 18.5918 3.66992 18.3926 3.56836C18.1934 3.4668 17.9473 3.41602 17.6543 3.41602C17.3809 3.41602 17.1406 3.46289 16.9336 3.55664C16.7305 3.65039 16.5703 3.77344 16.4531 3.92578C16.3398 4.07812 16.2832 4.24219 16.2832 4.41797H15.1992C15.1992 4.19141 15.2578 3.9668 15.375 3.74414C15.4922 3.52148 15.6602 3.32031 15.8789 3.14062C16.1016 2.95703 16.3672 2.8125 16.6758 2.70703C16.9883 2.59766 17.3359 2.54297 17.7188 2.54297C18.1797 2.54297 18.5859 2.62109 18.9375 2.77734C19.293 2.93359 19.5703 3.16992 19.7695 3.48633C19.9727 3.79883 20.0742 4.19141 20.0742 4.66406V7.61719C20.0742 7.82812 20.0918 8.05273 20.127 8.29102C20.166 8.5293 20.2227 8.73438 20.2969 8.90625V9H19.166C19.1113 8.875 19.0684 8.70898 19.0371 8.50195C19.0059 8.29102 18.9902 8.0957 18.9902 7.91602ZM19.1777 5.15625L19.1895 5.91797H18.0938C17.7852 5.91797 17.5098 5.94336 17.2676 5.99414C17.0254 6.04102 16.8223 6.11328 16.6582 6.21094C16.4941 6.30859 16.3691 6.43164 16.2832 6.58008C16.1973 6.72461 16.1543 6.89453 16.1543 7.08984C16.1543 7.28906 16.1992 7.4707 16.2891 7.63477C16.3789 7.79883 16.5137 7.92969 16.6934 8.02734C16.877 8.12109 17.1016 8.16797 17.3672 8.16797C17.6992 8.16797 17.9922 8.09766 18.2461 7.95703C18.5 7.81641 18.7012 7.64453 18.8496 7.44141C19.002 7.23828 19.084 7.04102 19.0957 6.84961L19.5586 7.37109C19.5312 7.53516 19.457 7.7168 19.3359 7.91602C19.2148 8.11523 19.0527 8.30664 18.8496 8.49023C18.6504 8.66992 18.4121 8.82031 18.1348 8.94141C17.8613 9.05859 17.5527 9.11719 17.209 9.11719C16.7793 9.11719 16.4023 9.0332 16.0781 8.86523C15.7578 8.69727 15.5078 8.47266 15.3281 8.19141C15.1523 7.90625 15.0645 7.58789 15.0645 7.23633C15.0645 6.89648 15.1309 6.59766 15.2637 6.33984C15.3965 6.07812 15.5879 5.86133 15.8379 5.68945C16.0879 5.51367 16.3887 5.38086 16.7402 5.29102C17.0918 5.20117 17.4844 5.15625 17.918 5.15625H19.1777ZM22.8633 3.65625V9H21.7793V2.66016H22.834L22.8633 3.65625ZM24.8438 2.625L24.8379 3.63281C24.748 3.61328 24.6621 3.60156 24.5801 3.59766C24.502 3.58984 24.4121 3.58594 24.3105 3.58594C24.0605 3.58594 23.8398 3.625 23.6484 3.70312C23.457 3.78125 23.2949 3.89062 23.1621 4.03125C23.0293 4.17188 22.9238 4.33984 22.8457 4.53516C22.7715 4.72656 22.7227 4.9375 22.6992 5.16797L22.3945 5.34375C22.3945 4.96094 22.4316 4.60156 22.5059 4.26562C22.584 3.92969 22.7031 3.63281 22.8633 3.375C23.0234 3.11328 23.2266 2.91016 23.4727 2.76562C23.7227 2.61719 24.0195 2.54297 24.3633 2.54297C24.4414 2.54297 24.5312 2.55273 24.6328 2.57227C24.7344 2.58789 24.8047 2.60547 24.8438 2.625ZM28.793 2.66016V3.49219H25.3652V2.66016H28.793ZM26.5254 1.11914H27.6094V7.42969C27.6094 7.64453 27.6426 7.80664 27.709 7.91602C27.7754 8.02539 27.8613 8.09766 27.9668 8.13281C28.0723 8.16797 28.1855 8.18555 28.3066 8.18555C28.3965 8.18555 28.4902 8.17773 28.5879 8.16211C28.6895 8.14258 28.7656 8.12695 28.8164 8.11523L28.8223 9C28.7363 9.02734 28.623 9.05273 28.4824 9.07617C28.3457 9.10352 28.1797 9.11719 27.9844 9.11719C27.7188 9.11719 27.4746 9.06445 27.252 8.95898C27.0293 8.85352 26.8516 8.67773 26.7188 8.43164C26.5898 8.18164 26.5254 7.8457 26.5254 7.42383V1.11914ZM33.7559 7.31836C33.7559 7.16211 33.7207 7.01758 33.6504 6.88477C33.584 6.74805 33.4453 6.625 33.2344 6.51562C33.0273 6.40234 32.7148 6.30469 32.2969 6.22266C31.9453 6.14844 31.627 6.06055 31.3418 5.95898C31.0605 5.85742 30.8203 5.73438 30.6211 5.58984C30.4258 5.44531 30.2754 5.27539 30.1699 5.08008C30.0645 4.88477 30.0117 4.65625 30.0117 4.39453C30.0117 4.14453 30.0664 3.9082 30.1758 3.68555C30.2891 3.46289 30.4473 3.26562 30.6504 3.09375C30.8574 2.92188 31.1055 2.78711 31.3945 2.68945C31.6836 2.5918 32.0059 2.54297 32.3613 2.54297C32.8691 2.54297 33.3027 2.63281 33.6621 2.8125C34.0215 2.99219 34.2969 3.23242 34.4883 3.5332C34.6797 3.83008 34.7754 4.16016 34.7754 4.52344H33.6914C33.6914 4.34766 33.6387 4.17773 33.5332 4.01367C33.4316 3.8457 33.2812 3.70703 33.082 3.59766C32.8867 3.48828 32.6465 3.43359 32.3613 3.43359C32.0605 3.43359 31.8164 3.48047 31.6289 3.57422C31.4453 3.66406 31.3105 3.7793 31.2246 3.91992C31.1426 4.06055 31.1016 4.20898 31.1016 4.36523C31.1016 4.48242 31.1211 4.58789 31.1602 4.68164C31.2031 4.77148 31.2773 4.85547 31.3828 4.93359C31.4883 5.00781 31.6367 5.07812 31.8281 5.14453C32.0195 5.21094 32.2637 5.27734 32.5605 5.34375C33.0801 5.46094 33.5078 5.60156 33.8438 5.76562C34.1797 5.92969 34.4297 6.13086 34.5938 6.36914C34.7578 6.60742 34.8398 6.89648 34.8398 7.23633C34.8398 7.51367 34.7812 7.76758 34.6641 7.99805C34.5508 8.22852 34.3848 8.42773 34.166 8.5957C33.9512 8.75977 33.6934 8.88867 33.3926 8.98242C33.0957 9.07227 32.7617 9.11719 32.3906 9.11719C31.832 9.11719 31.3594 9.01758 30.9727 8.81836C30.5859 8.61914 30.293 8.36133 30.0938 8.04492C29.8945 7.72852 29.7949 7.39453 29.7949 7.04297H30.8848C30.9004 7.33984 30.9863 7.57617 31.1426 7.75195C31.2988 7.92383 31.4902 8.04688 31.7168 8.12109C31.9434 8.19141 32.168 8.22656 32.3906 8.22656C32.6875 8.22656 32.9355 8.1875 33.1348 8.10938C33.3379 8.03125 33.4922 7.92383 33.5977 7.78711C33.7031 7.65039 33.7559 7.49414 33.7559 7.31836Z" fill="#EBEBED"/>
</svg>
