<svg width="41" height="10" viewBox="0 0 41 10" fill="none" xmlns="http://www.w3.org/2000/svg">
<path d="M1.12109 0.46875V9H-0.00976562V0.46875H1.12109ZM4.69531 4.30664V5.23242H0.875V4.30664H4.69531ZM5.27539 0.46875V1.39453H0.875V0.46875H5.27539ZM7.63672 2.66016V9H6.54688V2.66016H7.63672ZM6.46484 0.978516C6.46484 0.802734 6.51758 0.654297 6.62305 0.533203C6.73242 0.412109 6.89258 0.351562 7.10352 0.351562C7.31055 0.351562 7.46875 0.412109 7.57812 0.533203C7.69141 0.654297 7.74805 0.802734 7.74805 0.978516C7.74805 1.14648 7.69141 1.29102 7.57812 1.41211C7.46875 1.5293 7.31055 1.58789 7.10352 1.58789C6.89258 1.58789 6.73242 1.5293 6.62305 1.41211C6.51758 1.29102 6.46484 1.14648 6.46484 0.978516ZM10.4609 4.01367V9H9.37695V2.66016H10.4023L10.4609 4.01367ZM10.2031 5.58984L9.75195 5.57227C9.75586 5.13867 9.82031 4.73828 9.94531 4.37109C10.0703 4 10.2461 3.67773 10.4727 3.4043C10.6992 3.13086 10.9688 2.91992 11.2812 2.77148C11.5977 2.61914 11.9473 2.54297 12.3301 2.54297C12.6426 2.54297 12.9238 2.58594 13.1738 2.67188C13.4238 2.75391 13.6367 2.88672 13.8125 3.07031C13.9922 3.25391 14.1289 3.49219 14.2227 3.78516C14.3164 4.07422 14.3633 4.42773 14.3633 4.8457V9H13.2734V4.83398C13.2734 4.50195 13.2246 4.23633 13.127 4.03711C13.0293 3.83398 12.8867 3.6875 12.6992 3.59766C12.5117 3.50391 12.2812 3.45703 12.0078 3.45703C11.7383 3.45703 11.4922 3.51367 11.2695 3.62695C11.0508 3.74023 10.8613 3.89648 10.7012 4.0957C10.5449 4.29492 10.4219 4.52344 10.332 4.78125C10.2461 5.03516 10.2031 5.30469 10.2031 5.58984ZM19.748 7.91602V4.65234C19.748 4.40234 19.6973 4.18555 19.5957 4.00195C19.498 3.81445 19.3496 3.66992 19.1504 3.56836C18.9512 3.4668 18.7051 3.41602 18.4121 3.41602C18.1387 3.41602 17.8984 3.46289 17.6914 3.55664C17.4883 3.65039 17.3281 3.77344 17.2109 3.92578C17.0977 4.07812 17.041 4.24219 17.041 4.41797H15.957C15.957 4.19141 16.0156 3.9668 16.1328 3.74414C16.25 3.52148 16.418 3.32031 16.6367 3.14062C16.8594 2.95703 17.125 2.8125 17.4336 2.70703C17.7461 2.59766 18.0938 2.54297 18.4766 2.54297C18.9375 2.54297 19.3438 2.62109 19.6953 2.77734C20.0508 2.93359 20.3281 3.16992 20.5273 3.48633C20.7305 3.79883 20.832 4.19141 20.832 4.66406V7.61719C20.832 7.82812 20.8496 8.05273 20.8848 8.29102C20.9238 8.5293 20.9805 8.73438 21.0547 8.90625V9H19.9238C19.8691 8.875 19.8262 8.70898 19.7949 8.50195C19.7637 8.29102 19.748 8.0957 19.748 7.91602ZM19.9355 5.15625L19.9473 5.91797H18.8516C18.543 5.91797 18.2676 5.94336 18.0254 5.99414C17.7832 6.04102 17.5801 6.11328 17.416 6.21094C17.252 6.30859 17.127 6.43164 17.041 6.58008C16.9551 6.72461 16.9121 6.89453 16.9121 7.08984C16.9121 7.28906 16.957 7.4707 17.0469 7.63477C17.1367 7.79883 17.2715 7.92969 17.4512 8.02734C17.6348 8.12109 17.8594 8.16797 18.125 8.16797C18.457 8.16797 18.75 8.09766 19.0039 7.95703C19.2578 7.81641 19.459 7.64453 19.6074 7.44141C19.7598 7.23828 19.8418 7.04102 19.8535 6.84961L20.3164 7.37109C20.2891 7.53516 20.2148 7.7168 20.0938 7.91602C19.9727 8.11523 19.8105 8.30664 19.6074 8.49023C19.4082 8.66992 19.1699 8.82031 18.8926 8.94141C18.6191 9.05859 18.3105 9.11719 17.9668 9.11719C17.5371 9.11719 17.1602 9.0332 16.8359 8.86523C16.5156 8.69727 16.2656 8.47266 16.0859 8.19141C15.9102 7.90625 15.8223 7.58789 15.8223 7.23633C15.8223 6.89648 15.8887 6.59766 16.0215 6.33984C16.1543 6.07812 16.3457 5.86133 16.5957 5.68945C16.8457 5.51367 17.1465 5.38086 17.498 5.29102C17.8496 5.20117 18.2422 5.15625 18.6758 5.15625H19.9355ZM23.6211 4.01367V9H22.5371V2.66016H23.5625L23.6211 4.01367ZM23.3633 5.58984L22.9121 5.57227C22.916 5.13867 22.9805 4.73828 23.1055 4.37109C23.2305 4 23.4062 3.67773 23.6328 3.4043C23.8594 3.13086 24.1289 2.91992 24.4414 2.77148C24.7578 2.61914 25.1074 2.54297 25.4902 2.54297C25.8027 2.54297 26.084 2.58594 26.334 2.67188C26.584 2.75391 26.7969 2.88672 26.9727 3.07031C27.1523 3.25391 27.2891 3.49219 27.3828 3.78516C27.4766 4.07422 27.5234 4.42773 27.5234 4.8457V9H26.4336V4.83398C26.4336 4.50195 26.3848 4.23633 26.2871 4.03711C26.1895 3.83398 26.0469 3.6875 25.8594 3.59766C25.6719 3.50391 25.4414 3.45703 25.168 3.45703C24.8984 3.45703 24.6523 3.51367 24.4297 3.62695C24.2109 3.74023 24.0215 3.89648 23.8613 4.0957C23.7051 4.29492 23.582 4.52344 23.4922 4.78125C23.4062 5.03516 23.3633 5.30469 23.3633 5.58984ZM31.707 8.22656C31.9648 8.22656 32.2031 8.17383 32.4219 8.06836C32.6406 7.96289 32.8203 7.81836 32.9609 7.63477C33.1016 7.44727 33.1816 7.23438 33.2012 6.99609H34.2324C34.2129 7.37109 34.0859 7.7207 33.8516 8.04492C33.6211 8.36523 33.3184 8.625 32.9434 8.82422C32.5684 9.01953 32.1562 9.11719 31.707 9.11719C31.2305 9.11719 30.8145 9.0332 30.459 8.86523C30.1074 8.69727 29.8145 8.4668 29.5801 8.17383C29.3496 7.88086 29.1758 7.54492 29.0586 7.16602C28.9453 6.7832 28.8887 6.37891 28.8887 5.95312V5.70703C28.8887 5.28125 28.9453 4.87891 29.0586 4.5C29.1758 4.11719 29.3496 3.7793 29.5801 3.48633C29.8145 3.19336 30.1074 2.96289 30.459 2.79492C30.8145 2.62695 31.2305 2.54297 31.707 2.54297C32.2031 2.54297 32.6367 2.64453 33.0078 2.84766C33.3789 3.04688 33.6699 3.32031 33.8809 3.66797C34.0957 4.01172 34.2129 4.40234 34.2324 4.83984H33.2012C33.1816 4.57812 33.1074 4.3418 32.9785 4.13086C32.8535 3.91992 32.6816 3.75195 32.4629 3.62695C32.248 3.49805 31.9961 3.43359 31.707 3.43359C31.375 3.43359 31.0957 3.5 30.8691 3.63281C30.6465 3.76172 30.4688 3.9375 30.3359 4.16016C30.207 4.37891 30.1133 4.62305 30.0547 4.89258C30 5.1582 29.9727 5.42969 29.9727 5.70703V5.95312C29.9727 6.23047 30 6.50391 30.0547 6.77344C30.1094 7.04297 30.2012 7.28711 30.3301 7.50586C30.4629 7.72461 30.6406 7.90039 30.8633 8.0332C31.0898 8.16211 31.3711 8.22656 31.707 8.22656ZM38.082 9.11719C37.6406 9.11719 37.2402 9.04297 36.8809 8.89453C36.5254 8.74219 36.2188 8.5293 35.9609 8.25586C35.707 7.98242 35.5117 7.6582 35.375 7.2832C35.2383 6.9082 35.1699 6.49805 35.1699 6.05273V5.80664C35.1699 5.29102 35.2461 4.83203 35.3984 4.42969C35.5508 4.02344 35.7578 3.67969 36.0195 3.39844C36.2812 3.11719 36.5781 2.9043 36.9102 2.75977C37.2422 2.61523 37.5859 2.54297 37.9414 2.54297C38.3945 2.54297 38.7852 2.62109 39.1133 2.77734C39.4453 2.93359 39.7168 3.15234 39.9277 3.43359C40.1387 3.71094 40.2949 4.03906 40.3965 4.41797C40.498 4.79297 40.5488 5.20312 40.5488 5.64844V6.13477H35.8145V5.25H39.4648V5.16797C39.4492 4.88672 39.3906 4.61328 39.2891 4.34766C39.1914 4.08203 39.0352 3.86328 38.8203 3.69141C38.6055 3.51953 38.3125 3.43359 37.9414 3.43359C37.6953 3.43359 37.4688 3.48633 37.2617 3.5918C37.0547 3.69336 36.877 3.8457 36.7285 4.04883C36.5801 4.25195 36.4648 4.5 36.3828 4.79297C36.3008 5.08594 36.2598 5.42383 36.2598 5.80664V6.05273C36.2598 6.35352 36.3008 6.63672 36.3828 6.90234C36.4688 7.16406 36.5918 7.39453 36.752 7.59375C36.916 7.79297 37.1133 7.94922 37.3438 8.0625C37.5781 8.17578 37.8438 8.23242 38.1406 8.23242C38.5234 8.23242 38.8477 8.1543 39.1133 7.99805C39.3789 7.8418 39.6113 7.63281 39.8105 7.37109L40.4668 7.89258C40.3301 8.09961 40.1562 8.29688 39.9453 8.48438C39.7344 8.67188 39.4746 8.82422 39.166 8.94141C38.8613 9.05859 38.5 9.11719 38.082 9.11719Z" fill="#EBEBED"/>
</svg>
