<svg width="54" height="10" viewBox="0 0 54 10" fill="none" xmlns="http://www.w3.org/2000/svg">
<path d="M5.41016 8.08008V9H0.892578V8.08008H5.41016ZM1.12109 0.46875V9H-0.00976562V0.46875H1.12109ZM4.8125 4.13672V5.05664H0.892578V4.13672H4.8125ZM5.35156 0.46875V1.39453H0.892578V0.46875H5.35156ZM10.3379 7.31836C10.3379 7.16211 10.3027 7.01758 10.2324 6.88477C10.166 6.74805 10.0273 6.625 9.81641 6.51562C9.60938 6.40234 9.29688 6.30469 8.87891 6.22266C8.52734 6.14844 8.20898 6.06055 7.92383 5.95898C7.64258 5.85742 7.40234 5.73438 7.20312 5.58984C7.00781 5.44531 6.85742 5.27539 6.75195 5.08008C6.64648 4.88477 6.59375 4.65625 6.59375 4.39453C6.59375 4.14453 6.64844 3.9082 6.75781 3.68555C6.87109 3.46289 7.0293 3.26562 7.23242 3.09375C7.43945 2.92188 7.6875 2.78711 7.97656 2.68945C8.26562 2.5918 8.58789 2.54297 8.94336 2.54297C9.45117 2.54297 9.88477 2.63281 10.2441 2.8125C10.6035 2.99219 10.8789 3.23242 11.0703 3.5332C11.2617 3.83008 11.3574 4.16016 11.3574 4.52344H10.2734C10.2734 4.34766 10.2207 4.17773 10.1152 4.01367C10.0137 3.8457 9.86328 3.70703 9.66406 3.59766C9.46875 3.48828 9.22852 3.43359 8.94336 3.43359C8.64258 3.43359 8.39844 3.48047 8.21094 3.57422C8.02734 3.66406 7.89258 3.7793 7.80664 3.91992C7.72461 4.06055 7.68359 4.20898 7.68359 4.36523C7.68359 4.48242 7.70312 4.58789 7.74219 4.68164C7.78516 4.77148 7.85938 4.85547 7.96484 4.93359C8.07031 5.00781 8.21875 5.07812 8.41016 5.14453C8.60156 5.21094 8.8457 5.27734 9.14258 5.34375C9.66211 5.46094 10.0898 5.60156 10.4258 5.76562C10.7617 5.92969 11.0117 6.13086 11.1758 6.36914C11.3398 6.60742 11.4219 6.89648 11.4219 7.23633C11.4219 7.51367 11.3633 7.76758 11.2461 7.99805C11.1328 8.22852 10.9668 8.42773 10.748 8.5957C10.5332 8.75977 10.2754 8.88867 9.97461 8.98242C9.67773 9.07227 9.34375 9.11719 8.97266 9.11719C8.41406 9.11719 7.94141 9.01758 7.55469 8.81836C7.16797 8.61914 6.875 8.36133 6.67578 8.04492C6.47656 7.72852 6.37695 7.39453 6.37695 7.04297H7.4668C7.48242 7.33984 7.56836 7.57617 7.72461 7.75195C7.88086 7.92383 8.07227 8.04688 8.29883 8.12109C8.52539 8.19141 8.75 8.22656 8.97266 8.22656C9.26953 8.22656 9.51758 8.1875 9.7168 8.10938C9.91992 8.03125 10.0742 7.92383 10.1797 7.78711C10.2852 7.65039 10.3379 7.49414 10.3379 7.31836ZM16.5371 7.31836C16.5371 7.16211 16.502 7.01758 16.4316 6.88477C16.3652 6.74805 16.2266 6.625 16.0156 6.51562C15.8086 6.40234 15.4961 6.30469 15.0781 6.22266C14.7266 6.14844 14.4082 6.06055 14.123 5.95898C13.8418 5.85742 13.6016 5.73438 13.4023 5.58984C13.207 5.44531 13.0566 5.27539 12.9512 5.08008C12.8457 4.88477 12.793 4.65625 12.793 4.39453C12.793 4.14453 12.8477 3.9082 12.957 3.68555C13.0703 3.46289 13.2285 3.26562 13.4316 3.09375C13.6387 2.92188 13.8867 2.78711 14.1758 2.68945C14.4648 2.5918 14.7871 2.54297 15.1426 2.54297C15.6504 2.54297 16.084 2.63281 16.4434 2.8125C16.8027 2.99219 17.0781 3.23242 17.2695 3.5332C17.4609 3.83008 17.5566 4.16016 17.5566 4.52344H16.4727C16.4727 4.34766 16.4199 4.17773 16.3145 4.01367C16.2129 3.8457 16.0625 3.70703 15.8633 3.59766C15.668 3.48828 15.4277 3.43359 15.1426 3.43359C14.8418 3.43359 14.5977 3.48047 14.4102 3.57422C14.2266 3.66406 14.0918 3.7793 14.0059 3.91992C13.9238 4.06055 13.8828 4.20898 13.8828 4.36523C13.8828 4.48242 13.9023 4.58789 13.9414 4.68164C13.9844 4.77148 14.0586 4.85547 14.1641 4.93359C14.2695 5.00781 14.418 5.07812 14.6094 5.14453C14.8008 5.21094 15.0449 5.27734 15.3418 5.34375C15.8613 5.46094 16.2891 5.60156 16.625 5.76562C16.9609 5.92969 17.2109 6.13086 17.375 6.36914C17.5391 6.60742 17.6211 6.89648 17.6211 7.23633C17.6211 7.51367 17.5625 7.76758 17.4453 7.99805C17.332 8.22852 17.166 8.42773 16.9473 8.5957C16.7324 8.75977 16.4746 8.88867 16.1738 8.98242C15.877 9.07227 15.543 9.11719 15.1719 9.11719C14.6133 9.11719 14.1406 9.01758 13.7539 8.81836C13.3672 8.61914 13.0742 8.36133 12.875 8.04492C12.6758 7.72852 12.5762 7.39453 12.5762 7.04297H13.666C13.6816 7.33984 13.7676 7.57617 13.9238 7.75195C14.0801 7.92383 14.2715 8.04688 14.498 8.12109C14.7246 8.19141 14.9492 8.22656 15.1719 8.22656C15.4688 8.22656 15.7168 8.1875 15.916 8.10938C16.1191 8.03125 16.2734 7.92383 16.3789 7.78711C16.4844 7.65039 16.5371 7.49414 16.5371 7.31836ZM21.6758 9.11719C21.2344 9.11719 20.834 9.04297 20.4746 8.89453C20.1191 8.74219 19.8125 8.5293 19.5547 8.25586C19.3008 7.98242 19.1055 7.6582 18.9688 7.2832C18.832 6.9082 18.7637 6.49805 18.7637 6.05273V5.80664C18.7637 5.29102 18.8398 4.83203 18.9922 4.42969C19.1445 4.02344 19.3516 3.67969 19.6133 3.39844C19.875 3.11719 20.1719 2.9043 20.5039 2.75977C20.8359 2.61523 21.1797 2.54297 21.5352 2.54297C21.9883 2.54297 22.3789 2.62109 22.707 2.77734C23.0391 2.93359 23.3105 3.15234 23.5215 3.43359C23.7324 3.71094 23.8887 4.03906 23.9902 4.41797C24.0918 4.79297 24.1426 5.20312 24.1426 5.64844V6.13477H19.4082V5.25H23.0586V5.16797C23.043 4.88672 22.9844 4.61328 22.8828 4.34766C22.7852 4.08203 22.6289 3.86328 22.4141 3.69141C22.1992 3.51953 21.9062 3.43359 21.5352 3.43359C21.2891 3.43359 21.0625 3.48633 20.8555 3.5918C20.6484 3.69336 20.4707 3.8457 20.3223 4.04883C20.1738 4.25195 20.0586 4.5 19.9766 4.79297C19.8945 5.08594 19.8535 5.42383 19.8535 5.80664V6.05273C19.8535 6.35352 19.8945 6.63672 19.9766 6.90234C20.0625 7.16406 20.1855 7.39453 20.3457 7.59375C20.5098 7.79297 20.707 7.94922 20.9375 8.0625C21.1719 8.17578 21.4375 8.23242 21.7344 8.23242C22.1172 8.23242 22.4414 8.1543 22.707 7.99805C22.9727 7.8418 23.2051 7.63281 23.4043 7.37109L24.0605 7.89258C23.9238 8.09961 23.75 8.29688 23.5391 8.48438C23.3281 8.67188 23.0684 8.82422 22.7598 8.94141C22.4551 9.05859 22.0938 9.11719 21.6758 9.11719ZM26.4922 4.01367V9H25.4082V2.66016H26.4336L26.4922 4.01367ZM26.2344 5.58984L25.7832 5.57227C25.7871 5.13867 25.8516 4.73828 25.9766 4.37109C26.1016 4 26.2773 3.67773 26.5039 3.4043C26.7305 3.13086 27 2.91992 27.3125 2.77148C27.6289 2.61914 27.9785 2.54297 28.3613 2.54297C28.6738 2.54297 28.9551 2.58594 29.2051 2.67188C29.4551 2.75391 29.668 2.88672 29.8438 3.07031C30.0234 3.25391 30.1602 3.49219 30.2539 3.78516C30.3477 4.07422 30.3945 4.42773 30.3945 4.8457V9H29.3047V4.83398C29.3047 4.50195 29.2559 4.23633 29.1582 4.03711C29.0605 3.83398 28.918 3.6875 28.7305 3.59766C28.543 3.50391 28.3125 3.45703 28.0391 3.45703C27.7695 3.45703 27.5234 3.51367 27.3008 3.62695C27.082 3.74023 26.8926 3.89648 26.7324 4.0957C26.5762 4.29492 26.4531 4.52344 26.3633 4.78125C26.2773 5.03516 26.2344 5.30469 26.2344 5.58984ZM34.6953 2.66016V3.49219H31.2676V2.66016H34.6953ZM32.4277 1.11914H33.5117V7.42969C33.5117 7.64453 33.5449 7.80664 33.6113 7.91602C33.6777 8.02539 33.7637 8.09766 33.8691 8.13281C33.9746 8.16797 34.0879 8.18555 34.209 8.18555C34.2988 8.18555 34.3926 8.17773 34.4902 8.16211C34.5918 8.14258 34.668 8.12695 34.7188 8.11523L34.7246 9C34.6387 9.02734 34.5254 9.05273 34.3848 9.07617C34.248 9.10352 34.082 9.11719 33.8867 9.11719C33.6211 9.11719 33.377 9.06445 33.1543 8.95898C32.9316 8.85352 32.7539 8.67773 32.6211 8.43164C32.4922 8.18164 32.4277 7.8457 32.4277 7.42383V1.11914ZM37.1445 2.66016V9H36.0547V2.66016H37.1445ZM35.9727 0.978516C35.9727 0.802734 36.0254 0.654297 36.1309 0.533203C36.2402 0.412109 36.4004 0.351562 36.6113 0.351562C36.8184 0.351562 36.9766 0.412109 37.0859 0.533203C37.1992 0.654297 37.2559 0.802734 37.2559 0.978516C37.2559 1.14648 37.1992 1.29102 37.0859 1.41211C36.9766 1.5293 36.8184 1.58789 36.6113 1.58789C36.4004 1.58789 36.2402 1.5293 36.1309 1.41211C36.0254 1.29102 35.9727 1.14648 35.9727 0.978516ZM42.623 7.91602V4.65234C42.623 4.40234 42.5723 4.18555 42.4707 4.00195C42.373 3.81445 42.2246 3.66992 42.0254 3.56836C41.8262 3.4668 41.5801 3.41602 41.2871 3.41602C41.0137 3.41602 40.7734 3.46289 40.5664 3.55664C40.3633 3.65039 40.2031 3.77344 40.0859 3.92578C39.9727 4.07812 39.916 4.24219 39.916 4.41797H38.832C38.832 4.19141 38.8906 3.9668 39.0078 3.74414C39.125 3.52148 39.293 3.32031 39.5117 3.14062C39.7344 2.95703 40 2.8125 40.3086 2.70703C40.6211 2.59766 40.9688 2.54297 41.3516 2.54297C41.8125 2.54297 42.2188 2.62109 42.5703 2.77734C42.9258 2.93359 43.2031 3.16992 43.4023 3.48633C43.6055 3.79883 43.707 4.19141 43.707 4.66406V7.61719C43.707 7.82812 43.7246 8.05273 43.7598 8.29102C43.7988 8.5293 43.8555 8.73438 43.9297 8.90625V9H42.7988C42.7441 8.875 42.7012 8.70898 42.6699 8.50195C42.6387 8.29102 42.623 8.0957 42.623 7.91602ZM42.8105 5.15625L42.8223 5.91797H41.7266C41.418 5.91797 41.1426 5.94336 40.9004 5.99414C40.6582 6.04102 40.4551 6.11328 40.291 6.21094C40.127 6.30859 40.002 6.43164 39.916 6.58008C39.8301 6.72461 39.7871 6.89453 39.7871 7.08984C39.7871 7.28906 39.832 7.4707 39.9219 7.63477C40.0117 7.79883 40.1465 7.92969 40.3262 8.02734C40.5098 8.12109 40.7344 8.16797 41 8.16797C41.332 8.16797 41.625 8.09766 41.8789 7.95703C42.1328 7.81641 42.334 7.64453 42.4824 7.44141C42.6348 7.23828 42.7168 7.04102 42.7285 6.84961L43.1914 7.37109C43.1641 7.53516 43.0898 7.7168 42.9688 7.91602C42.8477 8.11523 42.6855 8.30664 42.4824 8.49023C42.2832 8.66992 42.0449 8.82031 41.7676 8.94141C41.4941 9.05859 41.1855 9.11719 40.8418 9.11719C40.4121 9.11719 40.0352 9.0332 39.7109 8.86523C39.3906 8.69727 39.1406 8.47266 38.9609 8.19141C38.7852 7.90625 38.6973 7.58789 38.6973 7.23633C38.6973 6.89648 38.7637 6.59766 38.8965 6.33984C39.0293 6.07812 39.2207 5.86133 39.4707 5.68945C39.7207 5.51367 40.0215 5.38086 40.373 5.29102C40.7246 5.20117 41.1172 5.15625 41.5508 5.15625H42.8105ZM46.5898 0V9H45.5V0H46.5898ZM52.0215 7.31836C52.0215 7.16211 51.9863 7.01758 51.916 6.88477C51.8496 6.74805 51.7109 6.625 51.5 6.51562C51.293 6.40234 50.9805 6.30469 50.5625 6.22266C50.2109 6.14844 49.8926 6.06055 49.6074 5.95898C49.3262 5.85742 49.0859 5.73438 48.8867 5.58984C48.6914 5.44531 48.541 5.27539 48.4355 5.08008C48.3301 4.88477 48.2773 4.65625 48.2773 4.39453C48.2773 4.14453 48.332 3.9082 48.4414 3.68555C48.5547 3.46289 48.7129 3.26562 48.916 3.09375C49.123 2.92188 49.3711 2.78711 49.6602 2.68945C49.9492 2.5918 50.2715 2.54297 50.627 2.54297C51.1348 2.54297 51.5684 2.63281 51.9277 2.8125C52.2871 2.99219 52.5625 3.23242 52.7539 3.5332C52.9453 3.83008 53.041 4.16016 53.041 4.52344H51.957C51.957 4.34766 51.9043 4.17773 51.7988 4.01367C51.6973 3.8457 51.5469 3.70703 51.3477 3.59766C51.1523 3.48828 50.9121 3.43359 50.627 3.43359C50.3262 3.43359 50.082 3.48047 49.8945 3.57422C49.7109 3.66406 49.5762 3.7793 49.4902 3.91992C49.4082 4.06055 49.3672 4.20898 49.3672 4.36523C49.3672 4.48242 49.3867 4.58789 49.4258 4.68164C49.4688 4.77148 49.543 4.85547 49.6484 4.93359C49.7539 5.00781 49.9023 5.07812 50.0938 5.14453C50.2852 5.21094 50.5293 5.27734 50.8262 5.34375C51.3457 5.46094 51.7734 5.60156 52.1094 5.76562C52.4453 5.92969 52.6953 6.13086 52.8594 6.36914C53.0234 6.60742 53.1055 6.89648 53.1055 7.23633C53.1055 7.51367 53.0469 7.76758 52.9297 7.99805C52.8164 8.22852 52.6504 8.42773 52.4316 8.5957C52.2168 8.75977 51.959 8.88867 51.6582 8.98242C51.3613 9.07227 51.0273 9.11719 50.6562 9.11719C50.0977 9.11719 49.625 9.01758 49.2383 8.81836C48.8516 8.61914 48.5586 8.36133 48.3594 8.04492C48.1602 7.72852 48.0605 7.39453 48.0605 7.04297H49.1504C49.166 7.33984 49.252 7.57617 49.4082 7.75195C49.5645 7.92383 49.7559 8.04688 49.9824 8.12109C50.209 8.19141 50.4336 8.22656 50.6562 8.22656C50.9531 8.22656 51.2012 8.1875 51.4004 8.10938C51.6035 8.03125 51.7578 7.92383 51.8633 7.78711C51.9688 7.65039 52.0215 7.49414 52.0215 7.31836Z" fill="#EBEBED"/>
</svg>
