<svg width="75" height="11" viewBox="0 0 75 11" fill="none" xmlns="http://www.w3.org/2000/svg">
<path d="M1.12109 1.46875V10H-0.00976562V1.46875H1.12109ZM4.69531 5.30664V6.23242H0.875V5.30664H4.69531ZM5.27539 1.46875V2.39453H0.875V1.46875H5.27539ZM7.63672 3.66016V10H6.54688V3.66016H7.63672ZM6.46484 1.97852C6.46484 1.80273 6.51758 1.6543 6.62305 1.5332C6.73242 1.41211 6.89258 1.35156 7.10352 1.35156C7.31055 1.35156 7.46875 1.41211 7.57812 1.5332C7.69141 1.6543 7.74805 1.80273 7.74805 1.97852C7.74805 2.14648 7.69141 2.29102 7.57812 2.41211C7.46875 2.5293 7.31055 2.58789 7.10352 2.58789C6.89258 2.58789 6.73242 2.5293 6.62305 2.41211C6.51758 2.29102 6.46484 2.14648 6.46484 1.97852ZM10.5547 1V10H9.46484V1H10.5547ZM14.9258 10.1172C14.4844 10.1172 14.084 10.043 13.7246 9.89453C13.3691 9.74219 13.0625 9.5293 12.8047 9.25586C12.5508 8.98242 12.3555 8.6582 12.2188 8.2832C12.082 7.9082 12.0137 7.49805 12.0137 7.05273V6.80664C12.0137 6.29102 12.0898 5.83203 12.2422 5.42969C12.3945 5.02344 12.6016 4.67969 12.8633 4.39844C13.125 4.11719 13.4219 3.9043 13.7539 3.75977C14.0859 3.61523 14.4297 3.54297 14.7852 3.54297C15.2383 3.54297 15.6289 3.62109 15.957 3.77734C16.2891 3.93359 16.5605 4.15234 16.7715 4.43359C16.9824 4.71094 17.1387 5.03906 17.2402 5.41797C17.3418 5.79297 17.3926 6.20312 17.3926 6.64844V7.13477H12.6582V6.25H16.3086V6.16797C16.293 5.88672 16.2344 5.61328 16.1328 5.34766C16.0352 5.08203 15.8789 4.86328 15.6641 4.69141C15.4492 4.51953 15.1562 4.43359 14.7852 4.43359C14.5391 4.43359 14.3125 4.48633 14.1055 4.5918C13.8984 4.69336 13.7207 4.8457 13.5723 5.04883C13.4238 5.25195 13.3086 5.5 13.2266 5.79297C13.1445 6.08594 13.1035 6.42383 13.1035 6.80664V7.05273C13.1035 7.35352 13.1445 7.63672 13.2266 7.90234C13.3125 8.16406 13.4355 8.39453 13.5957 8.59375C13.7598 8.79297 13.957 8.94922 14.1875 9.0625C14.4219 9.17578 14.6875 9.23242 14.9844 9.23242C15.3672 9.23242 15.6914 9.1543 15.957 8.99805C16.2227 8.8418 16.4551 8.63281 16.6543 8.37109L17.3105 8.89258C17.1738 9.09961 17 9.29688 16.7891 9.48438C16.5781 9.67188 16.3184 9.82422 16.0098 9.94141C15.7051 10.0586 15.3438 10.1172 14.9258 10.1172ZM22.3496 8.31836C22.3496 8.16211 22.3145 8.01758 22.2441 7.88477C22.1777 7.74805 22.0391 7.625 21.8281 7.51562C21.6211 7.40234 21.3086 7.30469 20.8906 7.22266C20.5391 7.14844 20.2207 7.06055 19.9355 6.95898C19.6543 6.85742 19.4141 6.73438 19.2148 6.58984C19.0195 6.44531 18.8691 6.27539 18.7637 6.08008C18.6582 5.88477 18.6055 5.65625 18.6055 5.39453C18.6055 5.14453 18.6602 4.9082 18.7695 4.68555C18.8828 4.46289 19.041 4.26562 19.2441 4.09375C19.4512 3.92188 19.6992 3.78711 19.9883 3.68945C20.2773 3.5918 20.5996 3.54297 20.9551 3.54297C21.4629 3.54297 21.8965 3.63281 22.2559 3.8125C22.6152 3.99219 22.8906 4.23242 23.082 4.5332C23.2734 4.83008 23.3691 5.16016 23.3691 5.52344H22.2852C22.2852 5.34766 22.2324 5.17773 22.127 5.01367C22.0254 4.8457 21.875 4.70703 21.6758 4.59766C21.4805 4.48828 21.2402 4.43359 20.9551 4.43359C20.6543 4.43359 20.4102 4.48047 20.2227 4.57422C20.0391 4.66406 19.9043 4.7793 19.8184 4.91992C19.7363 5.06055 19.6953 5.20898 19.6953 5.36523C19.6953 5.48242 19.7148 5.58789 19.7539 5.68164C19.7969 5.77148 19.8711 5.85547 19.9766 5.93359C20.082 6.00781 20.2305 6.07812 20.4219 6.14453C20.6133 6.21094 20.8574 6.27734 21.1543 6.34375C21.6738 6.46094 22.1016 6.60156 22.4375 6.76562C22.7734 6.92969 23.0234 7.13086 23.1875 7.36914C23.3516 7.60742 23.4336 7.89648 23.4336 8.23633C23.4336 8.51367 23.375 8.76758 23.2578 8.99805C23.1445 9.22852 22.9785 9.42773 22.7598 9.5957C22.5449 9.75977 22.2871 9.88867 21.9863 9.98242C21.6895 10.0723 21.3555 10.1172 20.9844 10.1172C20.4258 10.1172 19.9531 10.0176 19.5664 9.81836C19.1797 9.61914 18.8867 9.36133 18.6875 9.04492C18.4883 8.72852 18.3887 8.39453 18.3887 8.04297H19.4785C19.4941 8.33984 19.5801 8.57617 19.7363 8.75195C19.8926 8.92383 20.084 9.04688 20.3105 9.12109C20.5371 9.19141 20.7617 9.22656 20.9844 9.22656C21.2812 9.22656 21.5293 9.1875 21.7285 9.10938C21.9316 9.03125 22.0859 8.92383 22.1914 8.78711C22.2969 8.65039 22.3496 8.49414 22.3496 8.31836ZM29.4102 5.26562L30.6875 4.35742C30.9336 4.18945 31.123 4.02148 31.2559 3.85352C31.3926 3.68164 31.4609 3.44727 31.4609 3.15039C31.4609 2.91992 31.3711 2.71094 31.1914 2.52344C31.0117 2.33203 30.7578 2.23633 30.4297 2.23633C30.2031 2.23633 30.0117 2.28906 29.8555 2.39453C29.6992 2.5 29.582 2.64062 29.5039 2.81641C29.4258 2.98828 29.3867 3.17773 29.3867 3.38477C29.3867 3.56055 29.4297 3.74219 29.5156 3.92969C29.6016 4.11719 29.7207 4.3125 29.873 4.51562C30.0254 4.71875 30.1992 4.93359 30.3945 5.16016L34.4316 10H33.1309L29.8203 6.03906C29.5273 5.69531 29.2656 5.38086 29.0352 5.0957C28.8047 4.80664 28.623 4.52734 28.4902 4.25781C28.3613 3.98828 28.2969 3.70898 28.2969 3.41992C28.2969 2.97461 28.3848 2.59961 28.5605 2.29492C28.7402 1.98633 28.9902 1.75195 29.3105 1.5918C29.6309 1.43164 30.0059 1.35156 30.4355 1.35156C30.8535 1.35156 31.2129 1.43555 31.5137 1.60352C31.8184 1.76758 32.0527 1.98633 32.2168 2.25977C32.3809 2.5293 32.4629 2.82617 32.4629 3.15039C32.4629 3.42383 32.4141 3.66992 32.3164 3.88867C32.2188 4.10352 32.082 4.30078 31.9062 4.48047C31.7344 4.66016 31.5332 4.83594 31.3027 5.00781L29.6094 6.26758C29.3281 6.47461 29.123 6.67188 28.9941 6.85938C28.8652 7.04688 28.7812 7.21289 28.7422 7.35742C28.707 7.50195 28.6895 7.61719 28.6895 7.70312C28.6895 7.98047 28.75 8.23438 28.8711 8.46484C28.9922 8.69531 29.1758 8.88086 29.4219 9.02148C29.6719 9.1582 29.9844 9.22656 30.3594 9.22656C30.6875 9.22656 31.0059 9.15234 31.3145 9.00391C31.627 8.85156 31.9062 8.63672 32.1523 8.35938C32.3984 8.07812 32.5938 7.74414 32.7383 7.35742C32.8867 6.9668 32.9609 6.53516 32.9609 6.0625H33.9336C33.9336 6.44922 33.8965 6.81445 33.8223 7.1582C33.748 7.50195 33.6328 7.82227 33.4766 8.11914C33.3242 8.41211 33.1289 8.67969 32.8906 8.92188C32.8555 8.95703 32.8281 8.99805 32.8086 9.04492C32.7891 9.0918 32.7617 9.13281 32.7266 9.16797C32.4336 9.48438 32.0723 9.72266 31.6426 9.88281C31.2168 10.0391 30.7891 10.1172 30.3594 10.1172C29.793 10.1172 29.3027 10.0137 28.8887 9.80664C28.4785 9.59961 28.1621 9.31445 27.9395 8.95117C27.7168 8.58789 27.6055 8.17188 27.6055 7.70312C27.6055 7.34375 27.6816 7.02734 27.834 6.75391C27.9902 6.48047 28.2031 6.22461 28.4727 5.98633C28.7461 5.74805 29.0586 5.50781 29.4102 5.26562ZM39.8926 10H38.8086V2.99219C38.8086 2.53516 38.8906 2.15039 39.0547 1.83789C39.2227 1.52148 39.4629 1.2832 39.7754 1.12305C40.0879 0.958984 40.459 0.876953 40.8887 0.876953C41.0137 0.876953 41.1387 0.884766 41.2637 0.900391C41.3926 0.916016 41.5176 0.939453 41.6387 0.970703L41.5801 1.85547C41.498 1.83594 41.4043 1.82227 41.2988 1.81445C41.1973 1.80664 41.0957 1.80273 40.9941 1.80273C40.7637 1.80273 40.5645 1.84961 40.3965 1.94336C40.2324 2.0332 40.1074 2.16602 40.0215 2.3418C39.9355 2.51758 39.8926 2.73438 39.8926 2.99219V10ZM41.2402 3.66016V4.49219H37.8066V3.66016H41.2402ZM42.1602 6.90039V6.76562C42.1602 6.30859 42.2266 5.88477 42.3594 5.49414C42.4922 5.09961 42.6836 4.75781 42.9336 4.46875C43.1836 4.17578 43.4863 3.94922 43.8418 3.78906C44.1973 3.625 44.5957 3.54297 45.0371 3.54297C45.4824 3.54297 45.8828 3.625 46.2383 3.78906C46.5977 3.94922 46.9023 4.17578 47.1523 4.46875C47.4062 4.75781 47.5996 5.09961 47.7324 5.49414C47.8652 5.88477 47.9316 6.30859 47.9316 6.76562V6.90039C47.9316 7.35742 47.8652 7.78125 47.7324 8.17188C47.5996 8.5625 47.4062 8.9043 47.1523 9.19727C46.9023 9.48633 46.5996 9.71289 46.2441 9.87695C45.8926 10.0371 45.4941 10.1172 45.0488 10.1172C44.6035 10.1172 44.2031 10.0371 43.8477 9.87695C43.4922 9.71289 43.1875 9.48633 42.9336 9.19727C42.6836 8.9043 42.4922 8.5625 42.3594 8.17188C42.2266 7.78125 42.1602 7.35742 42.1602 6.90039ZM43.2441 6.76562V6.90039C43.2441 7.2168 43.2812 7.51562 43.3555 7.79688C43.4297 8.07422 43.541 8.32031 43.6895 8.53516C43.8418 8.75 44.0312 8.91992 44.2578 9.04492C44.4844 9.16602 44.748 9.22656 45.0488 9.22656C45.3457 9.22656 45.6055 9.16602 45.8281 9.04492C46.0547 8.91992 46.2422 8.75 46.3906 8.53516C46.5391 8.32031 46.6504 8.07422 46.7246 7.79688C46.8027 7.51562 46.8418 7.2168 46.8418 6.90039V6.76562C46.8418 6.45312 46.8027 6.1582 46.7246 5.88086C46.6504 5.59961 46.5371 5.35156 46.3848 5.13672C46.2363 4.91797 46.0488 4.74609 45.8223 4.62109C45.5996 4.49609 45.3379 4.43359 45.0371 4.43359C44.7402 4.43359 44.4785 4.49609 44.252 4.62109C44.0293 4.74609 43.8418 4.91797 43.6895 5.13672C43.541 5.35156 43.4297 5.59961 43.3555 5.88086C43.2812 6.1582 43.2441 6.45312 43.2441 6.76562ZM50.4688 1V10H49.3789V1H50.4688ZM56.2051 8.76953V1H57.2949V10H56.2988L56.2051 8.76953ZM51.9395 6.90039V6.77734C51.9395 6.29297 51.998 5.85352 52.1152 5.45898C52.2363 5.06055 52.4062 4.71875 52.625 4.43359C52.8477 4.14844 53.1113 3.92969 53.416 3.77734C53.7246 3.62109 54.0684 3.54297 54.4473 3.54297C54.8457 3.54297 55.1934 3.61328 55.4902 3.75391C55.791 3.89062 56.0449 4.0918 56.252 4.35742C56.4629 4.61914 56.6289 4.93555 56.75 5.30664C56.8711 5.67773 56.9551 6.09766 57.002 6.56641V7.10547C56.959 7.57031 56.875 7.98828 56.75 8.35938C56.6289 8.73047 56.4629 9.04688 56.252 9.30859C56.0449 9.57031 55.791 9.77148 55.4902 9.91211C55.1895 10.0488 54.8379 10.1172 54.4355 10.1172C54.0645 10.1172 53.7246 10.0371 53.416 9.87695C53.1113 9.7168 52.8477 9.49219 52.625 9.20312C52.4062 8.91406 52.2363 8.57422 52.1152 8.18359C51.998 7.78906 51.9395 7.36133 51.9395 6.90039ZM53.0293 6.77734V6.90039C53.0293 7.2168 53.0605 7.51367 53.123 7.79102C53.1895 8.06836 53.291 8.3125 53.4277 8.52344C53.5645 8.73438 53.7383 8.90039 53.9492 9.02148C54.1602 9.13867 54.4121 9.19727 54.7051 9.19727C55.0645 9.19727 55.3594 9.12109 55.5898 8.96875C55.8242 8.81641 56.0117 8.61523 56.1523 8.36523C56.293 8.11523 56.4023 7.84375 56.4805 7.55078V6.13867C56.4336 5.92383 56.3652 5.7168 56.2754 5.51758C56.1895 5.31445 56.0762 5.13477 55.9355 4.97852C55.7988 4.81836 55.6289 4.69141 55.4258 4.59766C55.2266 4.50391 54.9902 4.45703 54.7168 4.45703C54.4199 4.45703 54.1641 4.51953 53.9492 4.64453C53.7383 4.76562 53.5645 4.93359 53.4277 5.14844C53.291 5.35938 53.1895 5.60547 53.123 5.88672C53.0605 6.16406 53.0293 6.46094 53.0293 6.77734ZM61.6133 10.1172C61.1719 10.1172 60.7715 10.043 60.4121 9.89453C60.0566 9.74219 59.75 9.5293 59.4922 9.25586C59.2383 8.98242 59.043 8.6582 58.9062 8.2832C58.7695 7.9082 58.7012 7.49805 58.7012 7.05273V6.80664C58.7012 6.29102 58.7773 5.83203 58.9297 5.42969C59.082 5.02344 59.2891 4.67969 59.5508 4.39844C59.8125 4.11719 60.1094 3.9043 60.4414 3.75977C60.7734 3.61523 61.1172 3.54297 61.4727 3.54297C61.9258 3.54297 62.3164 3.62109 62.6445 3.77734C62.9766 3.93359 63.248 4.15234 63.459 4.43359C63.6699 4.71094 63.8262 5.03906 63.9277 5.41797C64.0293 5.79297 64.0801 6.20312 64.0801 6.64844V7.13477H59.3457V6.25H62.9961V6.16797C62.9805 5.88672 62.9219 5.61328 62.8203 5.34766C62.7227 5.08203 62.5664 4.86328 62.3516 4.69141C62.1367 4.51953 61.8438 4.43359 61.4727 4.43359C61.2266 4.43359 61 4.48633 60.793 4.5918C60.5859 4.69336 60.4082 4.8457 60.2598 5.04883C60.1113 5.25195 59.9961 5.5 59.9141 5.79297C59.832 6.08594 59.791 6.42383 59.791 6.80664V7.05273C59.791 7.35352 59.832 7.63672 59.9141 7.90234C60 8.16406 60.123 8.39453 60.2832 8.59375C60.4473 8.79297 60.6445 8.94922 60.875 9.0625C61.1094 9.17578 61.375 9.23242 61.6719 9.23242C62.0547 9.23242 62.3789 9.1543 62.6445 8.99805C62.9102 8.8418 63.1426 8.63281 63.3418 8.37109L63.998 8.89258C63.8613 9.09961 63.6875 9.29688 63.4766 9.48438C63.2656 9.67188 63.0059 9.82422 62.6973 9.94141C62.3926 10.0586 62.0312 10.1172 61.6133 10.1172ZM66.4297 4.65625V10H65.3457V3.66016H66.4004L66.4297 4.65625ZM68.4102 3.625L68.4043 4.63281C68.3145 4.61328 68.2285 4.60156 68.1465 4.59766C68.0684 4.58984 67.9785 4.58594 67.877 4.58594C67.627 4.58594 67.4062 4.625 67.2148 4.70312C67.0234 4.78125 66.8613 4.89062 66.7285 5.03125C66.5957 5.17188 66.4902 5.33984 66.4121 5.53516C66.3379 5.72656 66.2891 5.9375 66.2656 6.16797L65.9609 6.34375C65.9609 5.96094 65.998 5.60156 66.0723 5.26562C66.1504 4.92969 66.2695 4.63281 66.4297 4.375C66.5898 4.11328 66.793 3.91016 67.0391 3.76562C67.2891 3.61719 67.5859 3.54297 67.9297 3.54297C68.0078 3.54297 68.0977 3.55273 68.1992 3.57227C68.3008 3.58789 68.3711 3.60547 68.4102 3.625ZM73.1035 8.31836C73.1035 8.16211 73.0684 8.01758 72.998 7.88477C72.9316 7.74805 72.793 7.625 72.582 7.51562C72.375 7.40234 72.0625 7.30469 71.6445 7.22266C71.293 7.14844 70.9746 7.06055 70.6895 6.95898C70.4082 6.85742 70.168 6.73438 69.9688 6.58984C69.7734 6.44531 69.623 6.27539 69.5176 6.08008C69.4121 5.88477 69.3594 5.65625 69.3594 5.39453C69.3594 5.14453 69.4141 4.9082 69.5234 4.68555C69.6367 4.46289 69.7949 4.26562 69.998 4.09375C70.2051 3.92188 70.4531 3.78711 70.7422 3.68945C71.0312 3.5918 71.3535 3.54297 71.709 3.54297C72.2168 3.54297 72.6504 3.63281 73.0098 3.8125C73.3691 3.99219 73.6445 4.23242 73.8359 4.5332C74.0273 4.83008 74.123 5.16016 74.123 5.52344H73.0391C73.0391 5.34766 72.9863 5.17773 72.8809 5.01367C72.7793 4.8457 72.6289 4.70703 72.4297 4.59766C72.2344 4.48828 71.9941 4.43359 71.709 4.43359C71.4082 4.43359 71.1641 4.48047 70.9766 4.57422C70.793 4.66406 70.6582 4.7793 70.5723 4.91992C70.4902 5.06055 70.4492 5.20898 70.4492 5.36523C70.4492 5.48242 70.4688 5.58789 70.5078 5.68164C70.5508 5.77148 70.625 5.85547 70.7305 5.93359C70.8359 6.00781 70.9844 6.07812 71.1758 6.14453C71.3672 6.21094 71.6113 6.27734 71.9082 6.34375C72.4277 6.46094 72.8555 6.60156 73.1914 6.76562C73.5273 6.92969 73.7773 7.13086 73.9414 7.36914C74.1055 7.60742 74.1875 7.89648 74.1875 8.23633C74.1875 8.51367 74.1289 8.76758 74.0117 8.99805C73.8984 9.22852 73.7324 9.42773 73.5137 9.5957C73.2988 9.75977 73.041 9.88867 72.7402 9.98242C72.4434 10.0723 72.1094 10.1172 71.7383 10.1172C71.1797 10.1172 70.707 10.0176 70.3203 9.81836C69.9336 9.61914 69.6406 9.36133 69.4414 9.04492C69.2422 8.72852 69.1426 8.39453 69.1426 8.04297H70.2324C70.248 8.33984 70.334 8.57617 70.4902 8.75195C70.6465 8.92383 70.8379 9.04688 71.0645 9.12109C71.291 9.19141 71.5156 9.22656 71.7383 9.22656C72.0352 9.22656 72.2832 9.1875 72.4824 9.10938C72.6855 9.03125 72.8398 8.92383 72.9453 8.78711C73.0508 8.65039 73.1035 8.49414 73.1035 8.31836Z" fill="#EBEBED"/>
</svg>
