<svg width="38" height="10" viewBox="0 0 38 10" fill="none" xmlns="http://www.w3.org/2000/svg">
<path d="M4.14844 1.22461L1.32422 9H0.169922L3.42188 0.46875H4.16602L4.14844 1.22461ZM6.51562 9L3.68555 1.22461L3.66797 0.46875H4.41211L7.67578 9H6.51562ZM6.36914 5.8418V6.76758H1.57617V5.8418H6.36914ZM9.73828 3.65625V9H8.6543V2.66016H9.70898L9.73828 3.65625ZM11.7188 2.625L11.7129 3.63281C11.623 3.61328 11.5371 3.60156 11.4551 3.59766C11.377 3.58984 11.2871 3.58594 11.1855 3.58594C10.9355 3.58594 10.7148 3.625 10.5234 3.70312C10.332 3.78125 10.1699 3.89062 10.0371 4.03125C9.9043 4.17188 9.79883 4.33984 9.7207 4.53516C9.64648 4.72656 9.59766 4.9375 9.57422 5.16797L9.26953 5.34375C9.26953 4.96094 9.30664 4.60156 9.38086 4.26562C9.45898 3.92969 9.57812 3.63281 9.73828 3.375C9.89844 3.11328 10.1016 2.91016 10.3477 2.76562C10.5977 2.61719 10.8945 2.54297 11.2383 2.54297C11.3164 2.54297 11.4062 2.55273 11.5078 2.57227C11.6094 2.58789 11.6797 2.60547 11.7188 2.625ZM13.8047 3.65625V9H12.7207V2.66016H13.7754L13.8047 3.65625ZM15.7852 2.625L15.7793 3.63281C15.6895 3.61328 15.6035 3.60156 15.5215 3.59766C15.4434 3.58984 15.3535 3.58594 15.252 3.58594C15.002 3.58594 14.7812 3.625 14.5898 3.70312C14.3984 3.78125 14.2363 3.89062 14.1035 4.03125C13.9707 4.17188 13.8652 4.33984 13.7871 4.53516C13.7129 4.72656 13.6641 4.9375 13.6406 5.16797L13.3359 5.34375C13.3359 4.96094 13.373 4.60156 13.4473 4.26562C13.5254 3.92969 13.6445 3.63281 13.8047 3.375C13.9648 3.11328 14.168 2.91016 14.4141 2.76562C14.6641 2.61719 14.9609 2.54297 15.3047 2.54297C15.3828 2.54297 15.4727 2.55273 15.5742 2.57227C15.6758 2.58789 15.7461 2.60547 15.7852 2.625ZM16.3828 5.90039V5.76562C16.3828 5.30859 16.4492 4.88477 16.582 4.49414C16.7148 4.09961 16.9062 3.75781 17.1562 3.46875C17.4062 3.17578 17.709 2.94922 18.0645 2.78906C18.4199 2.625 18.8184 2.54297 19.2598 2.54297C19.7051 2.54297 20.1055 2.625 20.4609 2.78906C20.8203 2.94922 21.125 3.17578 21.375 3.46875C21.6289 3.75781 21.8223 4.09961 21.9551 4.49414C22.0879 4.88477 22.1543 5.30859 22.1543 5.76562V5.90039C22.1543 6.35742 22.0879 6.78125 21.9551 7.17188C21.8223 7.5625 21.6289 7.9043 21.375 8.19727C21.125 8.48633 20.8223 8.71289 20.4668 8.87695C20.1152 9.03711 19.7168 9.11719 19.2715 9.11719C18.8262 9.11719 18.4258 9.03711 18.0703 8.87695C17.7148 8.71289 17.4102 8.48633 17.1562 8.19727C16.9062 7.9043 16.7148 7.5625 16.582 7.17188C16.4492 6.78125 16.3828 6.35742 16.3828 5.90039ZM17.4668 5.76562V5.90039C17.4668 6.2168 17.5039 6.51562 17.5781 6.79688C17.6523 7.07422 17.7637 7.32031 17.9121 7.53516C18.0645 7.75 18.2539 7.91992 18.4805 8.04492C18.707 8.16602 18.9707 8.22656 19.2715 8.22656C19.5684 8.22656 19.8281 8.16602 20.0508 8.04492C20.2773 7.91992 20.4648 7.75 20.6133 7.53516C20.7617 7.32031 20.873 7.07422 20.9473 6.79688C21.0254 6.51562 21.0645 6.2168 21.0645 5.90039V5.76562C21.0645 5.45312 21.0254 5.1582 20.9473 4.88086C20.873 4.59961 20.7598 4.35156 20.6074 4.13672C20.459 3.91797 20.2715 3.74609 20.0449 3.62109C19.8223 3.49609 19.5605 3.43359 19.2598 3.43359C18.9629 3.43359 18.7012 3.49609 18.4746 3.62109C18.252 3.74609 18.0645 3.91797 17.9121 4.13672C17.7637 4.35156 17.6523 4.59961 17.5781 4.88086C17.5039 5.1582 17.4668 5.45312 17.4668 5.76562ZM25.1191 7.875L26.748 2.66016H27.4629L27.3223 3.69727L25.6641 9H24.9668L25.1191 7.875ZM24.0234 2.66016L25.4121 7.93359L25.5117 9H24.7793L22.9395 2.66016H24.0234ZM29.0215 7.89258L30.3457 2.66016H31.4238L29.584 9H28.8574L29.0215 7.89258ZM27.6211 2.66016L29.2148 7.78711L29.3965 9H28.7051L27 3.68555L26.8594 2.66016H27.6211ZM36.2285 7.31836C36.2285 7.16211 36.1934 7.01758 36.123 6.88477C36.0566 6.74805 35.918 6.625 35.707 6.51562C35.5 6.40234 35.1875 6.30469 34.7695 6.22266C34.418 6.14844 34.0996 6.06055 33.8145 5.95898C33.5332 5.85742 33.293 5.73438 33.0938 5.58984C32.8984 5.44531 32.748 5.27539 32.6426 5.08008C32.5371 4.88477 32.4844 4.65625 32.4844 4.39453C32.4844 4.14453 32.5391 3.9082 32.6484 3.68555C32.7617 3.46289 32.9199 3.26562 33.123 3.09375C33.3301 2.92188 33.5781 2.78711 33.8672 2.68945C34.1562 2.5918 34.4785 2.54297 34.834 2.54297C35.3418 2.54297 35.7754 2.63281 36.1348 2.8125C36.4941 2.99219 36.7695 3.23242 36.9609 3.5332C37.1523 3.83008 37.248 4.16016 37.248 4.52344H36.1641C36.1641 4.34766 36.1113 4.17773 36.0059 4.01367C35.9043 3.8457 35.7539 3.70703 35.5547 3.59766C35.3594 3.48828 35.1191 3.43359 34.834 3.43359C34.5332 3.43359 34.2891 3.48047 34.1016 3.57422C33.918 3.66406 33.7832 3.7793 33.6973 3.91992C33.6152 4.06055 33.5742 4.20898 33.5742 4.36523C33.5742 4.48242 33.5938 4.58789 33.6328 4.68164C33.6758 4.77148 33.75 4.85547 33.8555 4.93359C33.9609 5.00781 34.1094 5.07812 34.3008 5.14453C34.4922 5.21094 34.7363 5.27734 35.0332 5.34375C35.5527 5.46094 35.9805 5.60156 36.3164 5.76562C36.6523 5.92969 36.9023 6.13086 37.0664 6.36914C37.2305 6.60742 37.3125 6.89648 37.3125 7.23633C37.3125 7.51367 37.2539 7.76758 37.1367 7.99805C37.0234 8.22852 36.8574 8.42773 36.6387 8.5957C36.4238 8.75977 36.166 8.88867 35.8652 8.98242C35.5684 9.07227 35.2344 9.11719 34.8633 9.11719C34.3047 9.11719 33.832 9.01758 33.4453 8.81836C33.0586 8.61914 32.7656 8.36133 32.5664 8.04492C32.3672 7.72852 32.2676 7.39453 32.2676 7.04297H33.3574C33.373 7.33984 33.459 7.57617 33.6152 7.75195C33.7715 7.92383 33.9629 8.04688 34.1895 8.12109C34.416 8.19141 34.6406 8.22656 34.8633 8.22656C35.1602 8.22656 35.4082 8.1875 35.6074 8.10938C35.8105 8.03125 35.9648 7.92383 36.0703 7.78711C36.1758 7.65039 36.2285 7.49414 36.2285 7.31836Z" fill="#EBEBED"/>
</svg>
