<svg width="49" height="10" viewBox="0 0 49 10" fill="none" xmlns="http://www.w3.org/2000/svg">
<path d="M3.03125 5.00977H0.869141L0.857422 4.10156H2.82031C3.14453 4.10156 3.42773 4.04688 3.66992 3.9375C3.91211 3.82812 4.09961 3.67188 4.23242 3.46875C4.36914 3.26172 4.4375 3.01562 4.4375 2.73047C4.4375 2.41797 4.37695 2.16406 4.25586 1.96875C4.13867 1.76953 3.95703 1.625 3.71094 1.53516C3.46875 1.44141 3.16016 1.39453 2.78516 1.39453H1.12109V9H-0.00976562V0.46875H2.78516C3.22266 0.46875 3.61328 0.513672 3.95703 0.603516C4.30078 0.689453 4.5918 0.826172 4.83008 1.01367C5.07227 1.19727 5.25586 1.43164 5.38086 1.7168C5.50586 2.00195 5.56836 2.34375 5.56836 2.74219C5.56836 3.09375 5.47852 3.41211 5.29883 3.69727C5.11914 3.97852 4.86914 4.20898 4.54883 4.38867C4.23242 4.56836 3.86133 4.68359 3.43555 4.73438L3.03125 5.00977ZM2.97852 9H0.423828L1.0625 8.08008H2.97852C3.33789 8.08008 3.64258 8.01758 3.89258 7.89258C4.14648 7.76758 4.33984 7.5918 4.47266 7.36523C4.60547 7.13477 4.67188 6.86328 4.67188 6.55078C4.67188 6.23438 4.61523 5.96094 4.50195 5.73047C4.38867 5.5 4.21094 5.32227 3.96875 5.19727C3.72656 5.07227 3.41406 5.00977 3.03125 5.00977H1.41992L1.43164 4.10156H3.63477L3.875 4.42969C4.28516 4.46484 4.63281 4.58203 4.91797 4.78125C5.20312 4.97656 5.41992 5.22656 5.56836 5.53125C5.7207 5.83594 5.79688 6.17188 5.79688 6.53906C5.79688 7.07031 5.67969 7.51953 5.44531 7.88672C5.21484 8.25 4.88867 8.52734 4.4668 8.71875C4.04492 8.90625 3.54883 9 2.97852 9ZM8.38672 3.65625V9H7.30273V2.66016H8.35742L8.38672 3.65625ZM10.3672 2.625L10.3613 3.63281C10.2715 3.61328 10.1855 3.60156 10.1035 3.59766C10.0254 3.58984 9.93555 3.58594 9.83398 3.58594C9.58398 3.58594 9.36328 3.625 9.17188 3.70312C8.98047 3.78125 8.81836 3.89062 8.68555 4.03125C8.55273 4.17188 8.44727 4.33984 8.36914 4.53516C8.29492 4.72656 8.24609 4.9375 8.22266 5.16797L7.91797 5.34375C7.91797 4.96094 7.95508 4.60156 8.0293 4.26562C8.10742 3.92969 8.22656 3.63281 8.38672 3.375C8.54688 3.11328 8.75 2.91016 8.99609 2.76562C9.24609 2.61719 9.54297 2.54297 9.88672 2.54297C9.96484 2.54297 10.0547 2.55273 10.1562 2.57227C10.2578 2.58789 10.3281 2.60547 10.3672 2.625ZM10.9648 5.90039V5.76562C10.9648 5.30859 11.0312 4.88477 11.1641 4.49414C11.2969 4.09961 11.4883 3.75781 11.7383 3.46875C11.9883 3.17578 12.291 2.94922 12.6465 2.78906C13.002 2.625 13.4004 2.54297 13.8418 2.54297C14.2871 2.54297 14.6875 2.625 15.043 2.78906C15.4023 2.94922 15.707 3.17578 15.957 3.46875C16.2109 3.75781 16.4043 4.09961 16.5371 4.49414C16.6699 4.88477 16.7363 5.30859 16.7363 5.76562V5.90039C16.7363 6.35742 16.6699 6.78125 16.5371 7.17188C16.4043 7.5625 16.2109 7.9043 15.957 8.19727C15.707 8.48633 15.4043 8.71289 15.0488 8.87695C14.6973 9.03711 14.2988 9.11719 13.8535 9.11719C13.4082 9.11719 13.0078 9.03711 12.6523 8.87695C12.2969 8.71289 11.9922 8.48633 11.7383 8.19727C11.4883 7.9043 11.2969 7.5625 11.1641 7.17188C11.0312 6.78125 10.9648 6.35742 10.9648 5.90039ZM12.0488 5.76562V5.90039C12.0488 6.2168 12.0859 6.51562 12.1602 6.79688C12.2344 7.07422 12.3457 7.32031 12.4941 7.53516C12.6465 7.75 12.8359 7.91992 13.0625 8.04492C13.2891 8.16602 13.5527 8.22656 13.8535 8.22656C14.1504 8.22656 14.4102 8.16602 14.6328 8.04492C14.8594 7.91992 15.0469 7.75 15.1953 7.53516C15.3438 7.32031 15.4551 7.07422 15.5293 6.79688C15.6074 6.51562 15.6465 6.2168 15.6465 5.90039V5.76562C15.6465 5.45312 15.6074 5.1582 15.5293 4.88086C15.4551 4.59961 15.3418 4.35156 15.1895 4.13672C15.041 3.91797 14.8535 3.74609 14.627 3.62109C14.4043 3.49609 14.1426 3.43359 13.8418 3.43359C13.5449 3.43359 13.2832 3.49609 13.0566 3.62109C12.834 3.74609 12.6465 3.91797 12.4941 4.13672C12.3457 4.35156 12.2344 4.59961 12.1602 4.88086C12.0859 5.1582 12.0488 5.45312 12.0488 5.76562ZM19.7012 7.875L21.3301 2.66016H22.0449L21.9043 3.69727L20.2461 9H19.5488L19.7012 7.875ZM18.6055 2.66016L19.9941 7.93359L20.0938 9H19.3613L17.5215 2.66016H18.6055ZM23.6035 7.89258L24.9277 2.66016H26.0059L24.166 9H23.4395L23.6035 7.89258ZM22.2031 2.66016L23.7969 7.78711L23.9785 9H23.2871L21.582 3.68555L21.4414 2.66016H22.2031ZM30.8105 7.31836C30.8105 7.16211 30.7754 7.01758 30.7051 6.88477C30.6387 6.74805 30.5 6.625 30.2891 6.51562C30.082 6.40234 29.7695 6.30469 29.3516 6.22266C29 6.14844 28.6816 6.06055 28.3965 5.95898C28.1152 5.85742 27.875 5.73438 27.6758 5.58984C27.4805 5.44531 27.3301 5.27539 27.2246 5.08008C27.1191 4.88477 27.0664 4.65625 27.0664 4.39453C27.0664 4.14453 27.1211 3.9082 27.2305 3.68555C27.3438 3.46289 27.502 3.26562 27.7051 3.09375C27.9121 2.92188 28.1602 2.78711 28.4492 2.68945C28.7383 2.5918 29.0605 2.54297 29.416 2.54297C29.9238 2.54297 30.3574 2.63281 30.7168 2.8125C31.0762 2.99219 31.3516 3.23242 31.543 3.5332C31.7344 3.83008 31.8301 4.16016 31.8301 4.52344H30.7461C30.7461 4.34766 30.6934 4.17773 30.5879 4.01367C30.4863 3.8457 30.3359 3.70703 30.1367 3.59766C29.9414 3.48828 29.7012 3.43359 29.416 3.43359C29.1152 3.43359 28.8711 3.48047 28.6836 3.57422C28.5 3.66406 28.3652 3.7793 28.2793 3.91992C28.1973 4.06055 28.1562 4.20898 28.1562 4.36523C28.1562 4.48242 28.1758 4.58789 28.2148 4.68164C28.2578 4.77148 28.332 4.85547 28.4375 4.93359C28.543 5.00781 28.6914 5.07812 28.8828 5.14453C29.0742 5.21094 29.3184 5.27734 29.6152 5.34375C30.1348 5.46094 30.5625 5.60156 30.8984 5.76562C31.2344 5.92969 31.4844 6.13086 31.6484 6.36914C31.8125 6.60742 31.8945 6.89648 31.8945 7.23633C31.8945 7.51367 31.8359 7.76758 31.7188 7.99805C31.6055 8.22852 31.4395 8.42773 31.2207 8.5957C31.0059 8.75977 30.748 8.88867 30.4473 8.98242C30.1504 9.07227 29.8164 9.11719 29.4453 9.11719C28.8867 9.11719 28.4141 9.01758 28.0273 8.81836C27.6406 8.61914 27.3477 8.36133 27.1484 8.04492C26.9492 7.72852 26.8496 7.39453 26.8496 7.04297H27.9395C27.9551 7.33984 28.041 7.57617 28.1973 7.75195C28.3535 7.92383 28.5449 8.04688 28.7715 8.12109C28.998 8.19141 29.2227 8.22656 29.4453 8.22656C29.7422 8.22656 29.9902 8.1875 30.1895 8.10938C30.3926 8.03125 30.5469 7.92383 30.6523 7.78711C30.7578 7.65039 30.8105 7.49414 30.8105 7.31836ZM35.9492 9.11719C35.5078 9.11719 35.1074 9.04297 34.748 8.89453C34.3926 8.74219 34.0859 8.5293 33.8281 8.25586C33.5742 7.98242 33.3789 7.6582 33.2422 7.2832C33.1055 6.9082 33.0371 6.49805 33.0371 6.05273V5.80664C33.0371 5.29102 33.1133 4.83203 33.2656 4.42969C33.418 4.02344 33.625 3.67969 33.8867 3.39844C34.1484 3.11719 34.4453 2.9043 34.7773 2.75977C35.1094 2.61523 35.4531 2.54297 35.8086 2.54297C36.2617 2.54297 36.6523 2.62109 36.9805 2.77734C37.3125 2.93359 37.584 3.15234 37.7949 3.43359C38.0059 3.71094 38.1621 4.03906 38.2637 4.41797C38.3652 4.79297 38.416 5.20312 38.416 5.64844V6.13477H33.6816V5.25H37.332V5.16797C37.3164 4.88672 37.2578 4.61328 37.1562 4.34766C37.0586 4.08203 36.9023 3.86328 36.6875 3.69141C36.4727 3.51953 36.1797 3.43359 35.8086 3.43359C35.5625 3.43359 35.3359 3.48633 35.1289 3.5918C34.9219 3.69336 34.7441 3.8457 34.5957 4.04883C34.4473 4.25195 34.332 4.5 34.25 4.79297C34.168 5.08594 34.127 5.42383 34.127 5.80664V6.05273C34.127 6.35352 34.168 6.63672 34.25 6.90234C34.3359 7.16406 34.459 7.39453 34.6191 7.59375C34.7832 7.79297 34.9805 7.94922 35.2109 8.0625C35.4453 8.17578 35.7109 8.23242 36.0078 8.23242C36.3906 8.23242 36.7148 8.1543 36.9805 7.99805C37.2461 7.8418 37.4785 7.63281 37.6777 7.37109L38.334 7.89258C38.1973 8.09961 38.0234 8.29688 37.8125 8.48438C37.6016 8.67188 37.3418 8.82422 37.0332 8.94141C36.7285 9.05859 36.3672 9.11719 35.9492 9.11719ZM40.7656 3.65625V9H39.6816V2.66016H40.7363L40.7656 3.65625ZM42.7461 2.625L42.7402 3.63281C42.6504 3.61328 42.5645 3.60156 42.4824 3.59766C42.4043 3.58984 42.3145 3.58594 42.2129 3.58594C41.9629 3.58594 41.7422 3.625 41.5508 3.70312C41.3594 3.78125 41.1973 3.89062 41.0645 4.03125C40.9316 4.17188 40.8262 4.33984 40.748 4.53516C40.6738 4.72656 40.625 4.9375 40.6016 5.16797L40.2969 5.34375C40.2969 4.96094 40.334 4.60156 40.4082 4.26562C40.4863 3.92969 40.6055 3.63281 40.7656 3.375C40.9258 3.11328 41.1289 2.91016 41.375 2.76562C41.625 2.61719 41.9219 2.54297 42.2656 2.54297C42.3438 2.54297 42.4336 2.55273 42.5352 2.57227C42.6367 2.58789 42.707 2.60547 42.7461 2.625ZM47.4395 7.31836C47.4395 7.16211 47.4043 7.01758 47.334 6.88477C47.2676 6.74805 47.1289 6.625 46.918 6.51562C46.7109 6.40234 46.3984 6.30469 45.9805 6.22266C45.6289 6.14844 45.3105 6.06055 45.0254 5.95898C44.7441 5.85742 44.5039 5.73438 44.3047 5.58984C44.1094 5.44531 43.959 5.27539 43.8535 5.08008C43.748 4.88477 43.6953 4.65625 43.6953 4.39453C43.6953 4.14453 43.75 3.9082 43.8594 3.68555C43.9727 3.46289 44.1309 3.26562 44.334 3.09375C44.541 2.92188 44.7891 2.78711 45.0781 2.68945C45.3672 2.5918 45.6895 2.54297 46.0449 2.54297C46.5527 2.54297 46.9863 2.63281 47.3457 2.8125C47.7051 2.99219 47.9805 3.23242 48.1719 3.5332C48.3633 3.83008 48.459 4.16016 48.459 4.52344H47.375C47.375 4.34766 47.3223 4.17773 47.2168 4.01367C47.1152 3.8457 46.9648 3.70703 46.7656 3.59766C46.5703 3.48828 46.3301 3.43359 46.0449 3.43359C45.7441 3.43359 45.5 3.48047 45.3125 3.57422C45.1289 3.66406 44.9941 3.7793 44.9082 3.91992C44.8262 4.06055 44.7852 4.20898 44.7852 4.36523C44.7852 4.48242 44.8047 4.58789 44.8438 4.68164C44.8867 4.77148 44.9609 4.85547 45.0664 4.93359C45.1719 5.00781 45.3203 5.07812 45.5117 5.14453C45.7031 5.21094 45.9473 5.27734 46.2441 5.34375C46.7637 5.46094 47.1914 5.60156 47.5273 5.76562C47.8633 5.92969 48.1133 6.13086 48.2773 6.36914C48.4414 6.60742 48.5234 6.89648 48.5234 7.23633C48.5234 7.51367 48.4648 7.76758 48.3477 7.99805C48.2344 8.22852 48.0684 8.42773 47.8496 8.5957C47.6348 8.75977 47.377 8.88867 47.0762 8.98242C46.7793 9.07227 46.4453 9.11719 46.0742 9.11719C45.5156 9.11719 45.043 9.01758 44.6562 8.81836C44.2695 8.61914 43.9766 8.36133 43.7773 8.04492C43.5781 7.72852 43.4785 7.39453 43.4785 7.04297H44.5684C44.584 7.33984 44.6699 7.57617 44.8262 7.75195C44.9824 7.92383 45.1738 8.04688 45.4004 8.12109C45.627 8.19141 45.8516 8.22656 46.0742 8.22656C46.3711 8.22656 46.6191 8.1875 46.8184 8.10938C47.0215 8.03125 47.1758 7.92383 47.2812 7.78711C47.3867 7.65039 47.4395 7.49414 47.4395 7.31836Z" fill="#EBEBED"/>
</svg>
